<?xml version="1.0" encoding="UTF-8"?>
<svg width="40px" height="40px" viewBox="0 0 40 40" version="1.1" xmlns="http://www.w3.org/2000/svg" xmlns:xlink="http://www.w3.org/1999/xlink">
    <title>AA Icon / 1+2</title>
    <defs>
        <circle id="path-1" cx="20" cy="20" r="20"></circle>
        <filter x="-17.5%" y="-12.5%" width="135.0%" height="135.0%" filterUnits="objectBoundingBox" id="filter-2">
            <feOffset dx="0" dy="2" in="SourceAlpha" result="shadowOffsetOuter1"></feOffset>
            <feGaussianBlur stdDeviation="2" in="shadowOffsetOuter1" result="shadowBlurOuter1"></feGaussianBlur>
            <feColorMatrix values="0 0 0 0 0.258888134   0 0 0 0 0.245198832   0 0 0 0 0.245198832  0 0 0 0.598694274 0" type="matrix" in="shadowBlurOuter1"></feColorMatrix>
        </filter>
    </defs>
    <g id="AA-Icon-/-1+2" stroke="none" stroke-width="1" fill="none" fill-rule="evenodd">
        <g id="AA1+2" fill-rule="nonzero">
            <g id="Oval">
                <use fill="black" fill-opacity="1" filter="url(#filter-2)" xlink:href="#path-1"></use>
                <use fill="#F69248" xlink:href="#path-1"></use>
            </g>
            <path d="M10.08,26 L11.46,22.4 L16.86,22.4 L18.24,26 L19.76,26 L14.88,13.4 L13.54,13.4 L8.58,26 L10.08,26 Z M16.42,21.24 L11.86,21.24 L12.9,18.54 C13.02,18.2466667 13.13,17.9633333 13.23,17.69 C13.33,17.4166667 13.43,17.14 13.53,16.86 C13.63,16.58 13.7333333,16.2866667 13.84,15.98 C13.9466667,15.6733333 14.0533333,15.3466667 14.16,15 L14.16,15 L14.2,15 C14.4266667,15.7066667 14.6433333,16.3566667 14.85,16.95 C15.0566667,17.5433333 15.2466667,18.0733333 15.42,18.54 L15.42,18.54 L16.42,21.24 Z M21.74,26 L23.12,22.4 L28.52,22.4 L29.9,26 L31.42,26 L26.54,13.4 L25.2,13.4 L20.24,26 L21.74,26 Z M28.08,21.24 L23.52,21.24 L24.56,18.54 C24.68,18.2466667 24.79,17.9633333 24.89,17.69 C24.99,17.4166667 25.09,17.14 25.19,16.86 C25.29,16.58 25.3933333,16.2866667 25.5,15.98 C25.6066667,15.6733333 25.7133333,15.3466667 25.82,15 L25.82,15 L25.86,15 C26.0866667,15.7066667 26.3033333,16.3566667 26.51,16.95 C26.7166667,17.5433333 26.9066667,18.0733333 27.08,18.54 L27.08,18.54 L28.08,21.24 Z" id="AA" fill="#FFFFFF"></path>
        </g>
    </g>
</svg>