<?xml version="1.0" encoding="UTF-8"?>
<svg width="41px" height="40px" viewBox="0 0 41 40" version="1.1" xmlns="http://www.w3.org/2000/svg" xmlns:xlink="http://www.w3.org/1999/xlink">
    <title>AA Icon / 3 + 4</title>
    <defs>
        <circle id="path-1" cx="20" cy="20" r="20"></circle>
        <filter x="-17.5%" y="-12.5%" width="135.0%" height="135.0%" filterUnits="objectBoundingBox" id="filter-2">
            <feOffset dx="0" dy="2" in="SourceAlpha" result="shadowOffsetOuter1"></feOffset>
            <feGaussianBlur stdDeviation="2" in="shadowOffsetOuter1" result="shadowBlurOuter1"></feGaussianBlur>
            <feColorMatrix values="0 0 0 0 0   0 0 0 0 0   0 0 0 0 0  0 0 0 0.5 0" type="matrix" in="shadowBlurOuter1"></feColorMatrix>
        </filter>
    </defs>
    <g id="AA-Icon-/-3-+-4" stroke="none" stroke-width="1" fill="none" fill-rule="evenodd">
        <g id="Group" transform="translate(1.000000, 0.000000)" fill-rule="nonzero">
            <g id="Oval">
                <use fill="black" fill-opacity="1" filter="url(#filter-2)" xlink:href="#path-1"></use>
                <use fill="#FF6665" xlink:href="#path-1"></use>
            </g>
            <path d="M9.74,26 L11.12,22.4 L16.52,22.4 L17.9,26 L19.42,26 L14.54,13.4 L13.2,13.4 L8.24,26 L9.74,26 Z M16.08,21.24 L11.52,21.24 L12.56,18.54 C12.68,18.2466667 12.79,17.9633333 12.89,17.69 C12.99,17.4166667 13.09,17.14 13.19,16.86 C13.29,16.58 13.3933333,16.2866667 13.5,15.98 C13.6066667,15.6733333 13.7133333,15.3466667 13.82,15 L13.82,15 L13.86,15 C14.0866667,15.7066667 14.3033333,16.3566667 14.51,16.95 C14.7166667,17.5433333 14.9066667,18.0733333 15.08,18.54 L15.08,18.54 L16.08,21.24 Z M21.4,26 L22.78,22.4 L28.18,22.4 L29.56,26 L31.08,26 L26.2,13.4 L24.86,13.4 L19.9,26 L21.4,26 Z M27.74,21.24 L23.18,21.24 L24.22,18.54 C24.34,18.2466667 24.45,17.9633333 24.55,17.69 C24.65,17.4166667 24.75,17.14 24.85,16.86 C24.95,16.58 25.0533333,16.2866667 25.16,15.98 C25.2666667,15.6733333 25.3733333,15.3466667 25.48,15 L25.48,15 L25.52,15 C25.7466667,15.7066667 25.9633333,16.3566667 26.17,16.95 C26.3766667,17.5433333 26.5666667,18.0733333 26.74,18.54 L26.74,18.54 L27.74,21.24 Z" id="AA" fill="#FFFFFF"></path>
        </g>
    </g>
</svg>