<svg xmlns="http://www.w3.org/2000/svg" width="47" height="39" viewBox="0 0 47 39">
    <path fill="#2D3B4F" fill-rule="nonzero" d="M46.396 35.066L25.971 1.654c-1.36-2.226-3.583-2.195-4.942.032L.604 35.052C-.756 37.28.259 39 2.86 39h41.279c2.602 0 3.617-1.71 2.257-3.934zM24.003 10c1.158 0 2.053 1.44 1.994 3.2l-.366 10.602C25.57 25.56 24.837 27 23.999 27c-.838 0-1.574-1.44-1.634-3.198L22.003 13.2c-.06-1.76.84-3.199 2-3.199zm-.517 23c-1.493 0-2.516-1.056-2.485-2.5 0-1.475 1.026-2.5 2.485-2.5 1.52 0 2.482 1.025 2.514 2.5 0 1.444-.994 2.5-2.514 2.5z"/>
</svg>
