<svg xmlns="http://www.w3.org/2000/svg" width="78" height="51" viewBox="0 0 78 51">
    <path fill="#2D3A4E" fill-rule="nonzero" d="M39.142 44.313c1.08 0 1.867.804 1.94 1.785l.005.148v2.82c0 1.048-.892 1.934-1.945 1.934-1.003 0-1.86-.73-1.94-1.775l-.005-.159v-2.82c0-1.047.81-1.933 1.945-1.933zM16.045 22.8v7.735L4.375 50.033c-.406.645-1.054.967-1.702.967-.405 0-.73-.08-1.054-.322-.921-.535-1.188-1.647-.8-2.517l.07-.142 15.156-25.218zm46.194 0l15.074 25.218c.648.886.324 2.095-.73 2.659a1.564 1.564 0 0 1-.972.322c-.594 0-1.189-.27-1.596-.812l-.106-.155-11.67-19.497V22.8zM39.142 34.16c1.08 0 1.867.804 1.94 1.785l.005.149v2.82c0 1.047-.892 1.933-1.945 1.933-1.003 0-1.86-.73-1.94-1.774l-.005-.16v-2.82c0-1.047.81-1.933 1.945-1.933zM47.489 0a7.22 7.22 0 0 1 6.889 4.995l1.864 5.801h2.917c1.297 0 2.35 1.048 2.189 2.256v1.29a2.259 2.259 0 0 1-2.27 2.255h-.81c.486 2.176.73 4.27.73 6.446V34.08a2.259 2.259 0 0 1-2.27 2.255H52.92c-1.216 0-2.27-.966-2.27-2.255v-3.545H27.554v3.545a2.259 2.259 0 0 1-2.27 2.255h-3.808c-1.216 0-2.27-.966-2.27-2.255V23.043c0-2.176.244-4.351.73-6.446h-.81c-1.216 0-2.27-.967-2.27-2.256v-1.289c0-1.208.973-2.256 2.27-2.256h2.917l1.864-5.8A7.22 7.22 0 0 1 30.795 0zM26.5 19.336c-.81-.16-1.62.484-1.62 1.37v2.256c0 .725.567 1.37 1.377 1.37h4.62c.891 0 1.54-.806 1.377-1.692l-.324-1.45a1.373 1.373 0 0 0-1.134-1.128zm26.987 1.29c0-.887-.729-1.531-1.62-1.37l-4.296.725c-.567.161-1.053.564-1.134 1.128l-.324 1.45c-.163.886.486 1.692 1.377 1.692h4.62c.73 0 1.377-.564 1.377-1.37zM47.57 4.512H30.876c-1.216 0-2.27.725-2.594 1.853l-2.269 6.768a.517.517 0 0 0 .486.644h25.367a.517.517 0 0 0 .486-.644l-2.188-6.768c-.406-1.128-1.46-1.853-2.594-1.853z"/>
</svg>
