<?xml version="1.0" encoding="UTF-8"?>
<svg width="44px" height="45px" viewBox="0 0 44 45" version="1.1" xmlns="http://www.w3.org/2000/svg" xmlns:xlink="http://www.w3.org/1999/xlink">
    <title>AA Icon / 3 + 4 selected Copy 3</title>
    <defs>
        <circle id="path-1" cx="20" cy="20" r="20"></circle>
        <filter x="-21.2%" y="-16.2%" width="142.5%" height="142.5%" filterUnits="objectBoundingBox" id="filter-2">
            <feMorphology radius="1.5" operator="dilate" in="SourceAlpha" result="shadowSpreadOuter1"></feMorphology>
            <feOffset dx="0" dy="2" in="shadowSpreadOuter1" result="shadowOffsetOuter1"></feOffset>
            <feGaussianBlur stdDeviation="2" in="shadowOffsetOuter1" result="shadowBlurOuter1"></feGaussianBlur>
            <feComposite in="shadowBlurOuter1" in2="SourceAlpha" operator="out" result="shadowBlurOuter1"></feComposite>
            <feColorMatrix values="0 0 0 0 0   0 0 0 0 0   0 0 0 0 0  0 0 0 0.5 0" type="matrix" in="shadowBlurOuter1"></feColorMatrix>
        </filter>
    </defs>
    <g id="AA-Icon-/-3-+-4-selected-Copy-3" stroke="none" stroke-width="1" fill="none" fill-rule="evenodd">
        <g id="BH1+2Selected" transform="translate(2.000000, 2.000000)" fill-rule="nonzero">
            <g id="Oval">
                <use fill="black" fill-opacity="1" filter="url(#filter-2)" xlink:href="#path-1"></use>
                <use stroke="#0F2365" stroke-width="3" fill="#F69248" xlink:href="#path-1"></use>
            </g>
            <path d="M13.8,26 C14.4666667,26 15.08,25.9133333 15.64,25.74 C16.2,25.5666667 16.68,25.3266667 17.08,25.02 C17.48,24.7133333 17.79,24.3433333 18.01,23.91 C18.23,23.4766667 18.34,23 18.34,22.48 C18.34,22.0266667 18.27,21.6166667 18.13,21.25 C17.99,20.8833333 17.8,20.5666667 17.56,20.3 C17.32,20.0333333 17.04,19.8166667 16.72,19.65 C16.4,19.4833333 16.0533333,19.3666667 15.68,19.3 C16.3333333,19.1266667 16.8766667,18.8233333 17.31,18.39 C17.7433333,17.9566667 17.96,17.3533333 17.96,16.58 C17.96,15.54 17.61,14.75 16.91,14.21 C16.21,13.67 15.2333333,13.4 13.98,13.4 L13.98,13.4 L10.6,13.4 L10.6,26 L13.8,26 Z M13.56,18.8 L12.04,18.8 L12.04,14.56 L13.7,14.56 C14.5266667,14.56 15.1966667,14.7266667 15.71,15.06 C16.2233333,15.3933333 16.48,15.9333333 16.48,16.68 C16.48,17.0933333 16.4,17.4366667 16.24,17.71 C16.08,17.9833333 15.8633333,18.2 15.59,18.36 C15.3166667,18.52 15.0033333,18.6333333 14.65,18.7 C14.2966667,18.7666667 13.9333333,18.8 13.56,18.8 L13.56,18.8 Z M13.6,24.84 L12.04,24.84 L12.04,19.94 L13.46,19.94 C13.8866667,19.94 14.3033333,19.98 14.71,20.06 C15.1166667,20.14 15.4766667,20.27 15.79,20.45 C16.1033333,20.63 16.3533333,20.87 16.54,21.17 C16.7266667,21.47 16.82,21.8466667 16.82,22.3 C16.82,22.7666667 16.7333333,23.1633333 16.56,23.49 C16.3866667,23.8166667 16.1533333,24.08 15.86,24.28 C15.5666667,24.48 15.2266667,24.6233333 14.84,24.71 C14.4533333,24.7966667 14.04,24.84 13.6,24.84 L13.6,24.84 Z M22.38,26 L22.38,20.08 L28.76,20.08 L28.76,26 L30.2,26 L30.2,13.4 L28.76,13.4 L28.76,18.88 L22.38,18.88 L22.38,13.4 L20.94,13.4 L20.94,26 L22.38,26 Z" id="BH" fill="#FFFFFF"></path>
        </g>
    </g>
</svg>