<?xml version="1.0" encoding="UTF-8"?>
<svg width="40px" height="40px" viewBox="0 0 40 40" version="1.1" xmlns="http://www.w3.org/2000/svg" xmlns:xlink="http://www.w3.org/1999/xlink">
    <title>AA Icon / 1 +2 </title>
    <defs>
        <circle id="path-1" cx="20" cy="20" r="20"></circle>
        <filter x="-17.5%" y="-12.5%" width="135.0%" height="135.0%" filterUnits="objectBoundingBox" id="filter-2">
            <feOffset dx="0" dy="2" in="SourceAlpha" result="shadowOffsetOuter1"></feOffset>
            <feGaussianBlur stdDeviation="2" in="shadowOffsetOuter1" result="shadowBlurOuter1"></feGaussianBlur>
            <feColorMatrix values="0 0 0 0 0   0 0 0 0 0   0 0 0 0 0  0 0 0 0.5 0" type="matrix" in="shadowBlurOuter1"></feColorMatrix>
        </filter>
    </defs>
    <g id="AA-Icon-/-1-+2-" stroke="none" stroke-width="1" fill="none" fill-rule="evenodd">
        <g id="BH1+2" fill-rule="nonzero">
            <g id="Oval">
                <use fill="black" fill-opacity="1" filter="url(#filter-2)" xlink:href="#path-1"></use>
                <use fill="#F69248" xlink:href="#path-1"></use>
            </g>
            <path d="M13.2,26.6 C13.8666667,26.6 14.48,26.5133333 15.04,26.34 C15.6,26.1666667 16.08,25.9266667 16.48,25.62 C16.88,25.3133333 17.19,24.9433333 17.41,24.51 C17.63,24.0766667 17.74,23.6 17.74,23.08 C17.74,22.6266667 17.67,22.2166667 17.53,21.85 C17.39,21.4833333 17.2,21.1666667 16.96,20.9 C16.72,20.6333333 16.44,20.4166667 16.12,20.25 C15.8,20.0833333 15.4533333,19.9666667 15.08,19.9 C15.7333333,19.7266667 16.2766667,19.4233333 16.71,18.99 C17.1433333,18.5566667 17.36,17.9533333 17.36,17.18 C17.36,16.14 17.01,15.35 16.31,14.81 C15.61,14.27 14.6333333,14 13.38,14 L13.38,14 L10,14 L10,26.6 L13.2,26.6 Z M12.96,19.4 L11.44,19.4 L11.44,15.16 L13.1,15.16 C13.9266667,15.16 14.5966667,15.3266667 15.11,15.66 C15.6233333,15.9933333 15.88,16.5333333 15.88,17.28 C15.88,17.6933333 15.8,18.0366667 15.64,18.31 C15.48,18.5833333 15.2633333,18.8 14.99,18.96 C14.7166667,19.12 14.4033333,19.2333333 14.05,19.3 C13.6966667,19.3666667 13.3333333,19.4 12.96,19.4 L12.96,19.4 Z M13,25.44 L11.44,25.44 L11.44,20.54 L12.86,20.54 C13.2866667,20.54 13.7033333,20.58 14.11,20.66 C14.5166667,20.74 14.8766667,20.87 15.19,21.05 C15.5033333,21.23 15.7533333,21.47 15.94,21.77 C16.1266667,22.07 16.22,22.4466667 16.22,22.9 C16.22,23.3666667 16.1333333,23.7633333 15.96,24.09 C15.7866667,24.4166667 15.5533333,24.68 15.26,24.88 C14.9666667,25.08 14.6266667,25.2233333 14.24,25.31 C13.8533333,25.3966667 13.44,25.44 13,25.44 L13,25.44 Z M21.78,26.6 L21.78,20.68 L28.16,20.68 L28.16,26.6 L29.6,26.6 L29.6,14 L28.16,14 L28.16,19.48 L21.78,19.48 L21.78,14 L20.34,14 L20.34,26.6 L21.78,26.6 Z" id="BH" fill="#FFFFFF"></path>
        </g>
    </g>
</svg>