<?xml version="1.0" encoding="UTF-8"?>
<svg width="41px" height="40px" viewBox="0 0 41 40" version="1.1" xmlns="http://www.w3.org/2000/svg" xmlns:xlink="http://www.w3.org/1999/xlink">
    <title>AA Icon / 3 + 4 Copy 2</title>
    <defs>
        <circle id="path-1" cx="20" cy="20" r="20"></circle>
        <filter x="-17.5%" y="-12.5%" width="135.0%" height="135.0%" filterUnits="objectBoundingBox" id="filter-2">
            <feOffset dx="0" dy="2" in="SourceAlpha" result="shadowOffsetOuter1"></feOffset>
            <feGaussianBlur stdDeviation="2" in="shadowOffsetOuter1" result="shadowBlurOuter1"></feGaussianBlur>
            <feColorMatrix values="0 0 0 0 0   0 0 0 0 0   0 0 0 0 0  0 0 0 0.5 0" type="matrix" in="shadowBlurOuter1"></feColorMatrix>
        </filter>
    </defs>
    <g id="AA-Icon-/-3-+-4-Copy-2" stroke="none" stroke-width="1" fill="none" fill-rule="evenodd">
        <g id="Group" transform="translate(1.000000, 0.000000)" fill-rule="nonzero">
            <g id="Oval">
                <use fill="black" fill-opacity="1" filter="url(#filter-2)" xlink:href="#path-1"></use>
                <use fill="#FF6665" xlink:href="#path-1"></use>
            </g>
        </g>
        <path d="M17,26.96 C17.8,26.96 18.4766667,26.9066667 19.03,26.8 C19.5833333,26.6933333 20.0933333,26.5266667 20.56,26.3 L20.56,26.3 L20.14,24.82 C19.7133333,25.02 19.2833333,25.1733333 18.85,25.28 C18.4166667,25.3866667 17.8666667,25.44 17.2,25.44 C16.6266667,25.44 16.0866667,25.35 15.58,25.17 C15.0733333,24.99 14.63,24.7066667 14.25,24.32 C13.87,23.9333333 13.5666667,23.4266667 13.34,22.8 C13.1133333,22.1733333 13,21.4066667 13,20.5 C13,19.6066667 13.1166667,18.8433333 13.35,18.21 C13.5833333,17.5766667 13.8966667,17.06 14.29,16.66 C14.6833333,16.26 15.1433333,15.97 15.67,15.79 C16.1966667,15.61 16.7533333,15.52 17.34,15.52 C17.6333333,15.52 17.8966667,15.5333333 18.13,15.56 C18.3633333,15.5866667 18.59,15.6266667 18.81,15.68 C19.03,15.7333333 19.25,15.8033333 19.47,15.89 C19.69,15.9766667 19.9266667,16.0733333 20.18,16.18 L20.18,16.18 L20.62,14.74 C20.1666667,14.5133333 19.6733333,14.3333333 19.14,14.2 C18.6066667,14.0666667 17.9266667,14 17.1,14 C16.22,14 15.4066667,14.1433333 14.66,14.43 C13.9133333,14.7166667 13.27,15.1366667 12.73,15.69 C12.19,16.2433333 11.7666667,16.9233333 11.46,17.73 C11.1533333,18.5366667 11,19.4533333 11,20.48 C11,21.5333333 11.1566667,22.4633333 11.47,23.27 C11.7833333,24.0766667 12.21,24.7533333 12.75,25.3 C13.29,25.8466667 13.9266667,26.26 14.66,26.54 C15.3933333,26.82 16.1733333,26.96 17,26.96 Z M24.72,26.78 L24.72,21.28 L29.84,21.28 L29.84,19.78 L24.72,19.78 L24.72,15.7 L30.28,15.7 L30.28,14.18 L22.88,14.18 L22.88,26.78 L24.72,26.78 Z" id="CF" fill="#FFFFFF" fill-rule="nonzero"></path>
    </g>
</svg>