<?xml version="1.0" encoding="iso-8859-1"?>
<!-- Generator: Adobe Illustrator 19.0.0, SVG Export Plug-In . SVG Version: 6.00 Build 0)  -->
<svg version="1.1" id="Capa_1" xmlns="http://www.w3.org/2000/svg" xmlns:xlink="http://www.w3.org/1999/xlink"
	 viewBox="0 0 512 512" style="enable-background:new 0 0 512 512;" xml:space="preserve">

	<g>
		<path d="M496.855,0H15.145C6.782,0,0.002,6.78,0.002,15.143v481.71c0,8.363,6.78,15.143,15.143,15.143h177.157
			c0.035,0,0.071,0.004,0.107,0.004c0.027,0,0.055-0.004,0.082-0.004h304.364c8.363,0,15.143-6.78,15.143-15.143V302.582
			c0-0.013,0-0.026,0-0.039V15.143C511.998,6.78,505.218,0,496.855,0z M481.711,294.295l-33.515,22.174l-26.494-40.497
			c-4.579-6.999-13.966-8.958-20.963-4.382c-6.999,4.579-8.961,13.964-4.382,20.963l26.58,40.628l-40.434,26.751
			c-6.975,4.615-8.889,14.009-4.273,20.984c2.913,4.404,7.731,6.79,12.642,6.79c2.869,0,5.771-0.815,8.342-2.516l82.498-54.581
			v151.101H202.539v-0.001l-31.697-76.888l62.584-44.067c6.839-4.815,8.478-14.262,3.664-21.099
			c-4.814-6.838-14.263-8.478-21.099-3.664l-56.982,40.123l-13.815-33.512c-3.187-7.732-12.04-11.417-19.771-8.229
			c-7.732,3.188-11.417,12.04-8.229,19.772l21.149,51.302c0.001,0.003,0.002,0.005,0.003,0.008l31.436,76.256H30.288V222.031
			l109.334-67.786l67.646,34.505c0.027,0.014,0.055,0.028,0.083,0.042l75.086,38.299c2.204,1.124,4.553,1.657,6.869,1.657
			c5.511,0,10.826-3.019,13.501-8.266c3.8-7.45,0.841-16.569-6.609-20.37l-59.452-30.324l12.857-17.767h44.761
			c8.363,0,15.143-6.78,15.143-15.143s-6.78-15.143-15.143-15.143h-52.495c-4.858,0-9.42,2.33-12.268,6.265l-20.162,27.86
			l-63.662-32.472c-4.72-2.408-10.356-2.172-14.859,0.619L30.287,186.396V30.286h331.144l36.085,61.168l-14.166,32.271
			c-3.362,7.657,0.12,16.591,7.778,19.952c1.981,0.869,4.046,1.282,6.078,1.282c5.826,0,11.38-3.383,13.873-9.06l17.284-39.372
			c1.957-4.458,1.652-9.586-0.822-13.78l-30.948-52.461h85.117V294.295z"/>
	</g>

</svg>
