<?xml version="1.0" encoding="UTF-8"?>
<svg width="28px" height="32px" viewBox="0 0 28 32" version="1.1" xmlns="http://www.w3.org/2000/svg" xmlns:xlink="http://www.w3.org/1999/xlink">
    <title>notification_important (1) copy</title>
    <g id="Symbols" stroke="none" stroke-width="1" fill="none" fill-rule="evenodd">
        <g id="SideBar" transform="translate(-20.000000, -230.000000)" fill-rule="nonzero" stroke="#FFFFFF" stroke-width="1.5">
            <g id="Group-9" transform="translate(0.000000, 86.000000)">
                <g id="Group-8" transform="translate(0.000000, 72.000000)">
                    <g id="Group-4" transform="translate(0.000000, 73.000000)">
                        <g id="notification_important-(1)-copy" transform="translate(21.000000, 0.000000)">
                            <path d="M10.1255556,27.1415869 C10.1255556,28.7216142 11.4111111,30 13,30 C14.5888889,30 15.8744444,28.7216142 15.8744444,27.1415869 L10.1255556,27.1415869 Z M13,0 C11.8011111,0 10.8333333,0.962380301 10.8333333,2.15458276 L10.8333333,3.83515732 C6.29777778,4.8119015 2.88888889,8.83378933 2.88888889,13.6456908 L2.88888889,22.2640219 L0,25.1367989 L0,26.5731874 L26,26.5731874 L26,25.1367989 L23.1111111,22.2640219 L23.1111111,13.6456908 C23.1111111,8.83378933 19.7022222,4.8119015 15.1666667,3.83515732 L15.1666667,2.15458276 C15.1666667,0.962380301 14.1988889,0 13,0 Z" id="Shape"></path>
                        </g>
                    </g>
                </g>
            </g>
        </g>
    </g>
</svg>