<svg xmlns="http://www.w3.org/2000/svg" width="20" height="21" viewBox="0 0 20 21">
    <path fill="#FFF" fill-rule="nonzero" d="M11.719 0c1.24 0 2.256.953 2.338 2.159l.005.158v.464h5.157c.259 0 .468.207.468.463a.465.465 0 0 1-.384.456l-.084.008h-1.64v14.136c0 1.48-1.169 2.688-2.642 2.776l-.171.005H5.39c-1.496 0-2.72-1.155-2.808-2.611l-.005-.17V3.708H.468A.466.466 0 0 1 0 3.244c0-.227.166-.416.384-.456l.085-.007h5.625v-.464c0-1.226.963-2.23 2.183-2.312L8.437 0h3.282zm4.922 3.708H3.516v14.136c0 .975.761 1.775 1.728 1.848l.147.006h9.375c.986 0 1.794-.753 1.869-1.709l.006-.145V3.708zm-6.563 3.465c.23 0 .422.164.461.38l.008.084v8.343c0 .256-.21.463-.469.463a.467.467 0 0 1-.461-.38l-.008-.083V7.637c0-.256.21-.464.47-.464zm3.281 0c.23 0 .422.164.462.38l.007.084v8.343c0 .256-.21.463-.469.463a.467.467 0 0 1-.46-.38l-.008-.083V7.637c0-.256.21-.464.468-.464zm-6.562 0c.259 0 .469.208.469.464v8.343c0 .256-.21.463-.47.463a.466.466 0 0 1-.468-.463V7.637c0-.256.21-.464.469-.464zM11.719.927H8.438a1.4 1.4 0 0 0-1.4 1.257l-.007.133v.464h6.094v-.464c0-.768-.63-1.39-1.406-1.39z"/>
</svg>
