<?xml version="1.0" encoding="UTF-8"?>
<svg width="70px" height="69px" viewBox="0 0 70 69" version="1.1" xmlns="http://www.w3.org/2000/svg" xmlns:xlink="http://www.w3.org/1999/xlink">
    <title>crack/ground failure copy 3</title>
    <defs>
        <rect id="path-1" x="0.980514138" y="0.0186720062" width="68.75" height="68.75" rx="34.375"></rect>
        <filter x="-10.2%" y="-7.3%" width="120.4%" height="120.4%" filterUnits="objectBoundingBox" id="filter-2">
            <feOffset dx="0" dy="2" in="SourceAlpha" result="shadowOffsetOuter1"></feOffset>
            <feGaussianBlur stdDeviation="2" in="shadowOffsetOuter1" result="shadowBlurOuter1"></feGaussianBlur>
            <feComposite in="shadowBlurOuter1" in2="SourceAlpha" operator="out" result="shadowBlurOuter1"></feComposite>
            <feColorMatrix values="0 0 0 0 0   0 0 0 0 0   0 0 0 0 0  0 0 0 0.5 0" type="matrix" in="shadowBlurOuter1"></feColorMatrix>
        </filter>
    </defs>
    <g id="crack/ground-failure-copy-3" stroke="none" stroke-width="1" fill="none" fill-rule="evenodd">
        <g id="crack/ground-failure">
            <g id="Rectangle">
                <use fill="black" fill-opacity="1" filter="url(#filter-2)" xlink:href="#path-1"></use>
                <rect stroke="#0F2365" stroke-width="5" stroke-linejoin="square" fill="#F7BC19" fill-rule="evenodd" x="3.48051414" y="2.51867201" width="63.75" height="63.75" rx="31.875"></rect>
            </g>
            <g id="crack-(1)-copy" transform="translate(18.480514, 15.018672)" fill="#FFFFFF" fill-rule="nonzero">
                <path d="M34.8605585,0.340960699 C34.6440804,0.0257265087 34.2343848,-0.0877890499 33.8881905,0.0718983567 L8.10140255,11.9730633 C7.76590805,12.1279069 7.58269254,12.4973598 7.66139069,12.860719 C7.74001131,13.224 8.05922344,13.4830624 8.42836818,13.4830624 L16.4828723,13.4830624 L1.43074534,24.266728 C1.15239423,24.4661028 1.03399809,24.8239933 1.13789517,25.1518056 C1.24179224,25.4796179 1.5441017,25.7021177 1.88564394,25.7021177 L9.28396832,25.7021177 L0.143584684,38.7530476 C-0.0717303662,39.0604693 -0.0421894824,39.4782034 0.214064116,39.7518751 C0.366808318,39.915 0.574912601,40 0.785187868,40 C0.927774969,40 1.0715251,39.9608594 1.19969066,39.8804688 L29.2744627,22.2707135 C29.6424444,22.0399324 29.755103,21.5521983 29.5259866,21.1813391 C29.3927813,20.9657143 29.1732793,20.8378237 28.940674,20.8132925 C28.9348588,20.8125893 28.928501,20.8122768 28.9224532,20.81173 C28.9055506,20.8103237 28.8886479,20.8093081 28.8716677,20.8089956 C28.8677909,20.8089175 28.864612,20.8083706 28.8606577,20.8083706 L21.1307156,20.7975112 L33.3187725,10.7160328 C33.5751036,10.5040016 33.6714798,10.1525175 33.5596741,9.83798639 C33.4478685,9.52353345 33.152227,9.31376795 32.8207644,9.31376795 C32.8206093,9.31376795 32.8204542,9.31376795 32.8202992,9.31376795 L26.7910901,9.3173617 L34.7675939,1.35275698 C35.0378814,1.08283527 35.0771141,0.656429265 34.8605585,0.340960699 Z M10.0135739,32.4889106 L3.66197372,36.4728927 L10.0135739,27.4038355 L10.0135739,32.4889106 Z M18.1564681,21.583292 C18.1564681,21.5836045 18.1564681,21.5839951 18.1564681,21.5843076 L18.1564681,27.3813355 L11.5834276,31.5042237 L11.5834276,24.9114151 C11.5834276,24.8996963 11.582187,24.888212 11.5817218,24.8766495 C11.5813342,24.8668839 11.581024,24.8573526 11.5802487,24.847587 C11.5749763,24.781337 11.5616402,24.7175871 11.541171,24.656884 C11.5389224,24.6500871 11.5362863,24.6433684 11.5338051,24.6365715 C11.5238031,24.6095403 11.5125605,24.583134 11.4998447,24.557509 C11.4982165,24.5541497 11.4972085,24.5507122 11.4955028,24.5474309 C11.494805,24.5461028 11.4938745,24.545009 11.4932543,24.5436028 C11.4780574,24.5144622 11.4610772,24.4864934 11.4424687,24.4596966 C11.4382818,24.4536028 11.4337073,24.4479778 11.4293653,24.4420404 C11.414246,24.4214154 11.3981187,24.4015716 11.3810609,24.3825091 C11.3752458,24.3760248 11.3695857,24.3694623 11.3636155,24.3632123 C11.3419057,24.3404779 11.3191879,24.3187592 11.2949194,24.2988373 C11.2916629,24.2962592 11.2883289,24.2939936 11.2850724,24.2914154 C11.2630525,24.2738373 11.2400245,24.2576655 11.2161437,24.2424311 C11.2093982,24.2381342 11.2025751,24.2339936 11.1956744,24.2299311 C11.1707081,24.2151655 11.145044,24.2015717 11.118527,24.1896186 C11.1158908,24.1884467 11.1132546,24.1869624 11.1105409,24.1857124 C11.0806898,24.1726655 11.0497533,24.161728 11.018119,24.1524311 C11.0119162,24.1506343 11.0056358,24.149228 10.9993555,24.1475874 C10.9740015,24.1407905 10.9481823,24.1353218 10.9218204,24.131103 C10.9135241,24.1297749 10.9052278,24.1283687 10.8968541,24.1271968 C10.8645219,24.1230562 10.8318796,24.1203218 10.7983844,24.1203218 L4.34412778,24.1203218 L13.7040134,17.4145445 L13.7040134,22.0391511 C13.7040134,22.4759478 14.0554801,22.8300882 14.488979,22.8300882 C14.9224779,22.8300882 15.2739446,22.4760259 15.2739446,22.0391511 L15.2739446,16.2898576 L18.1564681,14.2247026 L18.1564681,21.583292 L18.1564681,21.583292 Z M26.1197134,22.3863384 L19.7263218,26.3965705 L19.7263218,22.3773541 L26.1197134,22.3863384 Z M30.6259775,10.8969701 L25.6679162,14.9981396 L25.6679162,10.8999389 L30.6259775,10.8969701 Z M24.3304353,9.54767406 C24.3301251,9.54798656 24.329815,9.54845531 24.3295048,9.54876781 C24.3048487,9.5734553 24.282441,9.60025216 24.2611964,9.62798652 C24.2562341,9.63439276 24.251427,9.64079901 24.2468524,9.64736151 C24.2266933,9.67548649 24.2078522,9.7046271 24.1913372,9.73540833 C24.1907945,9.73642395 24.1904068,9.7375177 24.1898641,9.73861145 C24.1741244,9.76845518 24.1607109,9.79962704 24.1489255,9.83158015 C24.1465219,9.83806452 24.1440408,9.84447077 24.1418698,9.85103326 C24.1198498,9.9153301 24.105816,9.98322068 24.1009313,10.0537675 C24.100311,10.0629863 24.0999233,10.072205 24.0995356,10.0814238 C24.0992255,10.0907987 24.09814,10.1000175 24.09814,10.1094706 L24.09814,16.2967326 L19.7263994,19.9129024 L19.7263994,12.7005628 C19.7263994,12.7002503 19.7263994,12.6998597 19.7263994,12.6995472 L19.7263994,12.6922035 C19.7263994,12.688766 19.7259341,12.6854847 19.7259341,12.6820472 C19.7257015,12.6620472 19.7246936,12.6419691 19.7229103,12.621891 C19.7222125,12.6136098 19.721282,12.6053285 19.7202741,12.5971254 C19.7184132,12.5816567 19.7160096,12.5661879 19.7132959,12.5507973 C19.7116677,12.5413442 19.7100394,12.5318129 19.707946,12.5225161 C19.7049221,12.5084536 19.7010454,12.4943911 19.6971686,12.4803286 C19.69461,12.4709536 19.6923614,12.4615005 19.6894926,12.4523599 C19.6894151,12.4521255 19.6894151,12.4518911 19.6893376,12.4517349 C19.6826695,12.4306411 19.6750711,12.4098599 19.6666973,12.3896255 C19.6630532,12.3808755 19.6588663,12.3723599 19.6549895,12.3638443 C19.6490193,12.3506412 19.6429716,12.3375943 19.6363035,12.3248599 C19.6319616,12.3165787 19.6273095,12.3083756 19.6226574,12.3002506 C19.6153691,12.28736 19.6077706,12.2746256 19.599707,12.2622037 C19.5950548,12.2550162 19.5904803,12.2479069 19.5855956,12.2409537 C19.5761363,12.2272037 19.5661342,12.2139225 19.5558221,12.2009538 C19.5517127,12.1957194 19.547836,12.1904069 19.5436491,12.1854069 C19.513798,12.1493913 19.4809231,12.1163444 19.4455671,12.0865007 C19.4398295,12.081657 19.4339369,12.077282 19.4281217,12.0725945 C19.4158712,12.0628288 19.4035431,12.0534538 19.3907498,12.0444695 C19.3833839,12.0392351 19.3759406,12.0342351 19.3682646,12.0293132 C19.3562467,12.0215007 19.3439961,12.0140789 19.3315905,12.0068133 C19.3236044,12.0021258 19.3156182,11.9974383 19.3074771,11.9930633 C19.2929005,11.9853289 19.2779362,11.9782976 19.2628944,11.9715008 C19.254288,11.9675164 19.245604,11.9636883 19.2368426,11.9600164 C19.2189319,11.9526727 19.2007112,11.9459539 19.1821803,11.9398602 C19.1733413,11.9370477 19.1642697,11.9346258 19.1552756,11.9320477 C19.1413193,11.9280633 19.127363,11.9243133 19.113019,11.9211102 C19.1037923,11.9190789 19.0944105,11.9171258 19.0850288,11.9153289 C19.0696768,11.9125164 19.0540923,11.9100946 19.0384302,11.9081414 C19.030289,11.9071258 19.0223029,11.9059539 19.0140066,11.9051727 C18.9899707,11.9029852 18.9657022,11.9014227 18.9412786,11.9014227 L12.026851,11.9014227 L30.5216928,3.36549018 L24.3304353,9.54767406 Z" id="Shape"></path>
                <path d="M14.875,24.3478261 C13.709273,24.3478261 13.707394,26.0869565 14.875,26.0869565 C16.040727,26.0869565 16.042606,24.3478261 14.875,24.3478261 Z" id="Path"></path>
            </g>
        </g>
    </g>
</svg>