<?xml version="1.0" encoding="UTF-8"?>
<svg width="68px" height="68px" viewBox="0 0 68 68" version="1.1" xmlns="http://www.w3.org/2000/svg" xmlns:xlink="http://www.w3.org/1999/xlink">
    <title>crack/ground failure</title>
    <defs>
        <rect id="path-1" x="0.84044069" y="0.873147434" width="58.9285714" height="58.9285714" rx="29.4642857"></rect>
        <filter x="-11.9%" y="-8.5%" width="123.8%" height="123.8%" filterUnits="objectBoundingBox" id="filter-2">
            <feOffset dx="0" dy="2" in="SourceAlpha" result="shadowOffsetOuter1"></feOffset>
            <feGaussianBlur stdDeviation="2" in="shadowOffsetOuter1" result="shadowBlurOuter1"></feGaussianBlur>
            <feColorMatrix values="0 0 0 0 0   0 0 0 0 0   0 0 0 0 0  0 0 0 0.5 0" type="matrix" in="shadowBlurOuter1"></feColorMatrix>
        </filter>
    </defs>
    <g id="Page-1" stroke="none" stroke-width="1" fill="none" fill-rule="evenodd">
        <g id="Tablet-Copy" transform="translate(-99.000000, -202.000000)">
            <g id="crack/ground-failure" transform="translate(103.000000, 204.000000)">
                <g id="Rectangle">
                    <use fill="black" fill-opacity="1" filter="url(#filter-2)" xlink:href="#path-1"></use>
                    <use fill="#D5001A" fill-rule="evenodd" xlink:href="#path-1"></use>
                </g>
                <g id="crack-(1)-copy" transform="translate(15.840441, 13.730290)" fill="#FFFFFF" fill-rule="nonzero">
                    <path d="M29.8804787,0.292252028 C29.6949261,0.0220512931 29.3437584,-0.0752477571 29.0470204,0.0616271629 L6.94405932,10.2626257 C6.65649261,10.3953488 6.49945075,10.7120227 6.56690631,11.0234734 C6.63429541,11.3348572 6.9079058,11.5569106 7.22431558,11.5569106 L14.1281763,11.5569106 L1.22635315,20.8000525 C0.987766487,20.9709453 0.886284081,21.2777085 0.975338713,21.5586905 C1.06439335,21.8396725 1.32351574,22.0303866 1.61626623,22.0303866 L7.95768713,22.0303866 L0.123072586,33.2168979 C-0.061483171,33.4804023 -0.0361624135,33.8384601 0.183483528,34.0730358 C0.314407129,34.2128572 0.49278223,34.2857143 0.673018173,34.2857143 C0.795235687,34.2857143 0.918450082,34.2521652 1.02830628,34.183259 L25.0923966,19.089183 C25.4078095,18.8913706 25.504374,18.4733128 25.3079886,18.1554335 C25.1938125,17.9706122 25.005668,17.8609918 24.806292,17.839965 C24.8013076,17.8393623 24.795858,17.8390944 24.7906742,17.8386257 C24.7761862,17.8374203 24.7616982,17.8365498 24.7471437,17.8362819 C24.7438208,17.836215 24.741096,17.8357462 24.7377066,17.8357462 L18.1120419,17.8264382 L28.5589479,9.18517093 C28.7786603,9.00342997 28.8612684,8.70215782 28.765435,8.43255977 C28.6696016,8.16302867 28.4161946,7.98322967 28.1320838,7.98322967 C28.1319508,7.98322967 28.1318179,7.98322967 28.131685,7.98322967 L22.9637915,7.98631003 L29.8007948,1.15950598 C30.0324697,0.928144513 30.0660978,0.562653655 29.8804787,0.292252028 Z M8.58306332,27.8476377 L3.13883462,31.2624794 L8.58306332,23.4890019 L8.58306332,27.8476377 Z M15.5626869,18.4999646 C15.5626869,18.5002324 15.5626869,18.5005673 15.5626869,18.5008351 L15.5626869,23.4697161 L9.92865224,27.0036203 L9.92865224,21.3526415 C9.92865224,21.3425969 9.9275889,21.3327531 9.92719014,21.3228424 C9.92685785,21.3144719 9.92659202,21.3063022 9.92592743,21.2979317 C9.92140824,21.241146 9.90997735,21.1865032 9.89243225,21.134472 C9.89050495,21.1286461 9.88824536,21.1228872 9.88611868,21.1170613 C9.87754551,21.0938916 9.867909,21.0712577 9.85700978,21.0492935 C9.85561415,21.046414 9.85475018,21.0434676 9.85328809,21.0406551 C9.85268996,21.0395167 9.85189246,21.0385792 9.85136079,21.0373738 C9.83833489,21.0123962 9.82378044,20.988423 9.80783035,20.9654542 C9.80424158,20.960231 9.80032052,20.9554096 9.79659884,20.9503203 C9.78363939,20.9326417 9.76981599,20.9156328 9.75519508,20.8992935 C9.75021068,20.8937355 9.74535919,20.8881105 9.74024187,20.8827534 C9.72163344,20.8632668 9.70216105,20.8446507 9.68135948,20.8275748 C9.67856822,20.825365 9.6757105,20.8234231 9.67291923,20.8212132 C9.65404497,20.8061463 9.63430674,20.7922847 9.61383746,20.7792267 C9.60805556,20.7755436 9.60220719,20.7719945 9.59629237,20.7685124 C9.57489268,20.7558561 9.55289485,20.7442043 9.53016598,20.7339588 C9.52790639,20.7329544 9.52564679,20.731682 9.52332074,20.7306106 C9.49773415,20.7194276 9.47121713,20.7100526 9.44410199,20.7020838 C9.4387853,20.7005437 9.43340214,20.6993383 9.42801899,20.6979321 C9.406287,20.6921062 9.38415626,20.6874187 9.36156031,20.6838026 C9.35444923,20.6826642 9.34733815,20.6814589 9.34016061,20.6804544 C9.31244734,20.6769053 9.28446824,20.6745615 9.25575809,20.6745615 L3.7235381,20.6745615 L11.7462972,14.9267524 L11.7462972,18.890701 C11.7462972,19.2650981 12.0475544,19.568647 12.4191249,19.568647 C12.7906953,19.568647 13.0919525,19.265165 13.0919525,18.890701 L13.0919525,13.9627351 L15.5626869,12.1926022 L15.5626869,18.4999646 L15.5626869,18.4999646 Z M22.3883258,19.1882901 L16.9082758,22.6256318 L16.9082758,19.1805892 L22.3883258,19.1882901 Z M26.2508379,9.34026013 L22.001071,12.8555483 L22.001071,9.34280477 L26.2508379,9.34026013 Z M20.8546588,8.18372063 C20.854393,8.18398848 20.8541271,8.18439027 20.8538613,8.18465813 C20.8327274,8.20581883 20.8135209,8.22878756 20.7953112,8.25255987 C20.7910578,8.25805094 20.7869374,8.26354201 20.7830163,8.269167 C20.7657371,8.29327413 20.7495876,8.3182518 20.7354319,8.34463571 C20.7349667,8.34550625 20.7346344,8.34644375 20.7341692,8.34738124 C20.7206781,8.37296159 20.7091807,8.39968032 20.699079,8.4270687 C20.6970188,8.43262673 20.6948921,8.4381178 20.6930313,8.4437428 C20.674157,8.49885437 20.662128,8.5570463 20.6579411,8.61751502 C20.6574094,8.6254168 20.6570771,8.63331858 20.6567448,8.64122036 C20.656479,8.64925607 20.6555486,8.65715785 20.6555486,8.66526052 L20.6555486,13.968628 L16.9083423,17.068202 L16.9083423,10.8861967 C16.9083423,10.8859289 16.9083423,10.885594 16.9083423,10.8853262 L16.9083423,10.8790315 C16.9083423,10.8760851 16.9079436,10.8732726 16.9079436,10.8703262 C16.9077442,10.8531834 16.9068802,10.8359735 16.9053517,10.8187637 C16.9047535,10.8116655 16.903956,10.8045673 16.9030921,10.7975361 C16.9014971,10.7842771 16.8994368,10.7710182 16.8971108,10.7578263 C16.8957152,10.7497236 16.8943195,10.741554 16.8925251,10.7335852 C16.8899333,10.7215316 16.8866103,10.7094781 16.8832874,10.6974245 C16.8810942,10.6893888 16.8791669,10.6812861 16.876708,10.6734513 C16.8766415,10.6732504 16.8766415,10.6730495 16.8765751,10.6729156 C16.8708596,10.6548353 16.8643467,10.6370228 16.8571691,10.619679 C16.8540456,10.612179 16.8504568,10.6048799 16.8471339,10.5975808 C16.8420165,10.5862639 16.8368328,10.5750808 16.8311173,10.5641657 C16.8273956,10.5570675 16.8234081,10.5500362 16.8194206,10.5430719 C16.8131735,10.5320228 16.8066605,10.5211077 16.7997488,10.5104603 C16.7957613,10.5042996 16.7918402,10.4982059 16.7876533,10.4922461 C16.7795454,10.4804604 16.7709722,10.4690764 16.7621332,10.4579604 C16.7586109,10.4534738 16.755288,10.4489202 16.7516992,10.4446345 C16.7261126,10.413764 16.6979341,10.3854381 16.667629,10.3598577 C16.662711,10.355706 16.6576602,10.351956 16.6526758,10.3479381 C16.6421753,10.3395676 16.6316084,10.3315319 16.6206427,10.323831 C16.6143291,10.3193444 16.6079491,10.3150587 16.6013697,10.3108399 C16.5910686,10.3041435 16.5805681,10.2977819 16.5699347,10.2915542 C16.5630895,10.2875364 16.5562442,10.2835185 16.5492661,10.2797685 C16.5367718,10.273139 16.5239453,10.2671123 16.5110523,10.2612864 C16.5036754,10.2578712 16.496232,10.25459 16.4887222,10.2514426 C16.4733702,10.245148 16.4577524,10.2393891 16.4418688,10.2341659 C16.4342925,10.2317551 16.4265169,10.2296793 16.4188077,10.2274694 C16.4068451,10.2240543 16.3948825,10.22084 16.3825877,10.2180944 C16.3746791,10.2163534 16.3666376,10.2146793 16.3585961,10.2131391 C16.3454373,10.2107284 16.3320791,10.2086525 16.3186544,10.2069784 C16.3116763,10.2061078 16.304831,10.2051034 16.2977199,10.2044337 C16.2771178,10.2025587 16.2563162,10.2012194 16.2353817,10.2012194 L10.3087294,10.2012194 L26.1614509,2.88470587 L20.8546588,8.18372063 Z" id="Shape"></path>
                    <path d="M12.75,20.8695652 C11.7508055,20.8695652 11.7491949,22.3602484 12.75,22.3602484 C13.7491945,22.3602484 13.7508051,20.8695652 12.75,20.8695652 Z" id="Path"></path>
                </g>
            </g>
        </g>
    </g>
</svg>