<?xml version="1.0" encoding="UTF-8"?>
<svg width="68px" height="68px" viewBox="0 0 68 68" version="1.1" xmlns="http://www.w3.org/2000/svg" xmlns:xlink="http://www.w3.org/1999/xlink">
    <title>inadequate safety berm</title>
    <defs>
        <rect id="path-1" x="0" y="0" width="60" height="60" rx="30"></rect>
        <filter x="-11.7%" y="-8.3%" width="123.3%" height="123.3%" filterUnits="objectBoundingBox" id="filter-2">
            <feOffset dx="0" dy="2" in="SourceAlpha" result="shadowOffsetOuter1"></feOffset>
            <feGaussianBlur stdDeviation="2" in="shadowOffsetOuter1" result="shadowBlurOuter1"></feGaussianBlur>
            <feColorMatrix values="0 0 0 0 0   0 0 0 0 0   0 0 0 0 0  0 0 0 0.5 0" type="matrix" in="shadowBlurOuter1"></feColorMatrix>
        </filter>
    </defs>
    <g id="Page-1" stroke="none" stroke-width="1" fill="none" fill-rule="evenodd">
        <g id="Tablet-Copy" transform="translate(-397.000000, -478.000000)">
            <g id="inadequate-safety-berm" transform="translate(401.000000, 480.000000)">
                <g id="Rectangle">
                    <use fill="black" fill-opacity="1" filter="url(#filter-2)" xlink:href="#path-1"></use>
                    <use fill="#FF6A00" fill-rule="evenodd" xlink:href="#path-1"></use>
                </g>
                <g id="barrier-copy" transform="translate(14.000000, 13.000000)" fill="#FFFFFF" fill-rule="nonzero">
                    <path d="M31.4482759,8.80864226 L30.6857931,8.80864226 L29.737931,6.9134693 C29.6440133,6.72616807 29.45149,6.60828499 29.2413793,6.60942792 L28.6896552,6.60942792 L28.6896552,3.86041 C28.6873974,3.80268429 28.6758479,3.74569492 28.6554483,3.6916203 C29.4671888,2.81608195 29.4311976,1.45548449 28.5742963,0.623779068 C27.717395,-0.207926356 26.3515705,-0.207926356 25.4946692,0.623779068 C24.6377679,1.45548449 24.6017768,2.81608195 25.4135172,3.6916203 C25.3931176,3.74569492 25.3815681,3.80268429 25.3793103,3.86041 L25.3793103,6.60942792 L24.8275862,6.60942792 C24.6174755,6.60828499 24.4249522,6.72616807 24.3310345,6.9134693 L23.3831724,8.80864226 L8.61682759,8.80864226 L7.66896552,6.9134693 C7.57504777,6.72616807 7.38252448,6.60828499 7.17241379,6.60942792 L6.62068966,6.60942792 L6.62068966,3.86041 C6.61843188,3.80268429 6.60688242,3.74569492 6.58648276,3.6916203 C7.39822324,2.81608195 7.36223208,1.45548449 6.50533079,0.623779068 C5.64842951,-0.207926356 4.28260498,-0.207926356 3.42570369,0.623779068 C2.5688024,1.45548449 2.53281124,2.81608195 3.34455172,3.6916203 C3.32415206,3.74569492 3.3126026,3.80268429 3.31034483,3.86041 L3.31034483,6.60942792 L2.75862069,6.60942792 C2.54950292,6.60933081 2.35830322,6.72705749 2.26482759,6.9134693 L1.3142069,8.80864226 L0.551724138,8.80864226 C0.24701531,8.80864226 3.63797881e-12,9.05479771 3.63797881e-12,9.35844585 L3.63797881e-12,13.7568745 C3.63797881e-12,14.0605227 0.24701531,14.3066781 0.551724138,14.3066781 L2.75862069,14.3066781 L2.75862069,17.6054996 L0.551724138,17.6054996 C0.24701531,17.6054996 3.63797881e-12,17.8516551 3.63797881e-12,18.1553032 L3.63797881e-12,22.5537319 C3.63797881e-12,22.85738 0.24701531,23.1035355 0.551724138,23.1035355 L2.75862069,23.1035355 L2.75862069,32.4501964 C2.75862069,32.7538446 3.005636,33 3.31034483,33 L6.62068966,33 C6.92539848,33 7.17241379,32.7538446 7.17241379,32.4501964 L7.17241379,28.6015713 L20.224,28.6015713 L19.9724138,29.7011785 L18.2068966,29.7011785 C17.9021877,29.7011785 17.6551724,29.9473339 17.6551724,30.2509821 L17.6551724,32.4501964 C17.6551724,32.7538446 17.9021877,33 18.2068966,33 L30.3448276,33 C30.6495364,33 30.8965517,32.7538446 30.8965517,32.4501964 L30.8965517,30.2509821 C30.8965517,29.9473339 30.6495364,29.7011785 30.3448276,29.7011785 L29.2413793,29.7011785 L29.2413793,23.1035355 L31.4482759,23.1035355 C31.7529847,23.1035355 32,22.85738 32,22.5537319 L32,18.1553032 C32,17.8516551 31.7529847,17.6054996 31.4482759,17.6054996 L29.2413793,17.6054996 L29.2413793,14.3066781 L31.4482759,14.3066781 C31.7529847,14.3066781 32,14.0605227 32,13.7568745 L32,9.35844585 C32,9.05479771 31.7529847,8.80864226 31.4482759,8.80864226 Z M30.1164138,9.90824943 L26.806069,13.2070709 L25.056,13.2070709 L28.3663448,9.90824943 L30.1164138,9.90824943 Z M27.1961379,28.6015713 L27.4466207,29.7011785 L21.1051034,29.7011785 L21.3555862,28.6015713 L27.1961379,28.6015713 Z M27.0736552,23.1035355 L28.137931,23.1035355 L28.137931,27.7691687 L27.0736552,23.1035355 Z M23.1111724,20.9043211 L23.6126897,18.7051068 L24.9368276,18.7051068 L25.4383448,20.9043211 L23.1111724,20.9043211 Z M25.6910345,22.0039283 L25.942069,23.1035355 L22.6096552,23.1035355 L22.8606897,22.0039283 L25.6910345,22.0039283 Z M24.8275862,17.6054996 L7.17241379,17.6054996 L7.17241379,14.3066781 L24.8275862,14.3066781 L24.8275862,17.6054996 Z M18.4353103,18.7051068 L20.1853793,18.7051068 L16.8750345,22.0039283 L15.1249655,22.0039283 L18.4353103,18.7051068 Z M13.5646897,22.0039283 L11.8146207,22.0039283 L15.1249655,18.7051068 L16.8750345,18.7051068 L13.5646897,22.0039283 Z M21.7456552,18.7051068 L22.4811034,18.7051068 L22.1826207,20.0136393 L20.1853793,22.0039283 L18.4353103,22.0039283 L21.7456552,18.7051068 Z M13.5646897,18.7051068 L10.2543448,22.0039283 L8.50427586,22.0039283 L11.8146207,18.7051068 L13.5646897,18.7051068 Z M21.478069,23.1035355 L20.976,25.3027498 L7.17241379,25.3027498 L7.17241379,23.1035355 L21.478069,23.1035355 Z M21.6066207,27.5019642 L21.8571034,26.402357 L26.6946207,26.402357 L26.9451034,27.5019642 L21.6066207,27.5019642 Z M22.1081379,25.3027498 L22.3586207,24.2031426 L26.1931034,24.2031426 L26.4435862,25.3027498 L22.1081379,25.3027498 Z M26.2068966,19.3021935 L26.0706207,18.7051068 L26.806069,18.7051068 L26.2068966,19.3021935 Z M25.9310345,17.6054996 L25.9310345,14.3066781 L28.137931,14.3066781 L28.137931,17.6054996 L25.9310345,17.6054996 Z M27.0344828,1.11139207 C27.6439004,1.11139207 28.137931,1.60370297 28.137931,2.21099924 C28.137931,2.81829551 27.6439004,3.31060641 27.0344828,3.31060641 C26.4250651,3.31060641 25.9310345,2.81829551 25.9310345,2.21099924 C25.9310345,1.60370297 26.4250651,1.11139207 27.0344828,1.11139207 Z M27.5862069,4.41021358 L27.5862069,6.60942792 L26.4827586,6.60942792 L26.4827586,4.41021358 L27.5862069,4.41021358 Z M25.1685517,7.70903509 L28.9004138,7.70903509 L29.4521379,8.80864226 L24.6168276,8.80864226 L25.1685517,7.70903509 Z M25.0582069,9.90824943 L26.8082759,9.90824943 L23.497931,13.2070709 L21.7456552,13.2070709 L25.0582069,9.90824943 Z M23.497931,9.90824943 L20.1875862,13.2070709 L18.4353103,13.2070709 L21.7456552,9.90824943 L23.497931,9.90824943 Z M20.1875862,9.90824943 L16.8772414,13.2070709 L15.1249655,13.2070709 L18.4353103,9.90824943 L20.1875862,9.90824943 Z M16.8772414,9.90824943 L13.5668966,13.2070709 L11.8146207,13.2070709 L15.1249655,9.90824943 L16.8772414,9.90824943 Z M13.5668966,9.90824943 L10.2565517,13.2070709 L8.50427586,13.2070709 L11.8146207,9.90824943 L13.5668966,9.90824943 Z M8.50648276,9.90824943 L10.2565517,9.90824943 L6.9462069,13.2070709 L5.19393103,13.2070709 L8.50648276,9.90824943 Z M6.06896552,14.3066781 L6.06896552,17.6054996 L3.86206897,17.6054996 L3.86206897,14.3066781 L6.06896552,14.3066781 Z M4.96551724,1.11139207 C5.5749349,1.11139207 6.06896552,1.60370297 6.06896552,2.21099924 C6.06896552,2.81829551 5.5749349,3.31060641 4.96551724,3.31060641 C4.35609959,3.31060641 3.86206897,2.81829551 3.86206897,2.21099924 C3.86206897,1.60370297 4.35609959,1.11139207 4.96551724,1.11139207 Z M5.51724138,4.41021358 L5.51724138,6.60942792 L4.4137931,6.60942792 L4.4137931,4.41021358 L5.51724138,4.41021358 Z M3.09958621,7.70903509 L6.83144828,7.70903509 L7.38317241,8.80864226 L2.54786207,8.80864226 L3.09958621,7.70903509 Z M1.10344828,9.90824943 L3.63365517,9.90824943 L1.10344828,12.4296487 L1.10344828,9.90824943 Z M1.88358621,13.2070709 L5.19393103,9.90824943 L6.944,9.90824943 L3.63365517,13.2070709 L1.88358621,13.2070709 Z M1.10344828,18.7051068 L3.63365517,18.7051068 L1.10344828,21.226506 L1.10344828,18.7051068 Z M1.88358621,22.0039283 L5.19393103,18.7051068 L6.944,18.7051068 L3.63365517,22.0039283 L1.88358621,22.0039283 Z M6.06896552,31.9003928 L3.86206897,31.9003928 L3.86206897,23.1035355 L6.06896552,23.1035355 L6.06896552,31.9003928 Z M6.944,22.0039283 L5.19393103,22.0039283 L8.50427586,18.7051068 L10.2543448,18.7051068 L6.944,22.0039283 Z M7.17241379,27.5019642 L7.17241379,26.402357 L20.7255172,26.402357 L20.4744828,27.5019642 L7.17241379,27.5019642 Z M29.7931034,30.8007857 L29.7931034,31.9003928 L18.7586207,31.9003928 L18.7586207,30.8007857 L29.7931034,30.8007857 Z M30.8965517,22.0039283 L28.3663448,22.0039283 L30.8965517,19.4825291 L30.8965517,22.0039283 Z M30.1164138,18.7051068 L26.8198621,21.9901832 L26.496,20.5689409 L28.3663448,18.7051068 L30.1164138,18.7051068 Z M30.8965517,13.2070709 L28.3663448,13.2070709 L30.8965517,10.6856717 L30.8965517,13.2070709 Z" id="Shape"></path>
                </g>
            </g>
        </g>
    </g>
</svg>