<?xml version="1.0" encoding="UTF-8"?>
<svg width="70px" height="70px" viewBox="0 0 70 70" version="1.1" xmlns="http://www.w3.org/2000/svg" xmlns:xlink="http://www.w3.org/1999/xlink">
    <title>inadequate safety berm copy 2</title>
    <defs>
        <rect id="path-1" x="0" y="0" width="70" height="70" rx="35"></rect>
        <filter x="-10.0%" y="-7.1%" width="120.0%" height="120.0%" filterUnits="objectBoundingBox" id="filter-2">
            <feOffset dx="0" dy="2" in="SourceAlpha" result="shadowOffsetOuter1"></feOffset>
            <feGaussianBlur stdDeviation="2" in="shadowOffsetOuter1" result="shadowBlurOuter1"></feGaussianBlur>
            <feComposite in="shadowBlurOuter1" in2="SourceAlpha" operator="out" result="shadowBlurOuter1"></feComposite>
            <feColorMatrix values="0 0 0 0 0   0 0 0 0 0   0 0 0 0 0  0 0 0 0.5 0" type="matrix" in="shadowBlurOuter1"></feColorMatrix>
        </filter>
    </defs>
    <g id="inadequate-safety-berm-copy-2" stroke="none" stroke-width="1" fill="none" fill-rule="evenodd">
        <g id="inadequate-safety-berm">
            <g id="Rectangle">
                <use fill="black" fill-opacity="1" filter="url(#filter-2)" xlink:href="#path-1"></use>
                <rect stroke="#0F2365" stroke-width="5" stroke-linejoin="square" fill="#F59316" fill-rule="evenodd" x="2.5" y="2.5" width="65" height="65" rx="32.5"></rect>
            </g>
            <g id="barrier-copy" transform="translate(21.000000, 21.000000)" fill="#FFFFFF" fill-rule="nonzero">
                <path d="M27.5172414,7.74092805 L26.850069,7.74092805 L26.0206897,6.07547302 C25.9385116,5.91087497 25.7700537,5.80728075 25.5862069,5.80828514 L25.1034483,5.80828514 L25.1034483,3.39248151 C25.1014727,3.34175286 25.0913669,3.29167129 25.0735172,3.24415117 C25.7837902,2.47473868 25.7522979,1.27906213 25.0025093,0.548169484 C24.2527206,-0.182723161 23.0576242,-0.182723161 22.3078356,0.548169484 C21.5580469,1.27906213 21.5265547,2.47473868 22.2368276,3.24415117 C22.2189779,3.29167129 22.2088721,3.34175286 22.2068966,3.39248151 L22.2068966,5.80828514 L21.7241379,5.80828514 C21.5402911,5.80728075 21.3718332,5.91087497 21.2896552,6.07547302 L20.4602759,7.74092805 L7.53972414,7.74092805 L6.71034483,6.07547302 C6.6281668,5.91087497 6.45970892,5.80728075 6.27586207,5.80828514 L5.79310345,5.80828514 L5.79310345,3.39248151 C5.7911279,3.34175286 5.78102212,3.29167129 5.76317241,3.24415117 C6.47344533,2.47473868 6.44195307,1.27906213 5.69216445,0.548169484 C4.94237582,-0.182723161 3.74727935,-0.182723161 2.99749073,0.548169484 C2.2477021,1.27906213 2.21620984,2.47473868 2.92648276,3.24415117 C2.90863305,3.29167129 2.89852727,3.34175286 2.89655172,3.39248151 L2.89655172,5.80828514 L2.4137931,5.80828514 C2.23081505,5.80819981 2.06351532,5.91165658 1.98172414,6.07547302 L1.14993103,7.74092805 L0.482758621,7.74092805 C0.216138397,7.74092805 0,7.95724647 0,8.22408877 L0,12.0893746 C0,12.3562169 0.216138397,12.5725353 0.482758621,12.5725353 L2.4137931,12.5725353 L2.4137931,15.4714997 L0.482758621,15.4714997 C0.216138397,15.4714997 0,15.6878181 0,15.9546604 L0,19.8199462 C0,20.0867885 0.216138397,20.3031069 0.482758621,20.3031069 L2.4137931,20.3031069 L2.4137931,28.5168393 C2.4137931,28.7836816 2.6299315,29 2.89655172,29 L5.79310345,29 C6.05972367,29 6.27586207,28.7836816 6.27586207,28.5168393 L6.27586207,25.1347142 L17.696,25.1347142 L17.4758621,26.1010356 L15.9310345,26.1010356 C15.6644143,26.1010356 15.4482759,26.3173541 15.4482759,26.5841964 L15.4482759,28.5168393 C15.4482759,28.7836816 15.6644143,29 15.9310345,29 L26.5517241,29 C26.8183444,29 27.0344828,28.7836816 27.0344828,28.5168393 L27.0344828,26.5841964 C27.0344828,26.3173541 26.8183444,26.1010356 26.5517241,26.1010356 L25.5862069,26.1010356 L25.5862069,20.3031069 L27.5172414,20.3031069 C27.7838616,20.3031069 28,20.0867885 28,19.8199462 L28,15.9546604 C28,15.6878181 27.7838616,15.4714997 27.5172414,15.4714997 L25.5862069,15.4714997 L25.5862069,12.5725353 L27.5172414,12.5725353 C27.7838616,12.5725353 28,12.3562169 28,12.0893746 L28,8.22408877 C28,7.95724647 27.7838616,7.74092805 27.5172414,7.74092805 Z M26.3518621,8.7072495 L23.4553103,11.6062139 L21.924,11.6062139 L24.8205517,8.7072495 L26.3518621,8.7072495 Z M23.7966207,25.1347142 L24.0157931,26.1010356 L18.4669655,26.1010356 L18.6861379,25.1347142 L23.7966207,25.1347142 Z M23.6894483,20.3031069 L24.6206897,20.3031069 L24.6206897,24.4032089 L23.6894483,20.3031069 Z M20.2222759,18.370464 L20.6611034,16.4378211 L21.8197241,16.4378211 L22.2585517,18.370464 L20.2222759,18.370464 Z M22.4796552,19.3367855 L22.6993103,20.3031069 L19.7834483,20.3031069 L20.0031034,19.3367855 L22.4796552,19.3367855 Z M21.7241379,15.4714997 L6.27586207,15.4714997 L6.27586207,12.5725353 L21.7241379,12.5725353 L21.7241379,15.4714997 Z M16.1308966,16.4378211 L17.6622069,16.4378211 L14.7656552,19.3367855 L13.2343448,19.3367855 L16.1308966,16.4378211 Z M11.8691034,19.3367855 L10.3377931,19.3367855 L13.2343448,16.4378211 L14.7656552,16.4378211 L11.8691034,19.3367855 Z M19.0274483,16.4378211 L19.6709655,16.4378211 L19.4097931,17.5877436 L17.6622069,19.3367855 L16.1308966,19.3367855 L19.0274483,16.4378211 Z M11.8691034,16.4378211 L8.97255172,19.3367855 L7.44124138,19.3367855 L10.3377931,16.4378211 L11.8691034,16.4378211 Z M18.7933103,20.3031069 L18.354,22.2357498 L6.27586207,22.2357498 L6.27586207,20.3031069 L18.7933103,20.3031069 Z M18.9057931,24.1683927 L19.1249655,23.2020713 L23.3577931,23.2020713 L23.5769655,24.1683927 L18.9057931,24.1683927 Z M19.3446207,22.2357498 L19.5637931,21.2694284 L22.9189655,21.2694284 L23.1381379,22.2357498 L19.3446207,22.2357498 Z M22.9310345,16.9625337 L22.8117931,16.4378211 L23.4553103,16.4378211 L22.9310345,16.9625337 Z M22.6896552,15.4714997 L22.6896552,12.5725353 L24.6206897,12.5725353 L24.6206897,15.4714997 L22.6896552,15.4714997 Z M23.6551724,0.976677881 C24.1884129,0.976677881 24.6206897,1.40931473 24.6206897,1.94299933 C24.6206897,2.47667788 24.1884129,2.90932079 23.6551724,2.90932079 C23.121932,2.90932079 22.6896552,2.47667788 22.6896552,1.94299933 C22.6896552,1.40931473 23.121932,0.976677881 23.6551724,0.976677881 Z M24.137931,3.87564224 L24.137931,5.80828514 L23.1724138,5.80828514 L23.1724138,3.87564224 L24.137931,3.87564224 Z M22.0224828,6.7746066 L25.2878621,6.7746066 L25.7706207,7.74092805 L21.5397241,7.74092805 L22.0224828,6.7746066 Z M21.925931,8.7072495 L23.4572414,8.7072495 L20.5606897,11.6062139 L19.0274483,11.6062139 L21.925931,8.7072495 Z M20.5606897,8.7072495 L17.6641379,11.6062139 L16.1308966,11.6062139 L19.0274483,8.7072495 L20.5606897,8.7072495 Z M17.6641379,8.7072495 L14.7675862,11.6062139 L13.2343448,11.6062139 L16.1308966,8.7072495 L17.6641379,8.7072495 Z M14.7675862,8.7072495 L11.8710345,11.6062139 L10.3377931,11.6062139 L13.2343448,8.7072495 L14.7675862,8.7072495 Z M11.8710345,8.7072495 L8.97448276,11.6062139 L7.44124138,11.6062139 L10.3377931,8.7072495 L11.8710345,8.7072495 Z M7.44317241,8.7072495 L8.97448276,8.7072495 L6.07793103,11.6062139 L4.54468966,11.6062139 L7.44317241,8.7072495 Z M5.31034483,12.5725353 L5.31034483,15.4714997 L3.37931034,15.4714997 L3.37931034,12.5725353 L5.31034483,12.5725353 Z M4.34482759,0.976677881 C4.87806803,0.976677881 5.31034483,1.40931473 5.31034483,1.94299933 C5.31034483,2.47667788 4.87806803,2.90932079 4.34482759,2.90932079 C3.81158714,2.90932079 3.37931034,2.47667788 3.37931034,1.94299933 C3.37931034,1.40931473 3.81158714,0.976677881 4.34482759,0.976677881 Z M4.82758621,3.87564224 L4.82758621,5.80828514 L3.86206897,5.80828514 L3.86206897,3.87564224 L4.82758621,3.87564224 Z M2.71213793,6.7746066 L5.97751724,6.7746066 L6.46027586,7.74092805 L2.22937931,7.74092805 L2.71213793,6.7746066 Z M0.965517241,8.7072495 L3.17944828,8.7072495 L0.965517241,10.9230246 L0.965517241,8.7072495 Z M1.64813793,11.6062139 L4.54468966,8.7072495 L6.076,8.7072495 L3.17944828,11.6062139 L1.64813793,11.6062139 Z M0.965517241,16.4378211 L3.17944828,16.4378211 L0.965517241,18.6535962 L0.965517241,16.4378211 Z M1.64813793,19.3367855 L4.54468966,16.4378211 L6.076,16.4378211 L3.17944828,19.3367855 L1.64813793,19.3367855 Z M5.31034483,28.0336785 L3.37931034,28.0336785 L3.37931034,20.3031069 L5.31034483,20.3031069 L5.31034483,28.0336785 Z M6.076,19.3367855 L4.54468966,19.3367855 L7.44124138,16.4378211 L8.97255172,16.4378211 L6.076,19.3367855 Z M6.27586207,24.1683927 L6.27586207,23.2020713 L18.1348276,23.2020713 L17.9151724,24.1683927 L6.27586207,24.1683927 Z M26.0689655,27.0673571 L26.0689655,28.0336785 L16.4137931,28.0336785 L16.4137931,27.0673571 L26.0689655,27.0673571 Z M27.0344828,19.3367855 L24.8205517,19.3367855 L27.0344828,17.1210104 L27.0344828,19.3367855 Z M26.3518621,16.4378211 L23.4673793,19.3247065 L23.184,18.075736 L24.8205517,16.4378211 L26.3518621,16.4378211 Z M27.0344828,11.6062139 L24.8205517,11.6062139 L27.0344828,9.39043877 L27.0344828,11.6062139 Z" id="Shape"></path>
            </g>
        </g>
    </g>
</svg>