<?xml version="1.0" encoding="UTF-8"?>
<svg width="59px" height="54px" viewBox="0 0 59 54" version="1.1" xmlns="http://www.w3.org/2000/svg" xmlns:xlink="http://www.w3.org/1999/xlink">
    <!-- Generator: Sketch 57.1 (83088) - https://sketch.com -->
    <title>Shape</title>
    <desc>Created with Sketch.</desc>
    <g id="Tablet-alert" stroke="none" stroke-width="1" fill="none" fill-rule="evenodd">
        <path d="M56.8140313,6.80307696 L40.5436467,0.375576957 C39.2811727,-0.125192319 37.8727873,-0.125192319 36.6103133,0.375576957 L19.9692877,6.98307696 C19.8807006,7.02056216 19.7857083,7.04092697 19.6894159,7.04307696 L19.6894159,7.04307696 C19.5931235,7.04092697 19.4981312,7.02056216 19.4095441,6.98307696 L3.13159538,0.533076957 C2.42977542,0.247189827 1.63028893,0.328004613 1.00109164,0.748435448 C0.371894351,1.16886628 -0.00375095432,1.87327681 2.82471991e-05,2.62557696 L2.82471991e-05,44.400577 C0.00225082375,45.3198993 0.568289383,46.1454293 1.42967231,46.485577 L17.7000569,52.875577 C18.9625309,53.3763462 20.3709163,53.3763462 21.6333903,52.875577 L38.2744159,46.268077 C38.363003,46.2305918 38.4579953,46.2102269 38.5542877,46.208077 L38.5542877,46.208077 C38.6505801,46.2102269 38.7455724,46.2305918 38.8341595,46.268077 L55.1121082,52.718077 C55.8102147,52.9937539 56.6006868,52.9088955 57.2231089,52.4914576 C57.845531,52.0740197 58.219178,51.3781422 58.2209576,50.633077 L58.2209576,8.88807696 C58.2225023,7.9742826 57.6665048,7.15031801 56.8140313,6.80307696 Z M1.9894159,45.053077 C1.7039844,44.9403777 1.51565727,44.6676909 1.51287744,44.363077 L1.51287744,2.62557696 C1.51499761,2.37876508 1.63945484,2.14878767 1.84569795,2.01057696 C1.97005162,1.92448822 2.11763428,1.87745294 2.26928769,1.87557696 C2.36558012,1.87772694 2.46057241,1.89809175 2.54915949,1.93557696 L18.8271082,8.38557696 L18.9103133,8.38557696 L18.9103133,51.698077 C18.6885027,51.6539922 18.4708795,51.5912657 18.2598005,51.510577 L1.9894159,45.053077 Z M21.0736467,51.510577 C20.8625677,51.5912657 20.6449444,51.6539922 20.4231338,51.698077 L20.4231338,8.37807696 L20.506339,8.37807696 L37.1473646,1.77057696 C37.3584436,1.6898882 37.5760668,1.62716175 37.7978774,1.58307696 L37.7978774,44.873077 L37.7146723,44.873077 L21.0736467,51.510577 Z M56.7308262,50.663077 C56.7285759,50.9105455 56.6033488,51.1409833 56.3961407,51.2789511 C56.1889327,51.4169189 55.9264206,51.4446541 55.6945441,51.353077 L39.4165954,44.903077 L39.3333903,44.903077 L39.3333903,1.55307696 C39.5552009,1.59716175 39.7728241,1.6598882 39.9839031,1.74057696 L56.2542877,8.19807696 C56.5397192,8.31077626 56.7280463,8.583463 56.7308262,8.88807696 L56.7308262,50.663077 Z" id="Shape" fill="#FFFFFF" fill-rule="nonzero" transform="translate(29.110480, 26.625577) scale(-1, 1) translate(-29.110480, -26.625577) "></path>
    </g>
</svg>