<?xml version="1.0" encoding="UTF-8"?>
<svg width="68px" height="68px" viewBox="0 0 68 68" version="1.1" xmlns="http://www.w3.org/2000/svg" xmlns:xlink="http://www.w3.org/1999/xlink">
    <title>muddy surface</title>
    <defs>
        <rect id="path-1" x="0" y="0" width="60" height="60" rx="30"></rect>
        <filter x="-11.7%" y="-8.3%" width="123.3%" height="123.3%" filterUnits="objectBoundingBox" id="filter-2">
            <feOffset dx="0" dy="2" in="SourceAlpha" result="shadowOffsetOuter1"></feOffset>
            <feGaussianBlur stdDeviation="2" in="shadowOffsetOuter1" result="shadowBlurOuter1"></feGaussianBlur>
            <feColorMatrix values="0 0 0 0 0   0 0 0 0 0   0 0 0 0 0  0 0 0 0.5 0" type="matrix" in="shadowBlurOuter1"></feColorMatrix>
        </filter>
    </defs>
    <g id="Page-1" stroke="none" stroke-width="1" fill="none" fill-rule="evenodd">
        <g id="Tablet-Copy" transform="translate(-353.000000, -655.000000)">
            <g id="muddy-surface" transform="translate(357.000000, 657.000000)">
                <g id="Rectangle-Copy-15">
                    <use fill="black" fill-opacity="1" filter="url(#filter-2)" xlink:href="#path-1"></use>
                    <use fill="#F59316" fill-rule="evenodd" xlink:href="#path-1"></use>
                </g>
                <g id="terrain-(1)-copy-2" transform="translate(30.000000, 30.000000) scale(-1, 1) translate(-30.000000, -30.000000) translate(15.000000, 15.000000)" fill="#FFFFFF" fill-rule="nonzero">
                    <path d="M14.4998066,13.9993703 C16.9414949,14.0421342 18.9542567,11.9014448 19,9.21303671 C19,7.46135894 15.5830617,1.41936024 14.8984586,0.225803163 C14.8064748,0.0840678802 14.6579747,0 14.4997514,0 C14.3415281,0 14.1930833,0.0841287108 14.1010441,0.225803163 C13.6816198,0.95729105 10,7.42437393 10,9.21303671 C10.0457986,11.9012623 12.0582841,14.0419517 14.4998066,13.9993703 Z M14.4998066,1.48371901 C16.0176786,4.19451274 18.0571792,8.18499968 18.0571792,9.21303671 C18.0118226,11.3282381 16.4209712,13.0044251 14.4998066,12.9612354 C12.5788078,13.0042426 10.9882327,11.3281164 10.9429313,9.21303671 C10.9429313,8.18499968 12.9819347,4.19451274 14.4998066,1.48371901 Z" id="Shape"></path>
                    <path d="M29.3140512,12.8512825 C28.8112972,12.3097786 28.1157037,12.0023538 27.3877067,12.0000017 L19.7413935,12.0000017 C19.3478626,12.0040413 18.9710315,12.1638106 18.689126,12.4462243 C16.4610706,14.5939187 12.9947638,14.5940995 10.766474,12.4467667 C10.4845099,12.1641119 10.1074444,12.0041016 9.71367911,12.0000017 L2.49951169,12.0000017 C1.16475272,11.9984365 0.0647880424,13.0768037 0.00232467437,14.4481315 C-0.0269147446,15.1334338 0.220712078,15.8005955 0.686433325,16.2915952 C1.16311203,16.8010971 1.81259043,17.1017719 2.49951169,17.1308811 L2.49951169,27.428556 C2.50115237,28.8480376 3.6195162,29.998304 4.9996285,29.9999915 L25.0003872,29.9999915 C26.3804995,29.998304 27.4988633,28.8480376 27.500504,27.428556 L27.500504,17.1428141 C28.8353802,17.1443811 29.9353449,16.0658933 29.997691,14.694445 C30.0268133,14.0093837 29.7794208,13.3423425 29.3140512,12.8512825 Z M26.5005042,27.4284957 C26.4995701,28.2801967 25.8284663,28.970441 25.0003872,28.971345 L4.9996285,28.971345 C4.1715494,28.970441 3.50044907,28.2801967 3.49957013,27.4284957 L3.49957013,25.7099063 C5.10099963,25.1112085 6.79618278,24.8221051 8.49974516,24.8570603 C9.69861993,24.8548906 10.8930414,25.007247 12.0550593,25.3105736 C13.6733644,25.7151496 15.3347963,25.9083674 17.0000954,25.8856465 C18.4495854,25.888238 19.8900516,25.6519892 21.2668826,25.1858197 C22.9598391,24.6342511 24.7246343,24.3515963 26.5005042,24.3474379 L26.5005042,27.4284957 L26.5005042,27.4284957 Z M26.5005628,23.3190927 C24.6307635,23.3249989 22.7726833,23.6211537 20.9890202,24.197673 C19.7026615,24.6372645 18.3555974,24.8599531 17.0000954,24.8571205 C15.4083343,24.8811673 13.8200889,24.6962664 12.2738569,24.3069381 C11.0402932,23.9855915 9.77233374,23.824858 8.49980376,23.8285343 C6.80239396,23.8043067 5.11277743,24.0694237 3.49962873,24.6130972 L3.49962873,21.5956819 C5.10105823,20.9969841 6.79624138,20.7078806 8.49980376,20.7428358 C9.69867853,20.7406662 10.8931,20.8930226 12.0551179,21.1963491 C13.673423,21.6009252 15.3348549,21.7941429 17.000154,21.7714221 C18.449644,21.7740136 19.8901102,21.5377648 21.2669412,21.0715953 C22.9598977,20.5200267 24.7246929,20.2373719 26.5005628,20.2332134 L26.5005628,23.3190927 L26.5005628,23.3190927 Z M26.5005042,19.204808 C24.6307635,19.2107142 22.7726833,19.5068689 20.9890202,20.0833883 C19.7026615,20.5229798 18.3555974,20.7456684 17.0000954,20.7428358 C15.4083343,20.7668826 13.8200889,20.5819817 12.2738569,20.1926534 C11.0402932,19.8713068 9.77233374,19.7105733 8.49980376,19.7142496 C6.80239396,19.690022 5.11277743,19.955139 3.49962873,20.4988125 L3.49962873,17.1428744 L26.5005042,17.1428744 L26.5005042,19.204808 L26.5005042,19.204808 Z M28.9986287,14.6452064 L28.9986287,14.6454474 C28.9617718,15.4684611 28.3015704,16.1157948 27.500504,16.1142307 L2.61230904,16.1142307 C2.15783823,16.1123596 1.72375884,15.9201663 1.4100943,15.5818846 C1.1340484,15.2939263 0.986152018,14.9014037 1.00138699,14.4973701 C1.01972754,14.1156354 1.17424527,13.7542109 1.43546638,13.482344 C1.71789924,13.1923968 2.10041413,13.0292526 2.49945309,13.0285897 L9.71362052,13.0285897 C9.85079382,13.03317 9.9810528,13.0918103 10.0773847,13.1923366 C12.6917637,15.7170044 16.7637777,15.7168839 19.3780395,13.1920955 C19.4742542,13.0916898 19.6043374,13.03317 19.7413349,13.0286499 L27.3876481,13.0286499 C27.8421189,13.0305182 28.2761983,13.2227114 28.5898628,13.5609932 C28.8659087,13.8487707 29.0138637,14.241233 28.9986287,14.6452064 Z" id="Shape"></path>
                </g>
            </g>
        </g>
    </g>
</svg>