<?xml version="1.0" encoding="UTF-8"?>
<svg width="34px" height="28px" viewBox="0 0 34 28" version="1.1" xmlns="http://www.w3.org/2000/svg" xmlns:xlink="http://www.w3.org/1999/xlink">
    <!-- Generator: Sketch 58 (84663) - https://sketch.com -->
    <title>noun_Volume_2387836</title>
    <desc>Created with Sketch.</desc>
    <g id="Tablet-alert" stroke="none" stroke-width="1" fill="none" fill-rule="evenodd">
        <g id="Artboard" transform="translate(-29.000000, -35.000000)">
            <g id="noun_Volume_2387836" transform="translate(29.000000, 35.000000)" fill="#87ecfe" fill-rule="nonzero">
                <path d="M19.248,0.216 C18.696,-0.072 18.12,-0.024 17.64,0.336 L6.936,8.16 L2.448,8.16 C1.2,8.16 0.192,9.168 0.192,10.416 L0.192,16.92 C0.192,18.168 1.2,19.176 2.448,19.176 L6.96,19.176 L17.64,27.024 C17.904,27.216 18.216,27.312 18.528,27.312 C18.768,27.312 19.008,27.24 19.248,27.12 C20.112,26.688 20.856,25.392 20.856,24.336 L20.856,2.976 C20.856,1.92 20.136,0.648 19.248,0.216 Z M19.512,24.36 C19.512,24.936 19.08,25.728 18.648,25.944 C18.528,26.016 18.48,25.968 18.456,25.944 L7.584,17.976 C7.464,17.88 7.32,17.856 7.176,17.856 L2.448,17.856 C1.944,17.856 1.536,17.448 1.536,16.944 L1.536,10.44 C1.536,9.936 1.944,9.528 2.448,9.528 L7.176,9.528 C7.32,9.528 7.464,9.48 7.584,9.408 L18.456,1.44 L18.456,1.44 C18.504,1.416 18.528,1.392 18.648,1.44 C19.08,1.656 19.512,2.472 19.512,3.048 L19.512,24.36 Z" id="Shape"></path>
                <path d="M27.3,16.6818182 L32.7,10.3181818" id="Line" stroke="#87ecfe" stroke-width="1.388625" stroke-linecap="round" transform="translate(30.000000, 13.500000) rotate(3.012788) translate(-30.000000, -13.500000) "></path>
                <path d="M27.3,16.6818182 L32.7,10.3181818" id="Line" stroke="#87ecfe" stroke-width="1.388625" stroke-linecap="round" transform="translate(30.000000, 13.500000) rotate(93.012788) translate(-30.000000, -13.500000) "></path>
            </g>
        </g>
    </g>
</svg>