<?xml version="1.0" encoding="UTF-8"?>
<svg width="71px" height="70px" viewBox="0 0 71 70" version="1.1" xmlns="http://www.w3.org/2000/svg" xmlns:xlink="http://www.w3.org/1999/xlink">
    <title>narrow road copy 5</title>
    <defs>
        <rect id="path-1" x="-2.27373675e-13" y="0" width="70.0437774" height="70" rx="35"></rect>
        <filter x="-10.0%" y="-7.1%" width="120.0%" height="120.0%" filterUnits="objectBoundingBox" id="filter-2">
            <feOffset dx="0" dy="2" in="SourceAlpha" result="shadowOffsetOuter1"></feOffset>
            <feGaussianBlur stdDeviation="2" in="shadowOffsetOuter1" result="shadowBlurOuter1"></feGaussianBlur>
            <feComposite in="shadowBlurOuter1" in2="SourceAlpha" operator="out" result="shadowBlurOuter1"></feComposite>
            <feColorMatrix values="0 0 0 0 0   0 0 0 0 0   0 0 0 0 0  0 0 0 0.5 0" type="matrix" in="shadowBlurOuter1"></feColorMatrix>
        </filter>
    </defs>
    <g id="narrow-road-copy-5" stroke="none" stroke-width="1" fill="none" fill-rule="evenodd">
        <g id="Group-2">
            <g id="Rectangle">
                <use fill="black" fill-opacity="1" filter="url(#filter-2)" xlink:href="#path-1"></use>
                <rect stroke="#0F2365" stroke-width="5" stroke-linejoin="square" fill="#F59316" fill-rule="evenodd" x="2.5" y="2.5" width="65.0437774" height="65" rx="32.5"></rect>
            </g>
            <g id="narrow-road-copy" transform="translate(17.000000, 16.000000)" fill="#FFFFFF" fill-rule="nonzero">
                <path d="M35.436133,28.1675749 C35.390226,28.0870405 36.3293639,29.7329261 20.5253466,2.03593496 C19.5272639,0.408971971 17.0319541,0.40690533 16.0325676,2.03593496 L16.0246763,2.04885147 L1.12178118,28.1675749 C0.139069404,29.7940858 1.38638118,31.8149376 3.37691977,31.8149376 L33.1809258,31.8149376 C35.1694744,31.8149376 36.4198055,29.7956358 35.436133,28.1675749 L35.436133,28.1675749 Z M33.1809258,29.8773972 L3.37698839,29.8773972 C2.96512916,29.8773972 2.70711671,29.4581921 2.91345805,29.1217817 L2.92134938,29.1088652 L17.8215683,2.99492089 C18.0287331,2.67194367 18.5293184,2.67187909 18.7364145,2.99492089 L33.6290852,29.0957549 L33.6445248,29.1217817 C33.8511406,29.4587087 33.5920988,29.8773972 33.1809258,29.8773972 Z" id="Shape"></path>
                <polygon id="Path" points="15.1790216 19.0283509 12.7790216 21.8283509 12.7790216 27.8149376 14.3790216 27.8149376 14.3790216 22.6015243 16.7790216 19.8015243 16.7790216 13.8149376 15.1790216 13.8149376"></polygon>
                <polygon id="Path" points="22.3790216 13.8149376 20.7790216 13.8149376 20.7790216 19.8015243 23.1790216 22.6015243 23.1790216 27.8149376 24.7790216 27.8149376 24.7790216 21.8283509 22.3790216 19.0283509"></polygon>
            </g>
        </g>
    </g>
</svg>