<?xml version="1.0" encoding="UTF-8"?>
<svg width="69px" height="70px" viewBox="0 0 69 70" version="1.1" xmlns="http://www.w3.org/2000/svg" xmlns:xlink="http://www.w3.org/1999/xlink">
    <title>narrow road</title>
    <defs>
        <rect id="path-1" x="0" y="-2.13162821e-14" width="60" height="60.961875" rx="30"></rect>
        <filter x="-11.7%" y="-8.2%" width="123.3%" height="123.0%" filterUnits="objectBoundingBox" id="filter-2">
            <feOffset dx="0" dy="2" in="SourceAlpha" result="shadowOffsetOuter1"></feOffset>
            <feGaussianBlur stdDeviation="2" in="shadowOffsetOuter1" result="shadowBlurOuter1"></feGaussianBlur>
            <feColorMatrix values="0 0 0 0 0   0 0 0 0 0   0 0 0 0 0  0 0 0 0.5 0" type="matrix" in="shadowBlurOuter1"></feColorMatrix>
        </filter>
    </defs>
    <g id="Page-1" stroke="none" stroke-width="1" fill="none" fill-rule="evenodd">
        <g id="Tablet-Copy" transform="translate(-433.000000, -656.000000)">
            <g id="narrow-road" transform="translate(437.215589, 658.185062)">
                <g id="Rectangle-Copy-11">
                    <use fill="black" fill-opacity="1" filter="url(#filter-2)" xlink:href="#path-1"></use>
                    <use fill="#F59316" fill-rule="evenodd" xlink:href="#path-1"></use>
                </g>
                <g id="narrow-road-copy-2" transform="translate(11.808580, 11.000000)" fill="#FFFFFF" fill-rule="nonzero">
                    <path d="M34.8552128,28.1675749 C34.8100584,28.0870405 35.7338005,29.7329261 20.1888655,2.03593496 C19.2071448,0.408971971 16.7527417,0.40690533 15.7697386,2.03593496 L15.7619766,2.04885147 L1.10339132,28.1675749 C0.136789578,29.7940858 1.36365362,31.8149376 3.32156043,31.8149376 L32.6369762,31.8149376 C34.5929256,31.8149376 35.8227595,29.7956358 34.8552128,28.1675749 L34.8552128,28.1675749 Z M32.6369762,29.8773972 L3.32162792,29.8773972 C2.91652048,29.8773972 2.66273775,29.4581921 2.86569644,29.1217817 L2.87345841,29.1088652 L17.5294114,2.99492089 C17.73318,2.67194367 18.2255591,2.67187909 18.4292602,2.99492089 L33.0777887,29.0957549 L33.0929752,29.1217817 C33.2962038,29.4587087 33.0414087,29.8773972 32.6369762,29.8773972 Z" id="Shape"></path>
                    <polygon id="Path" points="14.9301852 19.0283509 12.5695294 21.8283509 12.5695294 27.8149376 14.1432999 27.8149376 14.1432999 22.6015243 16.5039557 19.8015243 16.5039557 13.8149376 14.9301852 13.8149376"></polygon>
                    <polygon id="Path" points="22.0121524 13.8149376 20.4383819 13.8149376 20.4383819 19.8015243 22.7990376 22.6015243 22.7990376 27.8149376 24.3728081 27.8149376 24.3728081 21.8283509 22.0121524 19.0283509"></polygon>
                </g>
            </g>
        </g>
    </g>
</svg>