<?xml version="1.0" encoding="UTF-8"?>
<svg width="69px" height="69px" viewBox="0 0 69 69" version="1.1" xmlns="http://www.w3.org/2000/svg" xmlns:xlink="http://www.w3.org/1999/xlink">
    <title>obstacle</title>
    <defs>
        <rect id="path-1" x="0" y="0" width="60" height="60" rx="30"></rect>
        <filter x="-11.7%" y="-8.3%" width="123.3%" height="123.3%" filterUnits="objectBoundingBox" id="filter-2">
            <feOffset dx="0" dy="2" in="SourceAlpha" result="shadowOffsetOuter1"></feOffset>
            <feGaussianBlur stdDeviation="2" in="shadowOffsetOuter1" result="shadowBlurOuter1"></feGaussianBlur>
            <feColorMatrix values="0 0 0 0 0   0 0 0 0 0   0 0 0 0 0  0 0 0 0.5 0" type="matrix" in="shadowBlurOuter1"></feColorMatrix>
        </filter>
    </defs>
    <g id="Page-1" stroke="none" stroke-width="1" fill="none" fill-rule="evenodd">
        <g id="Tablet-Copy" transform="translate(-196.000000, -358.000000)">
            <g id="obstacle" transform="translate(200.215589, 360.185062)">
                <g id="Rectangle-Copy-4">
                    <use fill="black" fill-opacity="1" filter="url(#filter-2)" xlink:href="#path-1"></use>
                    <use fill="#FF6A00" fill-rule="evenodd" xlink:href="#path-1"></use>
                </g>
                <g id="מכשול-בדרך-copy-2" transform="translate(13.784411, 13.814938)" fill="#FFFFFF" fill-rule="nonzero">
                    <path d="M8.25,14.85 L8.25,18.15 L24.75,18.15 L24.75,14.85 L8.25,14.85 Z M16.5,0 C7.392,0 0,7.392 0,16.5 C0,25.608 7.392,33 16.5,33 C25.608,33 33,25.608 33,16.5 C33,7.392 25.608,0 16.5,0 Z M16.5,29.7 C9.2235,29.7 3.3,23.7765 3.3,16.5 C3.3,9.2235 9.2235,3.3 16.5,3.3 C23.7765,3.3 29.7,9.2235 29.7,16.5 C29.7,23.7765 23.7765,29.7 16.5,29.7 Z" id="Shape"></path>
                </g>
            </g>
        </g>
    </g>
</svg>