<?xml version="1.0" encoding="UTF-8"?>
<svg width="68px" height="68px" viewBox="0 0 68 68" version="1.1" xmlns="http://www.w3.org/2000/svg" xmlns:xlink="http://www.w3.org/1999/xlink">
    <title>person</title>
    <defs>
        <rect id="path-1" x="6.66133815e-13" y="0" width="58.5365854" height="60" rx="29.2682927"></rect>
        <filter x="-12.0%" y="-8.3%" width="123.9%" height="123.3%" filterUnits="objectBoundingBox" id="filter-2">
            <feOffset dx="0" dy="2" in="SourceAlpha" result="shadowOffsetOuter1"></feOffset>
            <feGaussianBlur stdDeviation="2" in="shadowOffsetOuter1" result="shadowBlurOuter1"></feGaussianBlur>
            <feColorMatrix values="0 0 0 0 0   0 0 0 0 0   0 0 0 0 0  0 0 0 0.5 0" type="matrix" in="shadowBlurOuter1"></feColorMatrix>
        </filter>
    </defs>
    <g id="Page-1" stroke="none" stroke-width="1" fill="none" fill-rule="evenodd">
        <g id="Tablet-Copy" transform="translate(-19.000000, -202.000000)">
            <g id="person" transform="translate(23.500000, 204.000000)">
                <g id="Group">
                    <g id="Rectangle">
                        <use fill="black" fill-opacity="1" filter="url(#filter-2)" xlink:href="#path-1"></use>
                        <use fill="#D5001A" fill-rule="evenodd" xlink:href="#path-1"></use>
                    </g>
                    <path d="M39.8551564,32.2863364 L37.1731755,27.3500041 C37.0978032,27.2107404 36.9885975,27.0936179 36.8560617,27.009901 L32.9683194,24.5540143 C32.6871589,24.3766829 32.3339852,24.3686598 32.0453758,24.5330477 C31.7567665,24.6974356 31.5779669,25.0084633 31.5781217,25.3458517 L31.5781217,31.5153368 L26.195206,37.2606233 C26.1145975,37.346785 26.0507705,37.4478064 26.0071248,37.5583065 L22.8505667,45.6552905 L21.4202741,45.2794655 L23.7793092,36.7426544 L27.7056883,32.5326693 C27.8671756,32.3600831 27.9572584,32.1305769 27.9571924,31.8919061 L27.9571924,26.1667132 C27.9568945,25.787898 27.7317921,25.4470382 27.3879149,25.3046888 C27.0440378,25.1623393 26.649961,25.2468873 26.3913063,25.518508 L22.8075558,29.2886662 L17.1155454,28.7491153 L17.5930386,27.1587426 L21.6695911,27.5204278 C21.9584304,27.5475036 22.2424149,27.4312074 22.4328513,27.2078604 L27.4578293,21.3717805 L31.4673141,21.3717805 L38.0282893,25.2066848 L41.3583487,31.4989642 L39.8551564,32.2863364 Z" id="Path" fill-rule="nonzero"></path>
                </g>
                <g id="walker-(1)-copy" transform="translate(15.784411, 11.814938)" fill="#FFFFFF" fill-rule="nonzero">
                    <path d="M27.8933607,20.1636003 L24.0738244,12.9873877 C23.9940724,12.8384327 23.8750573,12.714842 23.7300447,12.6303911 L16.8737872,8.65408729 C18.5351384,7.44316917 19.2356506,5.28466261 18.6077504,3.31118147 C17.9798502,1.33770034 16.1669538,0 14.1203262,0 C12.0736986,0 10.2608023,1.33770034 9.63290208,3.31118147 C9.00500187,5.28466261 9.70551411,7.44316917 11.3668653,8.65408729 C11.2868018,8.70055206 11.2143224,8.75929619 11.1520029,8.82823199 L6.2488442,14.4850321 L1.97308352,14.1091698 C1.55207987,14.0687131 1.16178267,14.3360758 1.04201336,14.7469748 L0.0393224115,18.0658824 C-0.0396583325,18.3267844 0.00160937282,18.6098532 0.151665821,18.8364828 C0.301722269,19.0631125 0.544590088,19.2091724 0.812826856,19.234103 L7.92763533,19.9023833 C8.19717691,19.9265945 8.4632167,19.8269857 8.65243765,19.6310078 L10.9342758,17.2495791 L10.9342758,20.231807 L7.17060367,24.2364093 C7.06949882,24.3429719 6.99572445,24.4730232 6.95574132,24.6151741 L4.32940725,34.0480116 C4.2639664,34.2830747 4.29486296,34.5349422 4.41510622,34.746626 C4.53534948,34.9583097 4.73477656,35.1119184 4.96826462,35.1726961 L8.02360718,35.9708593 C8.46027863,36.0856405 8.9128769,35.8524816 9.0785813,35.4273827 L12.4046504,26.9566946 L13.5190698,25.7768643 L15.5960725,30.5310144 C15.6540883,30.6636056 15.742478,30.7802684 15.8539073,30.8713222 L21.822067,35.7277823 C22.1702094,36.0101687 22.6702126,35.9906975 22.9959316,35.6820693 L25.4109844,33.3869874 C25.5924369,33.214135 25.6946824,32.9725621 25.6931877,32.7202326 C25.6916931,32.4679032 25.5865932,32.2275909 25.4031061,32.0569573 L20.2464098,27.2679782 L18.0705705,20.4545671 L18.0705705,15.8419095 L20.3251927,17.2539327 L23.2680906,22.6291989 C23.5036636,23.0565357 24.0315976,23.2171541 24.4605766,22.9920004 L27.5159192,21.395674 C27.7285965,21.2840018 27.888329,21.0907602 27.9595032,20.8590336 C28.0306774,20.6273069 28.0073756,20.3763622 27.8947931,20.1621491 L27.8933607,20.1636003 Z M14.1185357,1.8232616 C15.30165,1.8229682 16.3684283,2.54478211 16.8213872,3.65209141 C17.2743462,4.75940071 17.0242731,6.03411462 16.1877874,6.88178073 C15.3513017,7.72944683 14.093154,7.98311255 13.0000712,7.52448293 C11.9069884,7.06585331 11.1942592,5.98525805 11.1942592,4.78662389 C11.1958377,3.15095026 12.5040411,1.82526149 14.1185357,1.8232616 Z M18.8612639,28.4398269 L23.4808043,32.7295912 L22.3348718,33.8179955 L17.1430813,29.5935355 L15.1448615,25.0171581 L16.8687737,22.5827604 L18.6148884,28.0501781 C18.6625862,28.1993587 18.7474423,28.3335607 18.8612639,28.4398269 L18.8612639,28.4398269 Z M24.4111583,20.979178 L21.7762297,16.166254 C21.7021797,16.0304719 21.5948899,15.9162774 21.4646793,15.8346535 L17.645143,13.440164 C17.3689151,13.2672658 17.0219374,13.2594433 16.7383914,13.4197215 C16.4548454,13.5799997 16.2791827,13.8832517 16.2793347,14.2122054 L16.2793347,20.2274534 L10.9908562,25.8291077 C10.9116619,25.9131153 10.8489546,26.0116112 10.8060746,26.1193488 L7.7048947,34.0139083 L6.29969496,33.6474788 L8.61734346,25.3240881 L12.4748388,21.2193525 C12.6334929,21.051081 12.7219954,20.8273124 12.7219305,20.5946084 L12.7219305,15.0125454 C12.7216378,14.6432006 12.5004846,14.3108622 12.1626403,14.1720715 C11.8247961,14.0332809 11.437633,14.1157151 11.1835161,14.3805453 L7.66263844,18.0564495 L2.07048779,17.5303874 L2.53960391,15.9797741 L6.54463803,16.3324171 C6.82840997,16.3588161 7.10741228,16.2454272 7.29450762,16.0276639 L12.2313281,10.337486 L16.1704711,10.337486 L22.6163415,14.0765177 L25.8879788,20.2114901 L24.4111583,20.979178 Z" id="Shape"></path>
                </g>
            </g>
        </g>
    </g>
</svg>