<?xml version="1.0" encoding="UTF-8"?>
<svg width="68px" height="68px" viewBox="0 0 68 68" version="1.1" xmlns="http://www.w3.org/2000/svg" xmlns:xlink="http://www.w3.org/1999/xlink">
    <title>person</title>
    <defs>
        <rect id="path-1" x="6.77424218e-13" y="0" width="59.5287309" height="60" rx="29.2682927"></rect>
        <filter x="-11.8%" y="-8.3%" width="123.5%" height="123.3%" filterUnits="objectBoundingBox" id="filter-2">
            <feOffset dx="0" dy="2" in="SourceAlpha" result="shadowOffsetOuter1"></feOffset>
            <feGaussianBlur stdDeviation="2" in="shadowOffsetOuter1" result="shadowBlurOuter1"></feGaussianBlur>
            <feColorMatrix values="0 0 0 0 0   0 0 0 0 0   0 0 0 0 0  0 0 0 0.5 0" type="matrix" in="shadowBlurOuter1"></feColorMatrix>
        </filter>
    </defs>
    <g id="Page-1" stroke="none" stroke-width="1" fill="none" fill-rule="evenodd">
        <g id="Tablet-Copy" transform="translate(-681.000000, -214.000000)">
            <g id="person" transform="translate(685.000000, 216.000000)">
                <g id="Group-Copy-2">
                    <g id="Rectangle">
                        <use fill="black" fill-opacity="1" filter="url(#filter-2)" xlink:href="#path-1"></use>
                        <use fill="#F7BC19" fill-rule="evenodd" xlink:href="#path-1"></use>
                    </g>
                    <path d="M40.5306675,32.2863364 L37.8032294,27.3500041 C37.7265795,27.2107404 37.6155229,27.0936179 37.4807408,27.009901 L33.5271045,24.5540143 C33.2411785,24.3766829 32.8820188,24.3686598 32.5885178,24.5330477 C32.2950167,24.6974356 32.1131867,25.0084633 32.1133441,25.3458517 L32.1133441,31.5153368 L26.6391926,37.2606233 C26.5572178,37.346785 26.492309,37.4478064 26.4479235,37.5583065 L23.2378644,45.6552905 L21.7833296,45.2794655 L24.1823483,36.7426544 L28.1752763,32.5326693 C28.3395006,32.3600831 28.4311103,32.1305769 28.4310431,31.8919061 L28.4310431,26.1667132 C28.4307402,25.787898 28.2018225,25.4470382 27.8521169,25.3046888 C27.5024113,25.1623393 27.1016552,25.2468873 26.8386166,25.518508 L23.1941246,29.2886662 L17.4056393,28.7491153 L17.8912256,27.1587426 L22.0368724,27.5204278 C22.3306072,27.5475036 22.619405,27.4312074 22.8130691,27.2078604 L27.9232162,21.3717805 L32.0006584,21.3717805 L38.6728366,25.2066848 L42.0593377,31.4989642 L40.5306675,32.2863364 Z" id="Path" fill-rule="nonzero"></path>
                </g>
                <g id="walker-(1)-copy-3" transform="translate(16.051944, 11.814938)" fill="#FFFFFF" fill-rule="nonzero">
                    <path d="M28.3661295,20.1636003 L24.4818553,12.9873877 C24.4007516,12.8384327 24.2797193,12.714842 24.1322488,12.6303911 L17.1597836,8.65408729 C18.8492933,7.44316917 19.5616786,5.28466261 18.923136,3.31118147 C18.2845934,1.33770034 16.44097,0 14.3596538,0 C12.2783376,0 10.4347142,1.33770034 9.79617161,3.31118147 C9.15762902,5.28466261 9.87001435,7.44316917 11.559524,8.65408729 C11.4781035,8.70055206 11.4043956,8.75929619 11.3410199,8.82823199 L6.35475682,14.4850321 L2.00652562,14.1091698 C1.57838631,14.0687131 1.1814739,14.3360758 1.0596746,14.7469748 L0.039988893,18.0658824 C-0.0403305076,18.3267844 0.00163665033,18.6098532 0.154236428,18.8364828 C0.306836206,19.0631125 0.553820428,19.2091724 0.826603583,19.234103 L8.06200203,19.9023833 C8.33611211,19.9265945 8.60666105,19.8269857 8.79908913,19.6310078 L11.1196025,17.2495791 L11.1196025,20.231807 L7.29213932,24.2364093 C7.18932084,24.3429719 7.11429605,24.4730232 7.07363524,24.6151741 L4.40278703,34.0480116 C4.33623701,34.2830747 4.36765725,34.5349422 4.48993853,34.746626 C4.61221981,34.9583097 4.81502701,35.1119184 5.0524725,35.1726961 L8.15960052,35.9708593 C8.60367318,36.0856405 9.06394261,35.8524816 9.23245556,35.4273827 L12.6148987,26.9566946 L13.7482066,25.7768643 L15.8604127,30.5310144 C15.9194118,30.6636056 16.0092997,30.7802684 16.1226176,30.8713222 L22.1919326,35.7277823 C22.5459756,36.0101687 23.0544535,35.9906975 23.3856932,35.6820693 L25.8416791,33.3869874 C26.026207,33.214135 26.1301855,32.9725621 26.1286655,32.7202326 C26.1271455,32.4679032 26.0202643,32.2275909 25.8336672,32.0569573 L20.5895693,27.2679782 L18.3768513,20.4545671 L18.3768513,15.8419095 L20.6696875,17.2539327 L23.662465,22.6291989 C23.9020308,23.0565357 24.4389128,23.2171541 24.8751627,22.9920004 L27.9822907,21.395674 C28.1985727,21.2840018 28.3610125,21.0907602 28.4333931,20.8590336 C28.5057736,20.6273069 28.4820769,20.3763622 28.3675862,20.1621491 L28.3661295,20.1636003 Z M14.3578329,1.8232616 C15.561,1.8229682 16.6458593,2.54478211 17.1064955,3.65209141 C17.5671317,4.75940071 17.3128201,6.03411462 16.4621566,6.88178073 C15.6114932,7.72944683 14.332021,7.98311255 13.2204113,7.52448293 C12.1088017,7.06585331 11.3839924,5.98525805 11.3839924,4.78662389 C11.3855977,3.15095026 12.715974,1.82526149 14.3578329,1.8232616 Z M19.1809463,28.4398269 L23.8787841,32.7295912 L22.713429,33.8179955 L17.433642,29.5935355 L15.4015541,25.0171581 L17.1546852,22.5827604 L18.930395,28.0501781 C18.9789012,28.1993587 19.0651956,28.3335607 19.1809463,28.4398269 L19.1809463,28.4398269 Z M24.8249067,20.979178 L22.1453184,16.166254 C22.0700132,16.0304719 21.960905,15.9162774 21.8284875,15.8346535 L17.9442132,13.440164 C17.6633035,13.2672658 17.3104448,13.2594433 17.0220929,13.4197215 C16.7337411,13.5799997 16.555101,13.8832517 16.5552556,14.2122054 L16.5552556,20.2274534 L11.1771419,25.8291077 C11.0966053,25.9131153 11.0328352,26.0116112 10.9892284,26.1193488 L7.83548614,34.0139083 L6.40646945,33.6474788 L8.76340013,25.3240881 L12.6862767,21.2193525 C12.8476199,21.051081 12.9376224,20.8273124 12.9375564,20.5946084 L12.9375564,15.0125454 C12.9372588,14.6432006 12.7123572,14.3108622 12.3687868,14.1720715 C12.0252164,14.0332809 11.6314911,14.1157151 11.3730672,14.3805453 L7.79251367,18.0564495 L2.1055808,17.5303874 L2.58264804,15.9797741 L6.6555641,16.3324171 C6.94414573,16.3588161 7.22787689,16.2454272 7.41814334,16.0276639 L12.4386388,10.337486 L16.4445469,10.337486 L22.9996693,14.0765177 L26.3267581,20.2114901 L24.8249067,20.979178 Z" id="Shape"></path>
                </g>
            </g>
        </g>
    </g>
</svg>