<?xml version="1.0" encoding="UTF-8"?>
<svg width="70px" height="70px" viewBox="0 0 70 70" version="1.1" xmlns="http://www.w3.org/2000/svg" xmlns:xlink="http://www.w3.org/1999/xlink">
    <title>person copy</title>
    <defs>
        <rect id="path-1" x="7.90328255e-13" y="0" width="69.450186" height="70" rx="34.725093"></rect>
        <filter x="-10.1%" y="-7.1%" width="120.2%" height="120.0%" filterUnits="objectBoundingBox" id="filter-2">
            <feOffset dx="0" dy="2" in="SourceAlpha" result="shadowOffsetOuter1"></feOffset>
            <feGaussianBlur stdDeviation="2" in="shadowOffsetOuter1" result="shadowBlurOuter1"></feGaussianBlur>
            <feComposite in="shadowBlurOuter1" in2="SourceAlpha" operator="out" result="shadowBlurOuter1"></feComposite>
            <feColorMatrix values="0 0 0 0 0   0 0 0 0 0   0 0 0 0 0  0 0 0 0.5 0" type="matrix" in="shadowBlurOuter1"></feColorMatrix>
        </filter>
    </defs>
    <g id="person-copy" stroke="none" stroke-width="1" fill="none" fill-rule="evenodd">
        <g id="person">
            <g id="Group">
                <g id="Rectangle">
                    <use fill="black" fill-opacity="1" filter="url(#filter-2)" xlink:href="#path-1"></use>
                    <rect stroke="#0F2365" stroke-width="5" stroke-linejoin="square" fill="#FF6A00" fill-rule="evenodd" x="2.5" y="2.5" width="64.450186" height="65" rx="32.225093"></rect>
                </g>
                <path d="M47.2857788,37.6673924 L44.1037676,31.9083381 C44.0143427,31.7458638 43.8847767,31.6092208 43.7275309,31.5115512 L39.1149553,28.64635 C38.781375,28.4394634 38.3623553,28.4301031 38.0199374,28.621889 C37.6775195,28.8136748 37.4653845,29.1765405 37.4655681,29.5701603 L37.4655681,36.7678929 L31.079058,43.4707271 C30.9834208,43.5712491 30.9076938,43.6891074 30.8559107,43.8180243 L27.1108418,53.2645056 L25.4138845,52.826043 L28.2127397,42.8664302 L32.8711556,37.9547808 C33.0627507,37.7534303 33.1696286,37.485673 33.1695503,37.2072238 L33.1695503,30.5278321 C33.1691969,30.085881 32.9021262,29.6882112 32.4941364,29.5221369 C32.0861465,29.3560626 31.6185978,29.4547018 31.3117193,29.7715927 L27.059812,34.1701106 L20.3065792,33.5406345 L20.8730966,31.6851997 L25.7096844,32.1071657 C26.0523751,32.1387543 26.3893058,32.0030753 26.6152473,31.7425038 L32.5770856,24.9337439 L37.3341015,24.9337439 L45.1183094,29.4077989 L49.0692273,36.7487916 L47.2857788,37.6673924 Z" id="Path" fill-rule="nonzero"></path>
            </g>
            <g id="walker-(1)-copy" transform="translate(18.727268, 13.784094)" fill="#FFFFFF" fill-rule="nonzero">
                <path d="M33.0938178,23.5242004 L28.5621646,15.1519524 C28.4675436,14.9781715 28.3263392,14.8339823 28.1542903,14.7354563 L20.0197475,10.0964352 C21.9908421,8.68369736 22.8219584,6.16543971 22.076992,3.86304505 C21.3320256,1.56065039 19.1811317,0 16.7529294,0 C14.3247272,0 12.1738332,1.56065039 11.4288669,3.86304505 C10.6839005,6.16543971 11.5150167,8.68369736 13.4861114,10.0964352 C13.3911207,10.1506441 13.3051282,10.2191789 13.2311899,10.299604 L7.41388295,16.8992041 L2.34094655,16.4606981 C1.8414507,16.4134986 1.37838622,16.7254218 1.23628704,17.2048039 L0.0466537085,21.0768628 C-0.0470522589,21.3812485 0.00190942538,21.7114954 0.179942499,21.9758966 C0.357975573,22.2402979 0.646123833,22.4107012 0.964370846,22.4397869 L9.40566904,23.2194472 C9.72546413,23.2476936 10.0411046,23.1314834 10.265604,22.9028424 L12.9728695,20.124509 L12.9728695,23.6037748 L8.50749588,28.2758109 C8.38754098,28.4001339 8.30001206,28.5518604 8.25257445,28.7177031 L5.13658487,39.7226802 C5.05894318,39.9969205 5.09560013,40.2907659 5.23826162,40.5377303 C5.38092311,40.7846947 5.61753151,40.9639048 5.89455125,41.0348121 L9.51953394,41.9660025 C10.0376187,42.0999139 10.5745997,41.8278952 10.7711982,41.3319465 L14.7173818,31.449477 L16.0395743,30.0730083 L18.5038148,35.6195168 C18.5726471,35.7742066 18.6775163,35.9103131 18.8097205,36.0165425 L25.890588,41.6824127 C26.3036382,42.0118635 26.8968624,41.989147 27.2833087,41.6290809 L30.1486256,38.9514853 C30.3639082,38.7498241 30.4852164,38.4679891 30.4834431,38.1736047 C30.4816698,37.8792204 30.356975,37.5988561 30.1392785,37.3997835 L24.0211642,31.8126413 L21.4396599,23.8636616 L21.4396599,18.4822278 L24.1146354,20.1295882 L27.6062092,26.4007321 C27.8857026,26.8992916 28.512065,27.0866798 29.0210231,26.8240005 L32.6460058,24.9616197 C32.8983348,24.8313355 33.0878479,24.6058869 33.1722919,24.3355392 C33.2567359,24.0651914 33.2290897,23.7724226 33.0955173,23.5225073 L33.0938178,23.5242004 Z M16.7508051,2.12713854 C18.1545,2.12679623 19.4201691,2.96891246 19.9575781,4.26077331 C20.494987,5.55263416 20.1982901,7.03980039 19.2058494,8.02874418 C18.2134088,9.01768797 16.7206911,9.3136313 15.4238132,8.77856342 C14.1269353,8.24349553 13.2813245,6.98280105 13.2813245,5.58439454 C13.2831973,3.67610863 14.8353031,2.12947174 16.7508051,2.12713854 Z M22.3777707,33.179798 L27.8585814,38.184523 L26.4990005,39.4543281 L20.3392491,34.5257914 L17.9684798,29.1866844 L20.0137994,26.3465538 L22.0854608,32.7252078 C22.1420514,32.8992518 22.2427282,33.0558208 22.3777707,33.179798 L22.3777707,33.179798 Z M28.9623912,24.4757076 L25.8362048,18.8606297 C25.7483488,18.7022172 25.6210558,18.5689903 25.4665687,18.4737624 L20.9349155,15.6801913 C20.6071874,15.4784768 20.195519,15.4693505 19.8591084,15.6563417 C19.5226979,15.843333 19.3142845,16.197127 19.3144649,16.5809063 L19.3144649,23.5986956 L13.0399989,30.133959 C12.9460395,30.2319679 12.871641,30.3468798 12.8207664,30.4725736 L9.14140049,39.682893 L7.47421436,39.255392 L10.2239668,29.5447694 L14.8006562,24.7559113 C14.9888899,24.5595945 15.0938928,24.2985312 15.0938158,24.0270432 L15.0938158,17.5146363 C15.0934686,17.083734 14.8310834,16.6960059 14.4302513,16.5340835 C14.0294191,16.372161 13.570073,16.4683343 13.2685784,16.7773028 L9.09126595,21.0658578 L2.45651093,20.4521187 L3.01308938,18.6430697 L7.76482479,19.0544866 C8.10150336,19.0852854 8.43252304,18.9529984 8.65450057,18.6989412 L14.5117452,12.0604003 L19.1853047,12.0604003 L26.8329475,16.422604 L30.7145511,23.5800718 L28.9623912,24.4757076 Z" id="Shape"></path>
            </g>
        </g>
    </g>
</svg>