<?xml version="1.0" encoding="UTF-8"?>
<svg width="69px" height="69px" viewBox="0 0 69 69" version="1.1" xmlns="http://www.w3.org/2000/svg" xmlns:xlink="http://www.w3.org/1999/xlink">
    <title>pit-wall collapse danger</title>
    <defs>
        <rect id="path-1" x="0" y="7.10542736e-15" width="60" height="60" rx="29.4444444"></rect>
        <filter x="-11.7%" y="-8.3%" width="123.3%" height="123.3%" filterUnits="objectBoundingBox" id="filter-2">
            <feOffset dx="0" dy="2" in="SourceAlpha" result="shadowOffsetOuter1"></feOffset>
            <feGaussianBlur stdDeviation="2" in="shadowOffsetOuter1" result="shadowBlurOuter1"></feGaussianBlur>
            <feColorMatrix values="0 0 0 0 0   0 0 0 0 0   0 0 0 0 0  0 0 0 0.5 0" type="matrix" in="shadowBlurOuter1"></feColorMatrix>
        </filter>
    </defs>
    <g id="Page-1" stroke="none" stroke-width="1" fill="none" fill-rule="evenodd">
        <g id="Tablet-Copy" transform="translate(-277.000000, -778.000000)">
            <g id="pit-wall-collapse-danger" transform="translate(281.538235, 780.905486)">
                <g id="Rectangle-Copy-9">
                    <use fill="black" fill-opacity="1" filter="url(#filter-2)" xlink:href="#path-1"></use>
                    <use fill="#F59316" fill-rule="evenodd" xlink:href="#path-1"></use>
                </g>
                <g id="landslide-(1)-copy-2" transform="translate(14.555556, 12.222222)" fill="#FFFFFF" fill-rule="nonzero">
                    <path d="M33.1272338,32.2090497 L29.5912796,28.9034514 C29.4884221,28.8072926 29.3570368,28.746876 29.2167528,28.7311859 L24.7180476,28.2281261 L21.4150277,24.9044288 C21.3465869,24.8355487 21.263555,24.7827492 21.1719517,24.7499367 L17.0079258,23.2559917 L15.6855662,19.5277373 C15.6425781,19.4065133 15.5643881,19.3007191 15.4610072,19.2236358 L12.1089794,16.7255243 L11.7754778,13.8067098 C11.759709,13.668689 11.6999705,13.5394573 11.6050956,13.4376995 L9.70642024,11.4028041 C9.62927714,11.3201218 9.53198131,11.2588588 9.42388938,11.2250046 L6.41753336,10.2824267 L7.0386694,7.30339086 C7.07243177,7.14128151 7.04285698,6.97240134 6.95576838,6.83125554 L5.40211039,4.31120398 C5.37286275,4.26387326 5.33772633,4.22044879 5.29748629,4.18197224 L1.10597941,0.181126718 C0.917014814,0.000658006045 0.638017228,-0.0500581292 0.397231319,0.052090287 C0.156314548,0.154303807 0,0.389720425 0,0.650332349 L0,32.6830079 C0,33.0421876 0.292607224,33.3333333 0.653589795,33.3333333 L32.6797515,33.3333333 C32.9478875,33.3333333 33.1887389,33.1705078 33.2874087,32.9225261 C33.3860786,32.6745444 33.3226106,32.391732 33.1272338,32.2090497 Z M1.30717959,32.0327477 L1.30717959,2.17546224 L4.33192171,5.06257101 L5.70603717,7.2915419 L5.01750724,10.593885 C4.94932819,10.9207729 5.14104088,11.2459031 5.46106368,11.3462286 L8.8660905,12.4137414 L10.5009483,14.1658894 L10.8420399,17.1511753 C10.8623889,17.3291049 10.9555626,17.4908887 11.0996415,17.5982455 L14.5188669,20.146422 L15.8783912,23.9795592 C15.9436913,24.1636087 16.08849,24.3086607 16.2730053,24.3748717 L20.5895507,25.9235042 L23.9509351,29.3059904 C24.0559518,29.4116545 24.1942728,29.4783862 24.3426702,29.4949878 L28.8547234,29.999545 L31.0295828,32.0327477 L1.30717959,32.0327477 L1.30717959,32.0327477 Z" id="Shape"></path>
                    <path d="M18.1187775,4.39297347 L16.7690188,1.79691362 C16.6716459,1.60977068 16.4788601,1.49986821 16.2762235,1.51687628 L13.6972358,1.7311563 C13.5281743,1.74523941 13.3764934,1.84577119 13.2917048,2.00008964 L12.1902262,4.00422531 C12.1097698,4.15058138 12.0990423,4.32797447 12.1612928,4.48386373 L13.2627715,7.24382938 C13.3440014,7.4473304 13.5329708,7.57575758 13.7376703,7.57575758 C13.7658816,7.57575758 13.7944024,7.57332011 13.8229747,7.56828269 L16.7224469,7.05858224 C16.8741278,7.03187849 17.0066229,6.93535498 17.0835207,6.79539048 L18.1128465,4.92276944 C18.2026378,4.75935113 18.2049071,4.55861257 18.1187775,4.39297347 Z M16.3125836,6.0333856 L14.0552151,6.43020446 L13.2102169,4.31280804 L14.048562,2.78744413 L16.0246426,2.6232675 L17.0757845,4.64489874 L16.3125836,6.0333856 Z" id="Shape"></path>
                    <path d="M22.6848798,15.5522592 L22.0689881,14.1699796 C22.0008551,14.0170309 21.8595773,13.9113661 21.6961244,13.8910051 L19.6751617,13.6399184 C19.4902902,13.6169037 19.3093903,13.7070325 19.2133612,13.8699204 L18.2493814,15.5052166 C18.1692862,15.6410852 18.1598298,15.8085085 18.2240857,15.9529171 L18.8825309,17.4325627 C18.9435716,17.5696858 19.0638563,17.6698503 19.2077346,17.7032384 L21.2164513,18.169756 C21.2514871,18.17791 21.2866174,18.1818182 21.3214168,18.1818182 C21.4986759,18.1818182 21.665013,18.0795307 21.7455338,17.9115767 L22.6792533,15.9634836 C22.7412396,15.8342251 22.74332,15.6833511 22.6848798,15.5522592 Z M21.06132,17.1452412 L19.6457525,16.8164257 L19.1868834,15.7850596 L19.8649979,14.6346154 L21.3188635,14.8152589 L21.7327677,15.7442894 L21.06132,17.1452412 Z" id="Shape"></path>
                    <path d="M28.6739906,6.02095888 L27.8547774,4.81302425 C27.731425,4.63108508 27.5276992,4.53027921 27.3166888,4.54731592 L25.4011444,4.70013196 C25.1627561,4.71916164 24.9572091,4.88477129 24.876168,5.12289944 L24.2782851,6.88121612 C24.2106597,7.08012771 24.2397981,7.3015406 24.3562302,7.47332203 L25.2324453,8.76605446 C25.3429283,8.92896395 25.518912,9.02796971 25.7082507,9.0334986 L27.6516587,9.09065193 C27.657365,9.09078051 27.6630105,9.09090909 27.6686561,9.09090909 C27.9429817,9.09090909 28.1841625,8.89527627 28.2547016,8.61298126 L28.7677191,6.55989741 C28.8140369,6.37442232 28.7796172,6.17679653 28.6739906,6.02095888 Z M27.2051131,7.79264777 L26.0422493,7.75851007 L25.5272892,6.99867296 L25.8840522,5.94966187 L27.0683449,5.85522066 L27.5221144,6.52434534 L27.2051131,7.79264777 Z" id="Shape"></path>
                    <path d="M31.8030238,22.4745871 L31.3713951,20.5440594 C31.3176899,20.3038377 31.1287592,20.1177627 30.8891035,20.0690556 L29.1203075,19.7092857 C28.9202632,19.6687068 28.7129548,19.7297314 28.5661812,19.8727265 L27.4615917,20.9494728 C27.3223927,21.0851524 27.2542212,21.2784178 27.2770692,21.4720583 L27.5121305,23.4599841 C27.5460921,23.74785 27.772337,23.9742537 28.0583717,24.0067668 L30.0963148,24.2384852 C30.1195974,24.2411112 30.1428179,24.2424242 30.1659764,24.2424242 C30.3260366,24.2424242 30.4810057,24.1799616 30.5972946,24.0666034 L31.6293044,23.0604481 C31.7847082,22.9090121 31.8505204,22.6869852 31.8030238,22.4745871 Z M29.9448226,22.9642218 L28.6857607,22.8211017 L28.5450716,21.6317476 L29.1945014,20.9987426 L30.2495455,21.213329 L30.5163953,22.4069349 L29.9448226,22.9642218 Z" id="Shape"></path>
                    <path d="M28.0303178,18.1818182 C27.0210609,18.1818182 27.0193337,19.6969697 28.0303178,19.6969697 C29.0395746,19.6969697 29.0412233,18.1818182 28.0303178,18.1818182 Z" id="Path"></path>
                    <path d="M17.4242424,13.6363636 C16.414966,13.6363636 16.4133172,15.1515152 17.4242424,15.1515152 C18.4335189,15.1515152 18.4351676,13.6363636 17.4242424,13.6363636 Z" id="Path"></path>
                    <path d="M14.3939541,12.1212121 C13.3846973,12.1212121 13.38297,13.6363636 14.3939541,13.6363636 C15.403211,13.6363636 15.4048597,12.1212121 14.3939541,12.1212121 Z" id="Path"></path>
                    <path d="M11.3636364,1.51515152 C10.3543599,1.51515152 10.3527111,3.03030303 11.3636364,3.03030303 C12.3729128,3.03030303 12.3745616,1.51515152 11.3636364,1.51515152 Z" id="Path"></path>
                    <path d="M21.9696822,3.03030303 C20.9604254,3.03030303 20.9587767,4.54545455 21.9696822,4.54545455 C22.9789391,4.54545455 22.9806663,3.03030303 21.9696822,3.03030303 Z" id="Path"></path>
                    <path d="M7.11193947,28.7878788 L3.49412113,28.7878788 C3.2379509,28.7878788 3.03030303,29.1270397 3.03030303,29.5454545 C3.03030303,29.9638693 3.2379509,30.3030303 3.49412113,30.3030303 L7.11193947,30.3030303 C7.36810971,30.3030303 7.57575758,29.9638693 7.57575758,29.5454545 C7.57575758,29.1270397 7.36810971,28.7878788 7.11193947,28.7878788 Z" id="Path"></path>
                    <path d="M11.3636364,28.7878788 C10.3543599,28.7878788 10.3527111,30.3030303 11.3636364,30.3030303 C12.3729128,30.3030303 12.3745616,28.7878788 11.3636364,28.7878788 Z" id="Path"></path>
                </g>
            </g>
        </g>
    </g>
</svg>