<?xml version="1.0" encoding="UTF-8"?>
<svg width="69px" height="69px" viewBox="0 0 69 69" version="1.1" xmlns="http://www.w3.org/2000/svg" xmlns:xlink="http://www.w3.org/1999/xlink">
    <title>pit-wall collapse danger</title>
    <defs>
        <rect id="path-1" x="0" y="0" width="68.7037037" height="68.7037037" rx="34.3518519"></rect>
        <filter x="-10.2%" y="-7.3%" width="120.4%" height="120.4%" filterUnits="objectBoundingBox" id="filter-2">
            <feOffset dx="0" dy="2" in="SourceAlpha" result="shadowOffsetOuter1"></feOffset>
            <feGaussianBlur stdDeviation="2" in="shadowOffsetOuter1" result="shadowBlurOuter1"></feGaussianBlur>
            <feComposite in="shadowBlurOuter1" in2="SourceAlpha" operator="out" result="shadowBlurOuter1"></feComposite>
            <feColorMatrix values="0 0 0 0 0   0 0 0 0 0   0 0 0 0 0  0 0 0 0.5 0" type="matrix" in="shadowBlurOuter1"></feColorMatrix>
        </filter>
    </defs>
    <g id="pit-wall-collapse-danger" stroke="none" stroke-width="1" fill="none" fill-rule="evenodd">
        <g>
            <g id="Rectangle">
                <use fill="black" fill-opacity="1" filter="url(#filter-2)" xlink:href="#path-1"></use>
                <rect stroke="#0F2365" stroke-width="5" stroke-linejoin="square" fill="#D5001A" fill-rule="evenodd" x="2.5" y="2.5" width="63.7037037" height="63.7037037" rx="31.8518519"></rect>
            </g>
            <g id="landslide-(1)-copy" transform="translate(17.000000, 16.000000)" fill="#FFFFFF" fill-rule="nonzero">
                <path d="M34.7852845,34.6149535 L31.0725326,31.1440753 C30.9645323,31.0431085 30.8265777,30.979671 30.6792795,30.9631964 L25.955639,30.4349836 L22.4874681,26.9451015 C22.4156053,26.8727773 22.3284218,26.8173379 22.2322383,26.7828848 L17.8600111,25.2142425 L16.4715336,21.2995754 C16.426396,21.1722902 16.3442965,21.0612063 16.2357466,20.9802688 L12.7161174,18.3572518 L12.3659408,15.2924966 C12.3493835,15.1475747 12.2866581,15.0118814 12.1870395,14.9050357 L10.1934303,12.7683955 C10.11243,12.6815791 10.0102694,12.617253 9.89677289,12.5817061 L6.74009907,11.5919993 L7.39229191,8.46401165 C7.4277424,8.29379684 7.39668887,8.11647266 7.30524584,7.96826957 L5.67390495,5.32221543 C5.64319493,5.27251818 5.60630169,5.22692248 5.56404965,5.1865221 L1.16296742,0.985634307 C0.964554597,0.796142159 0.671607132,0.742890217 0.418781927,0.850146054 C0.165819318,0.95747025 0.00168904232,1.2046577 0.00168904232,1.47830022 L0.00168904232,35.1126096 C0.00168904232,35.4897482 0.308926628,35.7954513 0.687958327,35.7954513 L34.3154281,35.7954513 C34.5969709,35.7954513 34.8498648,35.6244845 34.9534682,35.3641037 C35.0570716,35.1037229 34.9904302,34.8067698 34.7852845,34.6149535 Z M1.37422761,34.4298363 L1.37422761,3.0796866 L4.55020684,6.11115081 L5.99302807,8.45157025 L5.27007165,11.9190305 C5.19848364,12.2622628 5.39978197,12.6036495 5.7358059,12.7089912 L9.31108407,13.8298797 L11.0276848,15.6696351 L11.3858309,18.8041853 C11.4071974,18.9910114 11.5050297,19.1608844 11.6563126,19.273609 L15.2464993,21.9491944 L16.6739998,25.9739885 C16.7425649,26.1672404 16.8946036,26.319545 17.0883446,26.3890665 L21.6207173,28.0151306 L25.1501709,31.5667412 C25.2604384,31.6776884 25.4056755,31.7477568 25.5614928,31.7651884 L30.2991486,32.2949735 L32.582751,34.4298363 L1.37422761,34.4298363 L1.37422761,34.4298363 Z" id="Shape"></path>
                <path d="M18.9392788,5.64449498 L17.6030176,3.07439573 C17.5066185,2.88912422 17.3157605,2.78032078 17.1151503,2.79715877 L14.5619525,3.00929599 C14.3945816,3.02323827 14.2444175,3.12276473 14.1604768,3.27554 L13.0700129,5.25963431 C12.9903611,5.40452682 12.9797409,5.58014598 13.0413689,5.73447634 L14.1318328,8.46684233 C14.2122505,8.66830834 14.3993301,8.79545125 14.6019827,8.79545125 C14.6299119,8.79545125 14.6581474,8.79303817 14.686434,8.78805112 L17.5569115,8.28344767 C17.7070756,8.25701096 17.8382458,8.16145268 17.9143745,8.02288783 L18.933407,6.168993 C19.0223005,6.00720887 19.0245471,5.8084777 18.9392788,5.64449498 Z M17.1511468,7.26850299 L14.916352,7.66135367 L14.0798038,5.56513121 L14.9097654,4.05502094 L16.8660853,3.89248608 L17.9067157,5.893901 L17.1511468,7.26850299 Z" id="Shape"></path>
                <path d="M23.9550568,16.9029363 L23.2775759,15.3824288 C23.2026297,15.2141853 23.0472241,15.097954 22.8674259,15.0755569 L20.644367,14.7993615 C20.4410083,14.7740454 20.2420184,14.873187 20.1363863,15.0523637 L19.0760086,16.8511895 C18.9879038,17.000645 18.9775018,17.1848106 19.0481833,17.3436601 L19.7724731,18.9712703 C19.8396179,19.1221056 19.971931,19.2322866 20.1301971,19.2690135 L22.3397855,19.7821828 C22.3783248,19.7911523 22.4169682,19.7954513 22.4552475,19.7954513 C22.6502326,19.7954513 22.8332034,19.6829351 22.9217762,19.4981856 L23.9488676,17.3552832 C24.0170526,17.2130989 24.019341,17.0471375 23.9550568,16.9029363 Z M22.169141,18.6552166 L20.6120168,18.2935195 L20.1072608,17.1590168 L20.8531867,15.8935282 L22.4524389,16.0922361 L22.9077336,17.1141695 L22.169141,18.6552166 Z" id="Shape"></path>
                <path d="M29.8764121,7.41850602 L28.9752776,6.08977793 C28.8395899,5.88964485 28.6154915,5.77875839 28.3833801,5.79749877 L26.2762812,5.96559641 C26.014054,5.98652906 25.7879524,6.16869967 25.6988072,6.43064064 L25.0411359,8.36478899 C24.9667481,8.58359173 24.9988003,8.82714591 25.1268756,9.01610549 L26.0907122,10.4381112 C26.2122435,10.6173116 26.4058255,10.7262179 26.6140981,10.7322997 L28.7518469,10.7951684 C28.7581238,10.7953098 28.764334,10.7954513 28.7705441,10.7954513 C29.0723023,10.7954513 29.3376011,10.5802551 29.4151941,10.2697306 L29.9795134,8.0113384 C30.030463,7.80731581 29.9926013,7.58992743 29.8764121,7.41850602 Z M28.2606468,9.3673638 L26.9814966,9.32981233 L26.4150405,8.49399151 L26.8074798,7.34007931 L28.1102018,7.23619398 L28.6093482,7.97223113 L28.2606468,9.3673638 Z" id="Shape"></path>
                <path d="M33.9850152,24.8508304 L33.5102237,22.72725 C33.4511479,22.463006 33.2433242,22.2583236 32.9797028,22.2047457 L31.0340272,21.8089988 C30.8139786,21.7643621 30.5859393,21.8314891 30.4244883,21.9887837 L29.2094399,23.1732046 C29.056321,23.3224522 28.9813323,23.5350441 29.0064651,23.7480487 L29.2650326,25.934767 C29.3023903,26.2514196 29.5512598,26.5004637 29.865898,26.5362281 L32.1076353,26.7911183 C32.1332462,26.7940069 32.1587888,26.7954513 32.1842631,26.7954513 C32.3603293,26.7954513 32.5307953,26.7267423 32.6587132,26.6020483 L33.7939239,25.4952775 C33.964868,25.3286979 34.0372614,25.0844683 33.9850152,24.8508304 Z M31.9409939,25.3894286 L30.5560258,25.2319965 L30.4012678,23.9237069 L31.1156406,23.2274014 L32.2761891,23.4634465 L32.5697239,24.7764129 L31.9409939,25.3894286 Z" id="Shape"></path>
                <path d="M29.0017085,19.7954513 C27.6694895,19.7954513 27.6672095,21.7954513 29.0017085,21.7954513 C30.3339275,21.7954513 30.3361038,19.7954513 29.0017085,19.7954513 Z" id="Path"></path>
                <path d="M18.001689,14.7954513 C16.6694441,14.7954513 16.6672677,16.7954513 18.001689,16.7954513 C19.333934,16.7954513 19.3361103,14.7954513 18.001689,14.7954513 Z" id="Path"></path>
                <path d="M15.0017085,13.7954513 C13.6694895,13.7954513 13.6672095,15.7954513 15.0017085,15.7954513 C16.3339275,15.7954513 16.3361038,13.7954513 15.0017085,13.7954513 Z" id="Path"></path>
                <path d="M12.001689,2.79545125 C10.6694441,2.79545125 10.6672677,4.79545125 12.001689,4.79545125 C13.333934,4.79545125 13.3361103,2.79545125 12.001689,2.79545125 Z" id="Path"></path>
                <path d="M23.0016696,3.79545125 C21.6694506,3.79545125 21.6672743,5.79545125 23.0016696,5.79545125 C24.3338886,5.79545125 24.3361686,3.79545125 23.0016696,3.79545125 Z" id="Path"></path>
                <path d="M7.49148913,30.7954513 L3.51188895,30.7954513 C3.2301017,30.7954513 3.00168904,31.2431437 3.00168904,31.7954513 C3.00168904,32.3477588 3.2301017,32.7954513 3.51188895,32.7954513 L7.49148913,32.7954513 C7.77327639,32.7954513 8.00168904,32.3477588 8.00168904,31.7954513 C8.00168904,31.2431437 7.77327639,30.7954513 7.49148913,30.7954513 Z" id="Path"></path>
                <path d="M12.001689,30.7954513 C10.6694441,30.7954513 10.6672677,32.7954513 12.001689,32.7954513 C13.333934,32.7954513 13.3361103,30.7954513 12.001689,30.7954513 Z" id="Path"></path>
            </g>
        </g>
    </g>
</svg>