<?xml version="1.0" encoding="UTF-8"?>
<svg width="69px" height="69px" viewBox="0 0 69 69" version="1.1" xmlns="http://www.w3.org/2000/svg" xmlns:xlink="http://www.w3.org/1999/xlink">
    <title>pit-wall collapse danger copy 2</title>
    <defs>
        <rect id="path-1" x="0.0168294762" y="0.056400599" width="68.7037037" height="68.7037037" rx="34.3518519"></rect>
        <filter x="-10.2%" y="-7.3%" width="120.4%" height="120.4%" filterUnits="objectBoundingBox" id="filter-2">
            <feOffset dx="0" dy="2" in="SourceAlpha" result="shadowOffsetOuter1"></feOffset>
            <feGaussianBlur stdDeviation="2" in="shadowOffsetOuter1" result="shadowBlurOuter1"></feGaussianBlur>
            <feComposite in="shadowBlurOuter1" in2="SourceAlpha" operator="out" result="shadowBlurOuter1"></feComposite>
            <feColorMatrix values="0 0 0 0 0   0 0 0 0 0   0 0 0 0 0  0 0 0 0.5 0" type="matrix" in="shadowBlurOuter1"></feColorMatrix>
        </filter>
    </defs>
    <g id="pit-wall-collapse-danger-copy-2" stroke="none" stroke-width="1" fill="none" fill-rule="evenodd">
        <g id="pit-wall-collapse-danger">
            <g id="Rectangle">
                <use fill="black" fill-opacity="1" filter="url(#filter-2)" xlink:href="#path-1"></use>
                <rect stroke="#0F2365" stroke-width="5" stroke-linejoin="square" fill="#F59316" fill-rule="evenodd" x="2.51682948" y="2.5564006" width="63.7037037" height="63.7037037" rx="31.8518519"></rect>
            </g>
            <g id="landslide-(1)-copy" transform="translate(16.998311, 14.315660)" fill="#FFFFFF" fill-rule="nonzero">
                <path d="M38.6484394,37.5772247 L34.5231595,33.7206934 C34.4031592,33.608508 34.2498763,33.538022 34.0862116,33.5197168 L28.8377222,32.9328137 L24.9841989,29.055167 C24.9043514,28.9748068 24.8074808,28.9132074 24.7006103,28.8749261 L19.8425801,27.1319903 L18.2998272,22.7823601 C18.2496744,22.6409322 18.1584528,22.5175056 18.0378417,22.4275751 L14.1271427,19.5131117 L13.7380575,16.1078281 C13.7196605,15.9468038 13.6499656,15.7960335 13.5392783,15.677316 L11.3241569,13.3032714 C11.2341567,13.2068088 11.1206449,13.1353352 10.9945376,13.0958387 L7.48712225,11.9961645 L8.21178096,8.52062266 C8.2511704,8.3314951 8.21666647,8.13446823 8.11506311,7.96979813 L6.30246212,5.02973798 C6.26833988,4.9745188 6.22734738,4.92385692 6.18040067,4.87896761 L1.29030931,0.211314505 C1.06985062,0.000767673719 0.744353433,-0.0584011507 0.463436539,0.0607720015 C0.182366973,0.180021108 0,0.454673829 0,0.758721074 L0,38.1301759 C0,38.5492188 0.341375095,38.8888889 0.762521428,38.8888889 L38.1263767,38.8888889 C38.4392021,38.8888889 38.7201953,38.6989258 38.8353102,38.4096138 C38.9504251,38.1203018 38.876379,37.790354 38.6484394,37.5772247 Z M1.52504286,37.3715389 L1.52504286,2.53803928 L5.05390866,5.90633285 L6.65704336,8.50679888 L5.85375845,12.3595325 C5.77421622,12.7409017 5.99788103,13.1202202 6.37124096,13.2372666 L10.3437722,14.4826982 L12.2511064,16.526871 L12.6490465,20.0097045 C12.672787,20.2172891 12.7814897,20.4060368 12.9495818,20.5312864 L16.938678,23.504159 L18.5247898,27.9761525 C18.6009732,28.1908768 18.769905,28.3601042 18.9851729,28.4373503 L24.0211425,30.2440882 L27.9427576,34.1903222 C28.0652771,34.3135969 28.2266516,34.3914506 28.3997819,34.4108191 L33.6638439,34.9994691 L36.20118,37.3715389 L1.52504286,37.3715389 L1.52504286,37.3715389 Z" id="Shape"></path>
                <path d="M21.1385738,5.12513571 L19.5638552,2.09639922 C19.4502536,1.87806579 19.2253368,1.74984624 18.9889274,1.76968899 L15.9801085,2.01968235 C15.78287,2.03611265 15.605909,2.15339972 15.5069889,2.33343791 L14.2219305,4.6715962 C14.1280648,4.84234494 14.1155493,5.04930355 14.1881749,5.23117435 L15.4732334,8.45113427 C15.5680017,8.68855213 15.7884659,8.83838384 16.0272821,8.83838384 C16.0601952,8.83838384 16.0934695,8.83554013 16.1268038,8.82966314 L19.5095214,8.23501261 C19.6864824,8.20385823 19.8410601,8.09124748 19.9307741,7.92795556 L21.1316542,5.74323101 C21.2364108,5.55257632 21.2390583,5.31838133 21.1385738,5.12513571 Z M19.0313475,7.03894986 L16.397751,7.5019052 L15.4119198,5.03160938 L16.389989,3.25201815 L18.6954164,3.06047875 L19.9217486,5.41904853 L19.0313475,7.03894986 Z" id="Shape"></path>
                <path d="M26.4656931,18.1443024 L25.7471528,16.5316429 C25.6676643,16.3532028 25.5028402,16.2299271 25.3121451,16.2061726 L22.9543554,15.9132381 C22.7386719,15.8863877 22.5276221,15.9915379 22.415588,16.1815738 L21.290945,18.0894194 C21.1975005,18.2479327 21.1864681,18.4432599 21.2614333,18.6117366 L22.0296194,20.3379899 C22.1008336,20.4979668 22.2411657,20.6148253 22.4090237,20.6537782 L24.7525266,21.1980486 C24.7934016,21.2075617 24.834387,21.2121212 24.8749862,21.2121212 C25.0817886,21.2121212 25.2758485,21.0927859 25.3697894,20.8968395 L26.4591288,18.6240642 C26.5314462,18.4732626 26.5338733,18.297243 26.4656931,18.1443024 Z M24.57154,20.0027814 L22.9200446,19.6191633 L22.3846973,18.4159028 L23.1758308,17.073718 L24.8720075,17.2844687 L25.3548957,18.3683376 L24.57154,20.0027814 Z" id="Shape"></path>
                <path d="M33.4529891,7.02445203 L32.4972403,5.61519496 C32.3533292,5.4029326 32.1156491,5.28532575 31.8694703,5.30520191 L29.6346684,5.48348729 C29.3565487,5.50568858 29.116744,5.69889983 29.022196,5.97671601 L28.3246659,8.02808548 C28.2457697,8.26014899 28.2797645,8.51846403 28.4156019,8.7188757 L29.4378529,10.2270635 C29.5667497,10.4171246 29.772064,10.5326313 29.9929591,10.5390817 L32.2602685,10.6057606 C32.2669258,10.6059106 32.2735123,10.6060606 32.2800988,10.6060606 C32.6001453,10.6060606 32.8815229,10.3778223 32.9638185,10.0484781 L33.5623389,7.65321365 C33.6163764,7.43682604 33.5762201,7.20626262 33.4529891,7.02445203 Z M31.7392987,9.0914224 L30.3826241,9.05159508 L29.7818374,8.16511846 L30.1980609,6.94127218 L31.5797357,6.83109077 L32.1091334,7.61173623 L31.7392987,9.0914224 Z" id="Shape"></path>
                <path d="M37.1035278,26.2203516 L36.599961,23.9680693 C36.5373049,23.6878106 36.3168857,23.4707232 36.0372874,23.4138982 L33.973692,22.9941666 C33.7403071,22.9468246 33.4984472,23.01802 33.3272114,23.1848476 L32.0385236,24.4410515 C31.8761248,24.5993445 31.7965914,24.8248207 31.8232474,25.0507346 L32.0974856,27.3699814 C32.1371074,27.705825 32.4010599,27.9699627 32.734767,28.0078946 L35.1123673,28.2782327 C35.1395303,28.2812964 35.1666209,28.2828283 35.1936391,28.2828283 C35.3803761,28.2828283 35.5611734,28.2099552 35.6968438,28.077704 L36.9008552,26.9038561 C37.0821595,26.7271808 37.1589404,26.4681494 37.1035278,26.2203516 Z M34.9356263,26.7915922 L33.4667208,26.6246186 L33.3025835,25.2370389 L34.0602516,24.498533 L35.2911364,24.7488839 L35.6024612,26.141424 L34.9356263,26.7915922 Z" id="Shape"></path>
                <path d="M32.7020374,21.2121212 C31.5245711,21.2121212 31.522556,22.979798 32.7020374,22.979798 C33.8795037,22.979798 33.8814272,21.2121212 32.7020374,21.2121212 Z" id="Path"></path>
                <path d="M20.3282828,15.9090909 C19.1507936,15.9090909 19.1488701,17.6767677 20.3282828,17.6767677 C21.505772,17.6767677 21.5076956,15.9090909 20.3282828,15.9090909 Z" id="Path"></path>
                <path d="M16.7929465,14.1414141 C15.6154802,14.1414141 15.613465,15.9090909 16.7929465,15.9090909 C17.9704128,15.9090909 17.9723363,14.1414141 16.7929465,14.1414141 Z" id="Path"></path>
                <path d="M13.2575758,1.76767677 C12.0800866,1.76767677 12.078163,3.53535354 13.2575758,3.53535354 C14.435065,3.53535354 14.4369885,1.76767677 13.2575758,1.76767677 Z" id="Path"></path>
                <path d="M25.6312959,3.53535354 C24.4538296,3.53535354 24.4519061,5.3030303 25.6312959,5.3030303 C26.8087623,5.3030303 26.8107774,3.53535354 25.6312959,3.53535354 Z" id="Path"></path>
                <path d="M8.29726272,33.5858586 L4.07647465,33.5858586 C3.77760938,33.5858586 3.53535354,33.9815464 3.53535354,34.469697 C3.53535354,34.9578476 3.77760938,35.3535354 4.07647465,35.3535354 L8.29726272,35.3535354 C8.59612799,35.3535354 8.83838384,34.9578476 8.83838384,34.469697 C8.83838384,33.9815464 8.59612799,33.5858586 8.29726272,33.5858586 Z" id="Path"></path>
                <path d="M13.2575758,33.5858586 C12.0800866,33.5858586 12.078163,35.3535354 13.2575758,35.3535354 C14.435065,35.3535354 14.4369885,33.5858586 13.2575758,33.5858586 Z" id="Path"></path>
            </g>
        </g>
    </g>
</svg>