<?xml version="1.0" encoding="UTF-8"?>
<svg width="70px" height="70px" viewBox="0 0 70 70" version="1.1" xmlns="http://www.w3.org/2000/svg" xmlns:xlink="http://www.w3.org/1999/xlink">
    <title>pit hole copy 5</title>
    <defs>
        <rect id="path-1" x="0" y="0" width="70" height="70" rx="35"></rect>
        <filter x="-10.0%" y="-7.1%" width="120.0%" height="120.0%" filterUnits="objectBoundingBox" id="filter-2">
            <feOffset dx="0" dy="2" in="SourceAlpha" result="shadowOffsetOuter1"></feOffset>
            <feGaussianBlur stdDeviation="2" in="shadowOffsetOuter1" result="shadowBlurOuter1"></feGaussianBlur>
            <feComposite in="shadowBlurOuter1" in2="SourceAlpha" operator="out" result="shadowBlurOuter1"></feComposite>
            <feColorMatrix values="0 0 0 0 0   0 0 0 0 0   0 0 0 0 0  0 0 0 0.5 0" type="matrix" in="shadowBlurOuter1"></feColorMatrix>
        </filter>
    </defs>
    <g id="pit-hole-copy-5" stroke="none" stroke-width="1" fill="none" fill-rule="evenodd">
        <g id="Group-2">
            <g id="Rectangle">
                <use fill="black" fill-opacity="1" filter="url(#filter-2)" xlink:href="#path-1"></use>
                <rect stroke="#0F2365" stroke-width="5" stroke-linejoin="square" fill="#F59316" fill-rule="evenodd" x="2.5" y="2.5" width="65" height="65" rx="32.5"></rect>
            </g>
            <g id="sink-(1)" transform="translate(16.000000, 21.000000)" fill="#FFFFFF" fill-rule="nonzero">
                <path d="M9.28946182,25.8149376 L13.2793608,25.8149376 C13.5584538,25.8149376 13.7844113,25.3670209 13.7844113,24.8149376 C13.7844113,24.2623333 13.5584538,23.8149376 13.2793608,23.8149376 L9.28946182,23.8149376 C9.01063178,23.8149376 8.78441131,24.2623333 8.78441131,24.8149376 C8.78441131,25.3670209 9.01063178,25.8149376 9.28946182,25.8149376 Z" id="Path"></path>
                <path d="M18.289462,25.8149376 L22.2793608,25.8149376 C22.5581908,25.8149376 22.7844113,25.3670209 22.7844113,24.8149376 C22.7844113,24.2623333 22.5581908,23.8149376 22.2793608,23.8149376 L18.289462,23.8149376 C18.010369,23.8149376 17.7844113,24.2623333 17.7844113,24.8149376 C17.7841485,25.3670209 18.010369,25.8149376 18.289462,25.8149376 L18.289462,25.8149376 Z" id="Path"></path>
                <path d="M26.2894618,25.8149376 L30.2793608,25.8149376 C30.5584538,25.8149376 30.7844113,25.3670209 30.7844113,24.8149376 C30.7844113,24.2623333 30.5581908,23.8149376 30.2793608,23.8149376 L26.2894618,23.8149376 C26.0103688,23.8149376 25.7844113,24.2623333 25.7844113,24.8149376 C25.7844113,25.3670209 26.0103688,25.8149376 26.2894618,25.8149376 Z" id="Path"></path>
                <path d="M38.7776966,21.4613862 L36.7422177,7.30559758 C36.6969913,6.99162978 36.4137463,6.77433647 36.1099175,6.82132694 C35.8057989,6.86801806 35.5959019,7.16043612 35.6408384,7.47410464 L37.5815158,20.9711295 L1.98687116,20.9711295 L2.50320614,17.381301 C2.54814267,17.0673332 2.33824568,16.7749151 2.03412699,16.728224 C1.72913847,16.6821314 1.44676328,16.8985268 1.40182675,17.2124946 C0.75358135,21.7241734 0.784648996,21.4820381 0.784648996,21.5457894 L0.784648996,27.2986736 C0.784648996,28.1349234 1.44386411,28.8149376 2.25359109,28.8149376 L37.3147958,28.8149376 C38.1248127,28.8149376 38.7841518,28.1349234 38.7841518,27.2986736 C38.7841518,27.2519825 38.7863941,21.5212466 38.7776966,21.4613862 L38.7776966,21.4613862 Z M37.3150857,27.6656178 L2.25359109,27.6656178 C2.05760992,27.6656178 1.89815775,27.5010018 1.89815775,27.2986736 L1.89815775,24.3412703 L5.66905576,24.3412703 C5.97665341,24.3412703 6.22568866,24.0838705 6.22568866,23.7666104 C6.22568866,23.4490509 5.97665341,23.1919505 5.66905576,23.1919505 L1.89815775,23.1919505 L1.89815775,22.1204493 L37.6705191,22.1204493 L37.6705191,23.1919505 L33.8326512,23.1919505 C33.5253434,23.1919505 33.2760182,23.4490509 33.2760182,23.7666104 C33.2760182,24.0838705 33.5253434,24.3412703 33.8326512,24.3412703 L37.6705191,24.3412703 L37.6705191,27.2986736 C37.6705191,27.5010018 37.510777,27.6656178 37.3150857,27.6656178 L37.3150857,27.6656178 Z" id="Shape"></path>
                <path d="M9.27936081,25.8149376 L5.28946182,25.8149376 C5.01063185,25.8149376 4.78441131,26.2628543 4.78441131,26.8149376 C4.78441131,27.3675417 5.01063185,27.8149376 5.28946182,27.8149376 L9.27936081,27.8149376 C9.5584538,27.8149376 9.78441131,27.3675417 9.78441131,26.8149376 C9.78441131,26.2628543 9.5584538,25.8149376 9.27936081,25.8149376 Z" id="Path"></path>
                <path d="M18.2793606,25.8149376 L14.2894618,25.8149376 C14.0106318,25.8149376 13.7844113,26.2628543 13.7844113,26.8149376 C13.7844113,27.3675417 14.0106318,27.8149376 14.2894618,27.8149376 L18.2793606,27.8149376 C18.5584536,27.8149376 18.7844113,27.3675417 18.7844113,26.8149376 C18.7846742,26.2628543 18.5584536,25.8149376 18.2793606,25.8149376 Z" id="Path"></path>
                <path d="M26.2793608,25.8149376 L22.2894618,25.8149376 C22.0103688,25.8149376 21.7844113,26.2628543 21.7844113,26.8149376 C21.7844113,27.3675417 22.0103688,27.8149376 22.2894618,27.8149376 L26.2793608,27.8149376 C26.5581908,27.8149376 26.7844113,27.3675417 26.7844113,26.8149376 C26.7844113,26.2628543 26.5581908,25.8149376 26.2793608,25.8149376 Z" id="Path"></path>
                <path d="M34.2793608,25.8149376 L30.2894618,25.8149376 C30.0103688,25.8149376 29.7844113,26.2628543 29.7844113,26.8149376 C29.7844113,27.3675417 30.0106319,27.8149376 30.2894618,27.8149376 L34.2793608,27.8149376 C34.5584539,27.8149376 34.7844113,27.3675417 34.7844113,26.8149376 C34.7844113,26.2628543 34.5584539,25.8149376 34.2793608,25.8149376 Z" id="Path"></path>
                <path d="M2.34689555,15.8149376 C2.62067137,15.8149376 2.86051771,15.5980282 2.90175956,15.2959383 L4.63128569,2.6835253 C4.68217987,2.31145443 4.9825728,2.03089708 5.33005749,2.03089708 L34.682569,2.03089708 C35.0300537,2.03089708 35.3304466,2.31145443 35.3813408,2.6835253 L35.667109,4.76712252 C35.7127382,5.09929476 35.9982138,5.32887051 36.3050417,5.27915544 C36.6118695,5.22975716 36.8236363,4.9207008 36.7782994,4.58852848 L36.4925313,2.50493126 C36.3606158,1.5416634 35.5822852,0.814937605 34.682569,0.814937605 L5.33005749,0.814937605 C4.43034124,0.814937605 3.65230313,1.54134677 3.52009515,2.50493126 L1.79056909,15.1176609 C1.74055234,15.483082 2.00145835,15.8149376 2.34689555,15.8149376 L2.34689555,15.8149376 Z" id="Path"></path>
                <path d="M30.9186451,8.62522944 C29.8590472,7.88799897 28.1408617,8.57980453 27.0604282,8.20025362 C24.9708248,7.46571492 22.8920923,5.8149376 19.8993092,5.8149376 C17.8821777,5.8149376 16.5133668,7.89674744 15.1291556,8.18107412 C13.7180694,8.4707845 11.867623,7.02761622 10.4293599,7.72648795 C7.98675857,8.91359398 4.78441131,9.2130623 4.78441131,11.5341103 C4.78441131,13.6058257 6.30933855,17.1954083 8.53573236,18.3629983 C9.8350912,19.0447095 12.7732184,18.8014335 14.3008634,19.1449809 C15.9248355,19.5100631 18.4091081,20.8149376 20.4824052,20.8149376 C22.4255551,20.8149376 23.6300967,18.9208844 24.9644836,18.658429 C28.1333126,18.0359385 28.9911974,18.261381 31.2348033,16.7270263 C31.4573521,16.5624869 32.3683829,15.9642231 33.2202285,15.139844 C34.2725793,14.1216515 34.7844113,13.2054129 34.7844113,12.3393101 C34.7841093,10.5327419 32.4610864,9.69860484 30.9186451,8.62522944 Z M24.7630724,17.3858566 C23.0959192,17.7135895 21.9843831,19.5225129 20.4824052,19.5225129 C18.647661,19.5225129 16.2283111,18.2600351 14.5300554,17.8781288 C12.9809709,17.5302072 10.0162707,17.7115705 9.02944645,17.1937259 C8.59099212,16.9639091 8.19209532,16.6159874 7.83637957,16.2007695 C10.2243251,14.8094193 14.3346835,13.9608135 18.8212914,13.9608135 C23.2523375,13.9608135 27.3871551,14.8144666 29.7666456,16.1785617 C28.4944637,16.9026695 26.7865452,16.9881358 24.7630724,17.3858566 Z M33.6245606,12.3389736 C33.6245606,13.068465 32.5731158,14.247832 30.9216648,15.4228248 C25.7797912,11.863862 12.7333589,11.7339802 7.11105776,15.1681083 C6.36369239,13.8861146 5.94395997,12.3867539 5.94395997,11.5341103 C5.94395997,10.415983 8.78545809,9.93515113 10.8928774,8.91090213 C11.7897158,8.47515882 13.6609978,9.79652092 15.3393238,9.45162752 C17.0421089,9.10202351 18.3378441,7.10702581 19.8993092,7.10702581 C22.6097542,7.10702581 24.5269351,8.66459773 26.7116576,9.43244811 C27.9608902,9.87189273 29.7113859,9.30862299 30.3044467,9.72148557 C31.5518674,10.5896073 33.6245606,11.5014716 33.6245606,12.3389736 L33.6245606,12.3389736 Z" id="Shape"></path>
            </g>
        </g>
    </g>
</svg>