<svg height="511pt" viewBox="0 -77 511.99995 511" width="511pt" xmlns="http://www.w3.org/2000/svg"><path d="m116.242188 299.714844h59.25c4.144531 0 7.5-3.359375 7.5-7.5 0-4.144532-3.355469-7.5-7.5-7.5h-59.25c-4.140626 0-7.5 3.355468-7.5 7.5 0 4.140625 3.359374 7.5 7.5 7.5zm0 0"/><path d="m225.925781 299.714844h59.25c4.140625 0 7.5-3.359375 7.5-7.5 0-4.144532-3.359375-7.5-7.5-7.5h-59.25c-4.144531 0-7.5 3.355468-7.5 7.5-.003906 4.140625 3.355469 7.5 7.5 7.5zm0 0"/><path d="m335.605469 299.714844h59.25c4.144531 0 7.5-3.359375 7.5-7.5 0-4.144532-3.359375-7.5-7.5-7.5h-59.25c-4.144531 0-7.5 3.355468-7.5 7.5 0 4.140625 3.355469 7.5 7.5 7.5zm0 0"/><path d="m511.914062 262.128906-27.425781-184.75c-.609375-4.097656-4.425781-6.933594-8.519531-6.320312-4.097656.609375-6.925781 4.425781-6.320312 8.519531l26.148437 176.152344h-479.597656l6.957031-46.851563c.605469-4.097656-2.222656-7.914062-6.320312-8.523437-4.109376-.601563-7.914063 2.222656-8.519532 6.320312-8.734375 58.882813-8.31249975 55.722657-8.31249975 56.554688v75.082031c0 10.914062 8.87890575 19.789062 19.78906275 19.789062h472.410156c10.914063 0 19.792969-8.875 19.792969-19.789062 0-.609375.035156-75.402344-.082032-76.183594zm-19.707031 80.972656h-472.414062c-2.640625 0-4.789063-2.148437-4.789063-4.789062v-38.597656h50.808594c4.144531 0 7.5-3.359375 7.5-7.5 0-4.144532-3.355469-7.5-7.5-7.5h-50.808594v-13.984375h481.992188v13.984375h-51.710938c-4.140625 0-7.5 3.355468-7.5 7.5 0 4.140625 3.359375 7.5 7.5 7.5h51.710938v38.597656c0 2.640625-2.152344 4.789062-4.789063 4.789062zm0 0"/><path d="m120.652344 318.386719h-59.25c-4.140625 0-7.5 3.359375-7.5 7.5 0 4.144531 3.359375 7.5 7.5 7.5h59.25c4.144531 0 7.5-3.355469 7.5-7.5 0-4.140625-3.355469-7.5-7.5-7.5zm0 0"/><path d="m230.332031 318.386719h-59.25c-4.140625 0-7.5 3.359375-7.5 7.5 0 4.144531 3.359375 7.5 7.5 7.5h59.25c4.144531 0 7.5-3.355469 7.5-7.5.003907-4.140625-3.355469-7.5-7.5-7.5zm0 0"/><path d="m340.015625 318.386719h-59.25c-4.144531 0-7.5 3.359375-7.5 7.5 0 4.144531 3.355469 7.5 7.5 7.5h59.25c4.140625 0 7.5-3.355469 7.5-7.5 0-4.140625-3.359375-7.5-7.5-7.5zm0 0"/><path d="m449.695312 318.386719h-59.25c-4.144531 0-7.5 3.359375-7.5 7.5 0 4.144531 3.359376 7.5 7.5 7.5h59.25c4.144532 0 7.5-3.355469 7.5-7.5 0-4.140625-3.355468-7.5-7.5-7.5zm0 0"/><path d="m20.160156 185.539062c3.65625 0 6.859375-2.675781 7.410156-6.402343l23.097657-155.585938c.679687-4.589843 4.691406-8.050781 9.332031-8.050781h392c4.640625 0 8.652344 3.460938 9.332031 8.050781l3.816407 25.703125c.609374 4.097656 4.421874 6.929688 8.519531 6.316406 4.097656-.609374 6.925781-4.421874 6.320312-8.519531l-3.816406-25.703125c-1.761719-11.882812-12.15625-20.847656-24.171875-20.847656h-392c-12.015625 0-22.40625 8.960938-24.171875 20.847656l-23.097656 155.589844c-.667969 4.507812 2.816406 8.601562 7.429687 8.601562zm0 0"/><path d="m400.035156 76.269531c-13.707031-8.558593-35.933594-.527343-49.910156-4.933593-27.03125-8.527344-53.921875-27.691407-92.636719-27.691407-26.09375 0-43.800781 24.167969-61.707031 27.46875-18.253906 3.363281-42.191406-13.390625-60.796875-5.277343-31.597656 13.78125-73.023437 17.257812-73.023437 44.203124 0 24.050782 19.726562 65.722657 48.527343 79.277344 16.808594 7.914063 54.816407 5.089844 74.578125 9.078125 21.007813 4.238281 53.144532 19.386719 79.964844 19.386719 25.136719 0 40.71875-21.988281 57.980469-25.035156 40.992187-7.226563 52.089843-4.609375 81.113281-22.421875 2.878906-1.910157 14.664062-8.855469 25.683594-18.425781 13.613281-11.820313 20.234375-22.457032 20.234375-32.511719-.003907-20.972657-30.054688-30.65625-50.007813-43.117188zm-79.628906 101.703125c-21.566406 3.804688-35.945312 24.804688-55.375 24.804688-23.734375 0-55.03125-14.65625-77-19.089844-20.039062-4.039062-58.390625-1.933594-71.15625-7.945312-5.671875-2.667969-10.832031-6.707032-15.433594-11.527344 30.890625-16.152344 84.0625-26.003906 142.101563-26.003906 57.320312 0 110.808593 9.910156 141.589843 25.746093-16.457031 8.40625-38.550781 9.398438-64.726562 14.015625zm114.632812-58.589844c0 8.46875-13.601562 22.160157-34.964843 35.800782-66.515625-41.316406-235.285157-42.824219-308.015625-2.957032-9.667969-14.882812-15.097656-32.289062-15.097656-42.1875 0-12.980468 36.757812-18.5625 64.019531-30.453124 11.601562-5.058594 35.808593 10.28125 57.519531 6.277343 22.027344-4.058593 38.789062-27.21875 58.988281-27.21875 35.0625 0 59.863281 18.082031 88.125 26.996094 16.160157 5.101563 38.804688-1.4375 46.476563 3.355469 16.136718 10.078125 42.949218 20.664062 42.949218 30.386718zm0 0"/></svg>