<?xml version="1.0" encoding="UTF-8"?>
<svg width="69px" height="69px" viewBox="0 0 69 69" version="1.1" xmlns="http://www.w3.org/2000/svg" xmlns:xlink="http://www.w3.org/1999/xlink">
    <title>puddle</title>
    <defs>
        <rect id="path-1" x="0" y="0" width="60" height="60" rx="30"></rect>
        <filter x="-11.7%" y="-8.3%" width="123.3%" height="123.3%" filterUnits="objectBoundingBox" id="filter-2">
            <feOffset dx="0" dy="2" in="SourceAlpha" result="shadowOffsetOuter1"></feOffset>
            <feGaussianBlur stdDeviation="2" in="shadowOffsetOuter1" result="shadowBlurOuter1"></feGaussianBlur>
            <feColorMatrix values="0 0 0 0 0   0 0 0 0 0   0 0 0 0 0  0 0 0 0.5 0" type="matrix" in="shadowBlurOuter1"></feColorMatrix>
        </filter>
    </defs>
    <g id="Page-1" stroke="none" stroke-width="1" fill="none" fill-rule="evenodd">
        <g id="Tablet-Copy" transform="translate(-684.000000, -95.000000)">
            <g id="puddle" transform="translate(688.215589, 97.185062)">
                <g id="Rectangle-Copy-16">
                    <use fill="black" fill-opacity="1" filter="url(#filter-2)" xlink:href="#path-1"></use>
                    <use fill="#F7BC19" fill-rule="evenodd" xlink:href="#path-1"></use>
                </g>
                <g id="puddle-(1)-copy" transform="translate(11.784411, 12.814938)" fill="#FFFFFF" fill-rule="nonzero">
                    <path d="M29.9920802,24.2788552 C30.2048697,23.8050799 30.3120717,23.3156266 30.3120717,22.8145767 C30.3120717,20.8337646 28.62293,19.0472438 25.5558554,17.7841238 C22.7622104,16.6336007 19.0688437,16 15.1560358,16 C11.243228,16 7.54986125,16.6336007 4.75621627,17.7841238 C1.68914164,19.0472438 0,20.8337646 0,22.8145767 C0,24.7953888 1.68914164,26.5819096 4.75615169,27.8450296 C7.54979667,28.9955527 11.243228,29.6291534 15.1559713,29.6291534 C15.7031534,29.6291534 16.2538229,29.6163907 16.8002947,29.5909948 C17.2728876,30.5058288 18.1803588,31.3112403 19.4313931,31.9101808 C20.8994145,32.6129723 22.7753846,33 24.713674,33 C26.8250365,33 28.8251931,32.5500657 30.3454593,31.7329281 C32.0572683,30.8129761 33,29.5211562 33,28.0954898 C33,26.5646767 31.8964653,25.1885063 29.9920802,24.2788552 L29.9920802,24.2788552 Z M29.4306905,30.0198091 C28.18676,30.6883291 26.5115676,31.0565043 24.7137386,31.0565043 C21.1921534,31.0565043 18.6922806,29.658566 18.3956669,28.3633124 C18.2940188,27.9195328 17.9004067,27.6090814 17.4521603,27.6090814 C17.4305907,27.6090814 17.4087629,27.609794 17.386935,27.6112193 C16.6507932,27.6605857 15.9001855,27.6855929 15.1559713,27.6855929 C11.4896634,27.6855929 8.05758535,27.1036909 5.49190603,26.0470418 C3.26617325,25.1304586 1.93738527,23.9220175 1.93738527,22.8145767 C1.93738527,21.7070711 3.26617325,20.4986948 5.49197061,19.5820468 C8.05764993,18.5254625 11.4897279,17.9435605 15.1560358,17.9435605 C18.8223437,17.9435605 22.2544863,18.5254625 24.8201011,19.5820468 C27.0458984,20.4986948 28.3746864,21.7071359 28.3746864,22.8145767 C28.3746864,23.2384025 28.1853393,23.6760275 27.811876,24.115337 C27.6025092,24.3615213 27.5291469,24.6961376 27.6160063,25.0077552 C27.7029303,25.3193727 27.9387747,25.5671767 28.2450753,25.6686306 C29.9567552,26.2358911 31.0627439,27.1884949 31.0627439,28.0956194 C31.0627439,28.7610297 30.467902,29.4624607 29.4306905,30.0198091 L29.4306905,30.0198091 Z" id="Shape"></path>
                    <path d="M16.5000321,11 C18.9813378,11 21,9.01408604 21,6.57317458 C21,5.17272607 19.9402937,3.42516217 19.3086,2.50797502 C18.8902071,1.90055461 18.4346822,1.33149228 18.0259732,0.905578784 C17.4087732,0.262386942 16.9666517,0 16.5000321,0 C16.0334124,0 15.591291,0.262386942 14.9740268,0.905578784 C14.5652536,1.33149228 14.1097929,1.90055461 13.6914,2.50797502 C13.0597063,3.42509908 12,5.17266298 12,6.57317458 C12,9.01414913 14.0187264,11 16.5000321,11 Z M15.10742,3.83271678 C15.6511896,3.003034 16.173347,2.39643375 16.5000321,2.07606807 C16.8267171,2.39643375 17.3488745,3.00297092 17.8926441,3.83271678 C18.6226512,4.9464891 19.0761239,5.99660467 19.0761239,6.57317458 C19.0761239,7.97046864 17.9204771,9.10733151 16.5000962,9.10733151 C15.0797153,9.10733151 13.9240685,7.97046864 13.9240685,6.57317458 C13.9240044,5.99660467 14.3774129,4.9464891 15.10742,3.83271678 L15.10742,3.83271678 Z" id="Shape"></path>
                    <path d="M27,15 C28.6541996,15 30,13.5273346 30,11.7171981 C30,10.6947069 29.3313257,9.46224497 28.9327556,8.81855581 C27.8066992,7 27.2413686,7 27,7 C26.7586314,7 26.1933008,7 25.0672444,8.81855581 C24.6686743,9.46224497 24,10.6947069 24,11.7171981 C24,13.5273984 25.3458004,15 27,15 Z M27,9.18268794 C27.5105403,9.84308801 28.2513746,11.1406077 28.2513746,11.7172618 C28.2513746,12.4723146 27.6900076,13.0866002 27,13.0866002 C26.3099924,13.0866002 25.7486254,12.4723146 25.7486254,11.7172618 C25.7486837,11.1406077 26.489518,9.84308801 27,9.18268794 Z" id="Shape"></path>
                    <path d="M19.8068552,23.4551305 C18.3255383,23.7824405 16.3951901,23.9628006 14.3713266,23.9628006 C12.4835272,23.9628006 10.6519554,23.8033558 9.21391074,23.5139377 C8.26396083,23.3227125 7.66281911,23.109961 7.30986783,22.9432502 C7.96375166,22.6379419 9.37457032,22.2301625 11.714755,22.0338444 C12.257762,21.988279 12.6622059,21.4968386 12.6180788,20.9360655 C12.5740174,20.3754282 12.0980889,19.9584814 11.5549503,20.0032998 C9.81952436,20.1489596 8.32531792,20.4225555 7.23377977,20.7946839 C6.68123708,20.982989 5,21.556189 5,22.9442009 C5,24.5948078 7.42087617,25.1829472 8.21641401,25.3762095 C9.87193766,25.7784206 12.0578418,26 14.3713266,26 C16.5298075,26 18.6068077,25.8036819 20.2197825,25.4472399 C20.7525305,25.3295577 21.0919345,24.788138 20.9779668,24.2380262 C20.8639334,23.6879145 20.3398004,23.3374483 19.8068552,23.4551305 Z" id="Path"></path>
                </g>
            </g>
        </g>
    </g>
</svg>