<?xml version="1.0"?>
<svg xmlns="http://www.w3.org/2000/svg" xmlns:xlink="http://www.w3.org/1999/xlink" xmlns:svgjs="http://svgjs.com/svgjs" version="1.1" width="512" height="512" x="0" y="0" viewBox="0 0 511 511" style="enable-background:new 0 0 512 512" xml:space="preserve" class=""><g><g xmlns="http://www.w3.org/2000/svg"><path d="m464.421 374.133c3.295-7.313 4.955-14.868 4.955-22.602 0-30.575-26.156-58.151-73.649-77.648-43.259-17.759-100.45-27.539-161.039-27.539s-117.78 9.78-161.039 27.539c-47.493 19.497-73.649 47.073-73.649 77.648s26.156 58.151 73.648 77.648c43.259 17.759 100.451 27.539 161.039 27.539 8.473 0 17-.197 25.462-.589 7.318 14.121 21.37 26.553 40.742 35.798 22.732 10.848 51.781 16.822 81.795 16.822 32.694 0 63.666-6.945 87.207-19.558 26.507-14.2 41.105-34.14 41.105-56.146.002-23.629-17.088-44.871-46.577-58.912zm-8.693 88.615c-19.262 10.319-45.202 16.002-73.041 16.002-54.531 0-93.241-21.578-97.834-41.571-1.574-6.85-7.669-11.642-14.61-11.642-.334 0-.672.011-1.01.033-11.399.762-23.022 1.148-34.546 1.148-56.772 0-109.917-8.982-149.646-25.292-34.465-14.148-55.041-32.801-55.041-49.895 0-17.095 20.576-35.747 55.042-49.896 39.729-16.309 92.874-25.291 149.646-25.291s109.918 8.982 149.646 25.291c34.466 14.149 55.042 32.802 55.042 49.896 0 6.542-2.932 13.297-8.715 20.078-3.242 3.8-4.378 8.965-3.033 13.775 1.346 4.81 4.998 8.635 9.741 10.201 26.505 8.756 43.631 23.46 43.631 37.462 0 10.271-9.211 21.098-25.272 29.701z" fill="#000" data-original="#000000" style=""/><path d="m255 176.607c38.691 0 70.168-31.478 70.168-70.168 0-22.198-16.524-49.898-26.374-64.436-6.524-9.628-13.627-18.648-20-25.399-9.624-10.195-16.518-14.354-23.794-14.354s-14.17 4.159-23.795 14.354c-6.374 6.751-13.476 15.771-20 25.399-9.85 14.537-26.374 42.237-26.374 64.436.001 38.691 31.478 70.168 70.169 70.168zm-21.715-113.606c8.479-13.151 16.621-22.766 21.715-27.844 5.094 5.078 13.236 14.692 21.715 27.844 11.383 17.654 18.454 34.299 18.454 43.438 0 22.148-18.02 40.168-40.168 40.168s-40.168-18.02-40.168-40.168c-.001-9.139 7.069-25.784 18.452-43.438z" fill="#000" data-original="#000000" style=""/><path d="m419.531 240.024c28.38 0 51.469-23.089 51.469-51.469 0-16.031-11.472-35.354-18.31-45.446-19.319-28.512-29.018-28.512-33.159-28.512s-13.84 0-33.159 28.512c-6.838 10.092-18.31 29.415-18.31 45.446.001 28.381 23.089 51.469 51.469 51.469zm0-91.206c8.759 10.354 21.469 30.697 21.469 39.738 0 11.838-9.631 21.469-21.469 21.469s-21.469-9.631-21.469-21.469c.001-9.041 12.711-29.384 21.469-39.738z" fill="#000" data-original="#000000" style=""/><path d="m313.154 360.774c-22.525 4.82-51.878 7.476-82.653 7.476-28.706 0-56.557-2.348-78.424-6.61-14.445-2.816-23.586-5.949-28.953-8.404 9.943-4.496 31.396-10.501 66.981-13.392 8.257-.671 14.407-7.908 13.736-16.166-.67-8.256-7.907-14.396-16.166-13.736-26.389 2.145-49.11 6.174-65.708 11.654-8.402 2.773-33.967 11.214-33.967 31.654 0 24.307 36.812 32.968 48.909 35.814 25.174 5.923 58.413 9.186 93.592 9.186 32.822 0 64.405-2.891 88.932-8.14 8.101-1.733 13.262-9.706 11.529-17.807-1.734-8.101-9.704-13.262-17.808-11.529z" fill="#000" data-original="#000000" style=""/></g></g></svg>
