<svg xmlns="http://www.w3.org/2000/svg" xmlns:xlink="http://www.w3.org/1999/xlink" width="20" height="26" viewBox="0 0 20 26">
    <defs>
        <path id="a" d="M.633 25.597c-.35 0-.633-.337-.633-.751V.816c0-.414.284-.75.633-.75h17.734c.35 0 .633.336.633.75v24.03c0 .414-.284.75-.633.75H.633z"/>
    </defs>
    <g fill="none" fill-rule="evenodd" transform="translate(.349)">
        <mask id="b" fill="#fff">
            <use xlink:href="#a"/>
        </mask>
        <use fill="#FFF" xlink:href="#a"/>
        <g fill="#384A6A" mask="url(#b)">
            <path d="M8.651 6.4v3.2c0 .22.224.4.5.4h1c.276 0 .5-.18.5-.4V6.4c0-.22-.224-.4-.5-.4h-1c-.276 0-.5.18-.5.4zM8.651-.603v2.206c0 .22.224.397.5.397h1c.276 0 .5-.178.5-.397V-.603c0-.22-.224-.397-.5-.397h-1c-.276 0-.5.178-.5.397zM8.651 15.4v3.2c0 .22.224.4.5.4h1c.276 0 .5-.18.5-.4v-3.2c0-.22-.224-.4-.5-.4h-1c-.276 0-.5.18-.5.4zM8.651 24.4v2.2c0 .22.224.4.5.4h1c.276 0 .5-.18.5-.4v-2.2c0-.22-.224-.4-.5-.4h-1c-.276 0-.5.18-.5.4z"/>
        </g>
    </g>
</svg>
