<?xml version="1.0" encoding="UTF-8"?>
<svg width="68px" height="68px" viewBox="0 0 68 68" version="1.1" xmlns="http://www.w3.org/2000/svg" xmlns:xlink="http://www.w3.org/1999/xlink">
    <title>road defect</title>
    <defs>
        <rect id="path-1" x="0" y="0" width="60" height="60" rx="30"></rect>
        <filter x="-11.7%" y="-8.3%" width="123.3%" height="123.3%" filterUnits="objectBoundingBox" id="filter-2">
            <feOffset dx="0" dy="2" in="SourceAlpha" result="shadowOffsetOuter1"></feOffset>
            <feGaussianBlur stdDeviation="2" in="shadowOffsetOuter1" result="shadowBlurOuter1"></feGaussianBlur>
            <feColorMatrix values="0 0 0 0 0   0 0 0 0 0   0 0 0 0 0  0 0 0 0.5 0" type="matrix" in="shadowBlurOuter1"></feColorMatrix>
        </filter>
    </defs>
    <g id="Page-1" stroke="none" stroke-width="1" fill="none" fill-rule="evenodd">
        <g id="Tablet-Copy" transform="translate(-259.000000, -79.000000)">
            <g id="road-defect" transform="translate(263.000000, 81.000000)">
                <g id="Rectangle">
                    <use fill="black" fill-opacity="1" filter="url(#filter-2)" xlink:href="#path-1"></use>
                    <use fill="#D5001A" fill-rule="evenodd" xlink:href="#path-1"></use>
                </g>
                <g id="terrain" transform="translate(12.784411, 15.814938)" fill="#FFFFFF" fill-rule="nonzero">
                    <path d="M32.7537792,1.96391513 L27.5074827,0.615707392 C23.6706165,-0.370867578 19.5314659,-0.166518161 15.8631052,1.19058172 L14.7132348,1.61417631 C11.3991116,2.83398601 7.67244047,3.04824706 4.18680397,2.21929526 C3.17611294,1.97614891 2.08633029,2.13864295 1.241342,2.65846527 C0.456031313,3.14277565 -0.00477817248,3.90750011 3.73716937e-05,4.71861097 C0.00923546712,5.76930001 0.774995422,6.71379304 1.9455103,7.1181874 C2.26563652,7.23157641 2.59027444,7.33301482 2.91675807,7.42878945 L2.91675807,27.6128254 C2.88524447,28.3501938 3.57874873,28.9700952 4.46851231,29 L30.5316261,29 C31.4213897,28.9700952 32.1148939,28.3501938 32.0833803,27.6128254 L32.0833803,7.12118921 C32.6751661,7.07746478 33.2410437,6.89973515 33.7191481,6.60748377 C34.5248298,6.1237964 35.0012935,5.34899041 34.9999974,4.52462628 L34.9999974,4.45099706 C34.9943893,3.30249443 34.0821355,2.29235811 32.7537792,1.96391513 Z M30.9166936,27.6128254 C30.9166936,27.8407928 30.7403268,28.0333616 30.5315577,28.0333616 L4.46844395,28.0333616 C4.2596749,28.0333616 4.08337647,27.8407928 4.08337647,27.6128254 L4.08337647,22.3826584 C4.92665578,22.8969302 6.3907735,23.45453 8.95964454,23.8332108 C11.4493556,24.200394 13.3468708,23.8433489 15.1826575,23.4988208 C17.4231309,23.0775484 19.5402842,22.6794408 22.8534504,23.4254181 C28.634316,24.7266731 30.7334909,26.3253335 30.9166936,26.4720822 L30.9166936,27.6128254 L30.9166936,27.6128254 Z M30.9166936,25.2382829 C29.7828876,24.5719384 27.4217602,23.4521512 23.1592896,22.4927624 C19.566124,21.6838038 17.2063638,22.1272216 14.9242597,22.5560269 C13.1232678,22.8948913 11.4220119,23.2144421 9.16417532,22.8816946 C4.65704703,22.2171626 4.12493888,21.0371693 4.09957761,20.9729986 C4.09670652,20.9611046 4.08727295,20.9520426 4.08337647,20.9405451 L4.08337647,17.2645211 C4.92665578,17.7787929 6.3907735,18.3363927 8.95964454,18.7150735 C11.4501759,19.0822567 13.3471442,18.7252116 15.1826575,18.3806835 C17.4240196,17.9594677 19.5402842,17.5620398 22.8534504,18.3070543 C28.6307613,19.6077428 30.7309616,21.2050439 30.9166936,21.3534918 L30.9166936,25.2382829 L30.9166936,25.2382829 Z M30.9166252,20.1199757 C29.7829559,19.4536879 27.4218969,18.3339006 23.1592896,17.3743419 C19.566124,16.5651567 17.2063638,17.0094808 14.9245331,17.437833 C13.1229943,17.7766973 11.4211232,18.0960216 9.16410696,17.7635007 C4.65697867,17.0989686 4.12487052,15.9189753 4.09950925,15.8548046 C4.09663816,15.8429107 4.08720459,15.8339053 4.08330811,15.8223511 L4.08330811,11.6959428 C4.92658742,12.210158 6.39070514,12.7677578 8.95957618,13.1465518 C11.4495607,13.5130555 13.3474176,13.15669 15.1825892,12.8119353 C17.4230625,12.3909461 19.5402159,11.9930651 22.8533821,12.7385327 C28.6342477,14.0397876 30.7334225,15.638448 30.9166252,15.7851967 L30.9166252,20.1199757 Z M4.08337647,10.2538295 L4.08337647,7.73061263 C5.50435953,8.05225907 6.9707331,8.21577259 8.44387424,8.21673543 C10.7673357,8.21781155 13.0650941,7.81375702 15.1877845,7.03085181 L16.3373815,6.60748377 C19.7489166,5.3492736 23.5960366,5.16100934 27.1626104,6.07769318 L30.8087544,7.01221795 C30.8445062,7.02139329 30.880805,7.02620751 30.9166936,7.03436336 L30.9166936,14.5514541 C29.7829559,13.8851096 27.4218286,12.7653224 23.1593579,11.8059336 C19.5661924,10.9966918 17.2064322,11.4406193 14.9243281,11.8694246 C13.1230627,12.208289 11.4211916,12.5278398 9.16424368,12.1950923 C4.65766226,11.5302771 4.12534903,10.3507935 4.09971433,10.2863963 C4.09670652,10.2744457 4.08727295,10.2653836 4.08337647,10.2538295 Z M33.8333763,4.52468292 C33.8327611,5.04172999 33.5327325,5.52717313 33.0266692,5.82973261 C32.4888189,6.16066765 31.7916916,6.25700866 31.1533532,6.08862429 L27.507551,5.15432607 C23.6710267,4.16837411 19.5328331,4.37102439 15.8631052,5.72449946 L14.7132348,6.14809405 C10.8015153,7.58907461 6.34299041,7.6185263 2.40399558,6.2295393 C1.65976877,5.97461227 1.17229919,5.37510047 1.16669373,4.70784978 C1.16669373,4.20416924 1.45469112,3.73028023 1.94311773,3.43043937 C2.31519695,3.19799757 2.76882872,3.07277125 3.23483351,3.07384737 C3.44797755,3.07413056 3.6600962,3.0991645 3.86490041,3.14821289 C7.61413006,4.04099556 11.6232614,3.81053608 15.1877845,2.49733054 L16.3382018,2.07373595 C19.7476861,0.811164665 23.5956265,0.621031352 27.1620635,1.53896123 L32.4080866,2.88716897 C33.2470593,3.09146175 33.8258568,3.72659877 33.8333763,4.45111034 L33.8333763,4.52468292 L33.8333763,4.52468292 Z" id="Shape"></path>
                </g>
            </g>
        </g>
    </g>
</svg>