<svg id="Capa_1" enable-background="new 0 0 512 512" height="512" viewBox="0 0 512 512" width="512" xmlns="http://www.w3.org/2000/svg"><g><path d="m512 215.254c0-8.447-6.872-15.318-15.318-15.318h-9.013v-22.771h9.013c8.447 0 15.318-6.872 15.318-15.318v-61.643c0-8.447-6.872-15.318-15.318-15.318h-5.229l-6.49-26.497c5.117-5.496 8.257-12.856 8.257-20.94 0-16.961-13.799-30.76-30.76-30.76s-30.76 13.799-30.76 30.76c0 8.083 3.139 15.443 8.255 20.938l-6.49 26.499h-354.93l-6.49-26.497c5.117-5.496 8.256-12.856 8.256-20.94 0-16.961-13.799-30.76-30.76-30.76s-30.76 13.799-30.76 30.76c0 8.084 3.139 15.444 8.256 20.94l-6.49 26.497h-5.229c-8.446-.001-15.318 6.871-15.318 15.317v61.643c0 8.447 6.872 15.318 15.318 15.318h9.013v22.771h-9.013c-8.446.001-15.318 6.873-15.318 15.319v61.643c0 8.447 6.872 15.318 15.318 15.318h9.013v111.798c0 6.812 5.542 12.353 12.353 12.353h25.713c6.812 0 12.353-5.542 12.353-12.353v-31.923h198.317l-21.114 86.197h-13.681c-6.266 0-11.365 5.098-11.365 11.365v24.295c0 6.267 5.099 11.365 11.365 11.365h100.25c4.094 0 7.412-3.319 7.412-7.412s-3.318-7.412-7.412-7.412h-96.791v-17.377h183.699v17.377h-50.926c-4.094 0-7.412 3.319-7.412 7.412s3.318 7.412 7.412 7.412h54.385c6.266 0 11.365-5.098 11.365-11.365v-24.295c0-6.267-5.099-11.365-11.365-11.365h-13.68l-21.113-86.197h43.151v31.924c0 6.812 5.542 12.353 12.353 12.353h25.713c6.812 0 12.353-5.542 12.353-12.353v-111.798h9.013c8.447 0 15.318-6.872 15.318-15.318v-61.644zm-15.098-.436-62.574 62.574h-41.928l62.631-62.632h41.65c.081 0 .154.024.221.058zm-293.182 62.574 62.632-62.632h41.929l-62.632 62.632zm-62.893 0 62.632-62.632h41.927l-62.632 62.632zm-62.894 0 62.632-62.632h41.929l-62.632 62.632zm-3.181-77.456v-22.771h362.497v22.771zm107.742-100.227-4.333 4.333c-2.894 2.894-2.894 7.588 0 10.482 2.896 2.895 7.587 2.895 10.483 0l14.815-14.815h41.927l-62.632 62.632h-41.927l24.359-24.359c2.894-2.894 2.894-7.588 0-10.482-2.895-2.894-7.588-2.894-10.483 0l-34.841 34.841h-41.929l62.632-62.632zm125.786 0-62.632 62.632h-41.928l62.632-62.632zm62.893 0-62.632 62.632h-41.927l62.632-62.632zm62.894 0-62.632 62.632h-41.929l62.632-62.632zm-116.254 152.018c.271-1.109 1.258-1.883 2.398-1.883h26.741c1.141 0 2.128.775 2.4 1.883l9.015 36.804h-49.57zm53.088 25.665-7.151-29.193c-.319-1.3-.789-2.527-1.37-3.681l29.757-29.758h41.929l-62.631 62.632zm-41.655-62.632h41.927l-20.644 20.644c-1.159-.243-2.352-.385-3.576-.385h-26.741c-7.989 0-14.896 5.42-16.797 13.18l-7.151 29.192h-29.651zm-24.079 88.595h56.832l10.424 42.557h-77.681zm-14.056 57.381h84.943l10.424 42.557h-105.791zm83.421-68.52h62.716v29.454h-55.501zm98.313-92.28h-20.772v-22.771h20.772zm23.837-37.595h-41.389l41.883-41.883v41.389c0 .272-.222.494-.494.494zm.22-62.574-62.574 62.574h-41.928l62.632-62.632h41.65c.08 0 .153.024.22.058zm-34.443-78.255c8.787 0 15.936 7.149 15.936 15.936s-7.149 15.936-15.936 15.936-15.936-7.149-15.936-15.936 7.149-15.936 15.936-15.936zm-9.295 45.257c5.814 1.906 12.776 1.906 18.59 0l4.437 18.116h-27.465zm-403.623-45.257c8.787 0 15.936 7.149 15.936 15.936s-7.149 15.936-15.936 15.936-15.936-7.149-15.936-15.936 7.149-15.936 15.936-15.936zm-9.295 45.257c5.814 1.906 12.776 1.906 18.591 0l4.437 18.116h-27.466zm-24.928 32.94h41.389l-41.883 41.883v-41.389c0-.272.222-.494.494-.494zm-.22 62.574 62.574-62.574h41.928l-62.632 62.632h-41.65c-.08 0-.153-.024-.22-.058zm24.057 14.882h20.772v22.771h-20.772zm-23.837 37.595h41.389l-41.883 41.883v-41.389c0-.272.222-.494.494-.494zm-.22 62.574 62.574-62.574h41.928l-62.632 62.632h-41.65c-.08 0-.153-.024-.22-.058zm24.057 124.21v-109.328h20.772v109.328zm35.597-44.278v-20.772h178.666c4.094 0 7.412-3.319 7.412-7.412s-3.318-7.412-7.412-7.412h-178.666v-29.454h217.882l-15.934 65.05zm192.464 101.021 9.84-40.169h113.054l9.839 40.169zm123.25-101.021-5.088-20.772h51.871v20.772zm82.379 44.278h-20.772v-109.328h20.772zm23.837-124.152h-41.389l41.883-41.883v41.389c0 .272-.222.494-.494.494z"/></g></svg>