<?xml version="1.0" encoding="UTF-8"?>
<svg width="40px" height="40px" viewBox="0 0 40 40" version="1.1" xmlns="http://www.w3.org/2000/svg" xmlns:xlink="http://www.w3.org/1999/xlink">
    <title>AA Icon / red Copy 3</title>
    <defs>
        <circle id="path-1" cx="20" cy="20" r="20"></circle>
        <filter x="-17.5%" y="-12.5%" width="135.0%" height="135.0%" filterUnits="objectBoundingBox" id="filter-2">
            <feOffset dx="0" dy="2" in="SourceAlpha" result="shadowOffsetOuter1"></feOffset>
            <feGaussianBlur stdDeviation="2" in="shadowOffsetOuter1" result="shadowBlurOuter1"></feGaussianBlur>
            <feColorMatrix values="0 0 0 0 0   0 0 0 0 0   0 0 0 0 0  0 0 0 0.5 0" type="matrix" in="shadowBlurOuter1"></feColorMatrix>
        </filter>
    </defs>
    <g id="AA-Icon-/-red-Copy-3" stroke="none" stroke-width="1" fill="none" fill-rule="evenodd">
        <g id="SD1+2" fill-rule="nonzero">
            <g id="Oval">
                <use fill="black" fill-opacity="1" filter="url(#filter-2)" xlink:href="#path-1"></use>
                <use fill="#F69248" xlink:href="#path-1"></use>
            </g>
            <path d="M14.08,27.18 C14.7066667,27.18 15.28,27.0966667 15.8,26.93 C16.32,26.7633333 16.7666667,26.53 17.14,26.23 C17.5133333,25.93 17.8033333,25.5633333 18.01,25.13 C18.2166667,24.6966667 18.32,24.2066667 18.32,23.66 C18.32,22.9 18.0833333,22.2233333 17.61,21.63 C17.1366667,21.0366667 16.3866667,20.5666667 15.36,20.22 L15.36,20.22 L14.02,19.78 C13.2333333,19.5266667 12.6533333,19.23 12.28,18.89 C11.9066667,18.55 11.72,18.0866667 11.72,17.5 C11.72,16.8333333 11.9666667,16.3166667 12.46,15.95 C12.9533333,15.5833333 13.6066667,15.4 14.42,15.4 C14.9,15.4 15.37,15.4533333 15.83,15.56 C16.29,15.6666667 16.8066667,15.8533333 17.38,16.12 L17.38,16.12 L17.74,14.94 C17.1933333,14.6866667 16.6433333,14.5066667 16.09,14.4 C15.5366667,14.2933333 14.96,14.24 14.36,14.24 C13.0266667,14.24 12.0066667,14.55 11.3,15.17 C10.5933333,15.79 10.24,16.6266667 10.24,17.68 C10.24,18.5333333 10.5,19.2166667 11.02,19.73 C11.54,20.2433333 12.22,20.6333333 13.06,20.9 L13.06,20.9 L14.36,21.32 C14.8533333,21.48 15.26,21.65 15.58,21.83 C15.9,22.01 16.1533333,22.2 16.34,22.4 C16.5266667,22.6 16.6566667,22.8166667 16.73,23.05 C16.8033333,23.2833333 16.84,23.5333333 16.84,23.8 C16.84,24.5466667 16.57,25.1 16.03,25.46 C15.49,25.82 14.8133333,26 14,26 C13.4,26 12.83,25.9366667 12.29,25.81 C11.75,25.6833333 11.2,25.48 10.64,25.2 L10.64,25.2 L10.26,26.38 C10.9,26.6733333 11.5366667,26.88 12.17,27 C12.8033333,27.12 13.44,27.18 14.08,27.18 Z M24.02,27 C24.9266667,27 25.7866667,26.8866667 26.6,26.66 C27.4133333,26.4333333 28.1266667,26.06 28.74,25.54 C29.3533333,25.02 29.84,24.34 30.2,23.5 C30.56,22.66 30.74,21.6333333 30.74,20.42 C30.74,19.42 30.5866667,18.5433333 30.28,17.79 C29.9733333,17.0366667 29.5533333,16.41 29.02,15.91 C28.4866667,15.41 27.85,15.0333333 27.11,14.78 C26.37,14.5266667 25.5733333,14.4 24.72,14.4 L24.72,14.4 L20.82,14.4 L20.82,27 L24.02,27 Z M23.84,25.82 L22.26,25.82 L22.26,15.58 L24.36,15.58 C25.08,15.58 25.74,15.6866667 26.34,15.9 C26.94,16.1133333 27.45,16.4266667 27.87,16.84 C28.29,17.2533333 28.6166667,17.76 28.85,18.36 C29.0833333,18.96 29.2,19.6466667 29.2,20.42 C29.2,21.5 29.0466667,22.39 28.74,23.09 C28.4333333,23.79 28.0266667,24.3433333 27.52,24.75 C27.0133333,25.1566667 26.44,25.4366667 25.8,25.59 C25.16,25.7433333 24.5066667,25.82 23.84,25.82 L23.84,25.82 Z" id="SD" fill="#FFFFFF"></path>
        </g>
    </g>
</svg>