<?xml version="1.0" encoding="UTF-8"?>
<svg width="44px" height="45px" viewBox="0 0 44 45" version="1.1" xmlns="http://www.w3.org/2000/svg" xmlns:xlink="http://www.w3.org/1999/xlink">
    <title>AA Icon / 3 + 4 selected Copy 5</title>
    <defs>
        <circle id="path-1" cx="20" cy="20" r="20"></circle>
        <filter x="-21.2%" y="-16.2%" width="142.5%" height="142.5%" filterUnits="objectBoundingBox" id="filter-2">
            <feMorphology radius="1.5" operator="dilate" in="SourceAlpha" result="shadowSpreadOuter1"></feMorphology>
            <feOffset dx="0" dy="2" in="shadowSpreadOuter1" result="shadowOffsetOuter1"></feOffset>
            <feGaussianBlur stdDeviation="2" in="shadowOffsetOuter1" result="shadowBlurOuter1"></feGaussianBlur>
            <feComposite in="shadowBlurOuter1" in2="SourceAlpha" operator="out" result="shadowBlurOuter1"></feComposite>
            <feColorMatrix values="0 0 0 0 0   0 0 0 0 0   0 0 0 0 0  0 0 0 0.5 0" type="matrix" in="shadowBlurOuter1"></feColorMatrix>
        </filter>
    </defs>
    <g id="AA-Icon-/-3-+-4-selected-Copy-5" stroke="none" stroke-width="1" fill="none" fill-rule="evenodd">
        <g id="SD1+2Selected" transform="translate(2.000000, 2.000000)" fill-rule="nonzero">
            <g id="Oval">
                <use fill="black" fill-opacity="1" filter="url(#filter-2)" xlink:href="#path-1"></use>
                <use stroke="#0F2365" stroke-width="3" fill="#F69248" xlink:href="#path-1"></use>
            </g>
            <path d="M14.58,26.18 C15.2066667,26.18 15.78,26.0966667 16.3,25.93 C16.82,25.7633333 17.2666667,25.53 17.64,25.23 C18.0133333,24.93 18.3033333,24.5633333 18.51,24.13 C18.7166667,23.6966667 18.82,23.2066667 18.82,22.66 C18.82,21.9 18.5833333,21.2233333 18.11,20.63 C17.6366667,20.0366667 16.8866667,19.5666667 15.86,19.22 L15.86,19.22 L14.52,18.78 C13.7333333,18.5266667 13.1533333,18.23 12.78,17.89 C12.4066667,17.55 12.22,17.0866667 12.22,16.5 C12.22,15.8333333 12.4666667,15.3166667 12.96,14.95 C13.4533333,14.5833333 14.1066667,14.4 14.92,14.4 C15.4,14.4 15.87,14.4533333 16.33,14.56 C16.79,14.6666667 17.3066667,14.8533333 17.88,15.12 L17.88,15.12 L18.24,13.94 C17.6933333,13.6866667 17.1433333,13.5066667 16.59,13.4 C16.0366667,13.2933333 15.46,13.24 14.86,13.24 C13.5266667,13.24 12.5066667,13.55 11.8,14.17 C11.0933333,14.79 10.74,15.6266667 10.74,16.68 C10.74,17.5333333 11,18.2166667 11.52,18.73 C12.04,19.2433333 12.72,19.6333333 13.56,19.9 L13.56,19.9 L14.86,20.32 C15.3533333,20.48 15.76,20.65 16.08,20.83 C16.4,21.01 16.6533333,21.2 16.84,21.4 C17.0266667,21.6 17.1566667,21.8166667 17.23,22.05 C17.3033333,22.2833333 17.34,22.5333333 17.34,22.8 C17.34,23.5466667 17.07,24.1 16.53,24.46 C15.99,24.82 15.3133333,25 14.5,25 C13.9,25 13.33,24.9366667 12.79,24.81 C12.25,24.6833333 11.7,24.48 11.14,24.2 L11.14,24.2 L10.76,25.38 C11.4,25.6733333 12.0366667,25.88 12.67,26 C13.3033333,26.12 13.94,26.18 14.58,26.18 Z M24.52,26 C25.4266667,26 26.2866667,25.8866667 27.1,25.66 C27.9133333,25.4333333 28.6266667,25.06 29.24,24.54 C29.8533333,24.02 30.34,23.34 30.7,22.5 C31.06,21.66 31.24,20.6333333 31.24,19.42 C31.24,18.42 31.0866667,17.5433333 30.78,16.79 C30.4733333,16.0366667 30.0533333,15.41 29.52,14.91 C28.9866667,14.41 28.35,14.0333333 27.61,13.78 C26.87,13.5266667 26.0733333,13.4 25.22,13.4 L25.22,13.4 L21.32,13.4 L21.32,26 L24.52,26 Z M24.34,24.82 L22.76,24.82 L22.76,14.58 L24.86,14.58 C25.58,14.58 26.24,14.6866667 26.84,14.9 C27.44,15.1133333 27.95,15.4266667 28.37,15.84 C28.79,16.2533333 29.1166667,16.76 29.35,17.36 C29.5833333,17.96 29.7,18.6466667 29.7,19.42 C29.7,20.5 29.5466667,21.39 29.24,22.09 C28.9333333,22.79 28.5266667,23.3433333 28.02,23.75 C27.5133333,24.1566667 26.94,24.4366667 26.3,24.59 C25.66,24.7433333 25.0066667,24.82 24.34,24.82 L24.34,24.82 Z" id="SD" fill="#FFFFFF"></path>
        </g>
    </g>
</svg>