<?xml version="1.0" encoding="UTF-8"?>
<svg width="44px" height="45px" viewBox="0 0 44 45" version="1.1" xmlns="http://www.w3.org/2000/svg" xmlns:xlink="http://www.w3.org/1999/xlink">
    <title>AA Icon / 3 + 4 selected Copy 4</title>
    <defs>
        <circle id="path-1" cx="20" cy="20" r="20"></circle>
        <filter x="-21.2%" y="-16.2%" width="142.5%" height="142.5%" filterUnits="objectBoundingBox" id="filter-2">
            <feMorphology radius="1.5" operator="dilate" in="SourceAlpha" result="shadowSpreadOuter1"></feMorphology>
            <feOffset dx="0" dy="2" in="shadowSpreadOuter1" result="shadowOffsetOuter1"></feOffset>
            <feGaussianBlur stdDeviation="2" in="shadowOffsetOuter1" result="shadowBlurOuter1"></feGaussianBlur>
            <feComposite in="shadowBlurOuter1" in2="SourceAlpha" operator="out" result="shadowBlurOuter1"></feComposite>
            <feColorMatrix values="0 0 0 0 0   0 0 0 0 0   0 0 0 0 0  0 0 0 0.5 0" type="matrix" in="shadowBlurOuter1"></feColorMatrix>
        </filter>
    </defs>
    <g id="AA-Icon-/-3-+-4-selected-Copy-4" stroke="none" stroke-width="1" fill="none" fill-rule="evenodd">
        <g id="SD3+4Selected" transform="translate(2.000000, 2.000000)" fill-rule="nonzero">
            <g id="Oval">
                <use fill="black" fill-opacity="1" filter="url(#filter-2)" xlink:href="#path-1"></use>
                <use stroke="#0F2365" stroke-width="3" fill="#FF6665" xlink:href="#path-1"></use>
            </g>
            <path d="M13.58,26.18 C14.2066667,26.18 14.78,26.0966667 15.3,25.93 C15.82,25.7633333 16.2666667,25.53 16.64,25.23 C17.0133333,24.93 17.3033333,24.5633333 17.51,24.13 C17.7166667,23.6966667 17.82,23.2066667 17.82,22.66 C17.82,21.9 17.5833333,21.2233333 17.11,20.63 C16.6366667,20.0366667 15.8866667,19.5666667 14.86,19.22 L14.86,19.22 L13.52,18.78 C12.7333333,18.5266667 12.1533333,18.23 11.78,17.89 C11.4066667,17.55 11.22,17.0866667 11.22,16.5 C11.22,15.8333333 11.4666667,15.3166667 11.96,14.95 C12.4533333,14.5833333 13.1066667,14.4 13.92,14.4 C14.4,14.4 14.87,14.4533333 15.33,14.56 C15.79,14.6666667 16.3066667,14.8533333 16.88,15.12 L16.88,15.12 L17.24,13.94 C16.6933333,13.6866667 16.1433333,13.5066667 15.59,13.4 C15.0366667,13.2933333 14.46,13.24 13.86,13.24 C12.5266667,13.24 11.5066667,13.55 10.8,14.17 C10.0933333,14.79 9.74,15.6266667 9.74,16.68 C9.74,17.5333333 10,18.2166667 10.52,18.73 C11.04,19.2433333 11.72,19.6333333 12.56,19.9 L12.56,19.9 L13.86,20.32 C14.3533333,20.48 14.76,20.65 15.08,20.83 C15.4,21.01 15.6533333,21.2 15.84,21.4 C16.0266667,21.6 16.1566667,21.8166667 16.23,22.05 C16.3033333,22.2833333 16.34,22.5333333 16.34,22.8 C16.34,23.5466667 16.07,24.1 15.53,24.46 C14.99,24.82 14.3133333,25 13.5,25 C12.9,25 12.33,24.9366667 11.79,24.81 C11.25,24.6833333 10.7,24.48 10.14,24.2 L10.14,24.2 L9.76,25.38 C10.4,25.6733333 11.0366667,25.88 11.67,26 C12.3033333,26.12 12.94,26.18 13.58,26.18 Z M23.52,26 C24.4266667,26 25.2866667,25.8866667 26.1,25.66 C26.9133333,25.4333333 27.6266667,25.06 28.24,24.54 C28.8533333,24.02 29.34,23.34 29.7,22.5 C30.06,21.66 30.24,20.6333333 30.24,19.42 C30.24,18.42 30.0866667,17.5433333 29.78,16.79 C29.4733333,16.0366667 29.0533333,15.41 28.52,14.91 C27.9866667,14.41 27.35,14.0333333 26.61,13.78 C25.87,13.5266667 25.0733333,13.4 24.22,13.4 L24.22,13.4 L20.32,13.4 L20.32,26 L23.52,26 Z M23.34,24.82 L21.76,24.82 L21.76,14.58 L23.86,14.58 C24.58,14.58 25.24,14.6866667 25.84,14.9 C26.44,15.1133333 26.95,15.4266667 27.37,15.84 C27.79,16.2533333 28.1166667,16.76 28.35,17.36 C28.5833333,17.96 28.7,18.6466667 28.7,19.42 C28.7,20.5 28.5466667,21.39 28.24,22.09 C27.9333333,22.79 27.5266667,23.3433333 27.02,23.75 C26.5133333,24.1566667 25.94,24.4366667 25.3,24.59 C24.66,24.7433333 24.0066667,24.82 23.34,24.82 L23.34,24.82 Z" id="SD" fill="#FFFFFF"></path>
        </g>
    </g>
</svg>