<?xml version="1.0"?>
<svg xmlns="http://www.w3.org/2000/svg" xmlns:xlink="http://www.w3.org/1999/xlink" xmlns:svgjs="http://svgjs.com/svgjs" version="1.1" width="512" height="512" x="0" y="0" viewBox="0 0 512 512" style="enable-background:new 0 0 512 512" xml:space="preserve" class=""><g><g xmlns="http://www.w3.org/2000/svg"><g><path d="m494.276 338.589h-4.971c-2.817-10.912-10.157-20.305-20.204-25.583-4.822-2.533-10.004-4.04-15.399-4.478-3.636-.295-7.173-1.922-9.961-4.581-3.836-3.659-8.133-6.813-12.771-9.375-1.462-.808-2.411-2.245-2.538-3.845-2.418-30.278-19.059-45.758-32.43-58.196-2.451-2.281-4.767-4.435-6.857-6.555-4.162-4.222-6.45-9.884-6.442-15.952v-.123c0-7.32-1.279-14.5-3.801-21.339-1.434-3.886-5.744-5.875-9.632-4.442-3.887 1.433-5.875 5.745-4.442 9.631 1.908 5.173 2.875 10.606 2.875 16.149v.113c-.013 10.031 3.809 19.439 10.761 26.492 2.318 2.351 4.749 4.612 7.322 7.006 12.655 11.772 25.74 23.945 27.693 48.407.529 6.632 4.356 12.531 10.236 15.78 3.513 1.941 6.768 4.33 9.674 7.102 5.266 5.022 12.049 8.104 19.098 8.677 3.372.273 6.614 1.218 9.638 2.806 5.206 2.735 9.163 7.063 11.404 12.304h-71.034c-4.143 0-7.5 3.358-7.5 7.5s3.357 7.5 7.5 7.5h91.781c1.502 0 2.724 1.222 2.724 2.724v8.096c-17.54.927-34.572 6.144-49.569 15.255-14.256 8.661-30.658 13.239-47.435 13.239-16.775 0-33.178-4.578-47.436-13.239-3.541-2.15-8.153-1.025-10.304 2.516-2.15 3.54-1.023 8.153 2.517 10.304 16.604 10.087 35.7 15.419 55.223 15.419s38.619-5.332 55.223-15.419c12.651-7.685 26.991-12.147 41.781-13.057v40.213c0 1.501-1.222 2.723-2.724 2.723h-308.648c8.141-15.675 26.036-24.287 43.927-20.069 4.033.95 8.071-1.548 9.021-5.58s-1.548-8.07-5.579-9.021c-27.235-6.414-54.475 8.692-63.675 34.669h-151.598c-1.502 0-2.724-1.222-2.724-2.723v-63.327c0-1.502 1.222-2.724 2.724-2.724h16.704c10.794 22.582 40.949 37.634 75.844 37.634 34.851 0 65.044-15.063 75.84-37.634h183.394c4.143 0 7.5-3.358 7.5-7.5s-3.357-7.5-7.5-7.5h-242.01c-4.143 0-7.5 3.358-7.5 7.5s3.357 7.5 7.5 7.5h41.004c-10.842 13.634-33.279 22.634-58.229 22.634-24.985 0-47.405-8.996-58.237-22.634h42.47c4.143 0 7.5-3.358 7.5-7.5s-3.357-7.5-7.5-7.5h-56.02c.252-.581.518-1.158.815-1.724 2.723-5.184 7.002-9.136 12.374-11.43 13.379-5.713 24.338-13.714 32.572-23.782 6.704-8.197 15.348-14.769 24.996-19.004 7.277-3.194 11.976-10.345 11.97-18.269l-.001-.071c0-23.386 11.884-44.714 31.79-57.053 11.434-7.087 20.021-17.165 24.831-29.141.124-.309.25-.616.383-.933 5.23-12.482 13.971-22.958 25.275-30.293 16.433-10.662 28.946-25.271 36.189-42.248.565-1.325 1.254-2.62 2.047-3.849 6.463-10.014 21.506-14.187 32.19-8.931 5.887 2.896 10.356 7.862 12.585 13.981 2.982 8.191 9.46 14.644 17.772 17.706 4.604 1.695 8.588 4.689 11.519 8.659 2.471 3.346 4.084 7.273 4.667 11.359 1.468 10.288 8.398 19.121 18.088 23.051 3.162 1.283 6.194 2.922 9.012 4.874 3.406 2.36 8.079 1.509 10.437-1.896s1.51-8.077-1.896-10.436c-3.723-2.579-7.731-4.746-11.914-6.443-4.76-1.93-8.161-6.248-8.877-11.268-.932-6.537-3.508-12.813-7.45-18.151-4.676-6.333-11.039-11.114-18.401-13.825-4.162-1.533-7.392-4.726-8.861-8.762-3.56-9.773-10.684-17.696-20.059-22.308-17.367-8.545-40.913-2.017-51.415 14.257-1.253 1.941-2.343 3.992-3.24 6.096-6.068 14.224-16.635 26.517-30.557 35.55-13.845 8.983-24.546 21.805-30.942 37.071-.159.379-.314.759-.47 1.143-3.611 8.993-10.118 16.595-18.815 21.987-24.351 15.094-38.888 41.188-38.888 69.859l.001.077c.002 1.916-1.176 3.67-2.999 4.471-11.808 5.183-22.381 13.221-30.578 23.243-6.687 8.175-15.721 14.73-26.852 19.483-8.46 3.613-15.479 10.094-19.763 18.249-1.46 2.779-2.573 5.694-3.345 8.7h-4.95c-9.773.004-17.724 7.954-17.724 17.727v63.327c0 9.772 7.951 17.723 17.724 17.723h476.553c9.772 0 17.724-7.951 17.724-17.723v-63.327c-.001-9.773-7.952-17.723-17.725-17.723z" fill="#000" data-original="#000000" style=""/><path d="m288.1 376.222c-.013 0-.024 0-.036 0-4.126 0-7.479 3.335-7.499 7.465-.02 4.142 3.323 7.516 7.465 7.535h.105.036c4.126 0 7.479-3.335 7.499-7.465.02-4.142-3.323-7.516-7.465-7.535z" fill="#000" data-original="#000000" style=""/><path d="m165.333 236.595h.106c4.143 0 7.5-3.358 7.5-7.5s-3.357-7.5-7.5-7.5h-.106c-4.143 0-7.5 3.358-7.5 7.5s3.357 7.5 7.5 7.5z" fill="#000" data-original="#000000" style=""/><path d="m152.474 275.262h-.106c-.012 0-.023 0-.035 0-4.126 0-7.48 3.335-7.499 7.466-.019 4.142 3.323 7.515 7.466 7.534h.106.035c4.126 0 7.48-3.335 7.499-7.466.018-4.142-3.324-7.515-7.466-7.534z" fill="#000" data-original="#000000" style=""/><path d="m181.095 253.823h.036c4.126 0 7.479-3.335 7.499-7.465.02-4.142-3.323-7.516-7.465-7.535h-.105c-.013 0-.024 0-.036 0-4.126 0-7.479 3.335-7.499 7.465-.02 4.142 3.323 7.516 7.465 7.535z" fill="#000" data-original="#000000" style=""/><path d="m307.667 282.783c-4.143 0-7.5 3.358-7.5 7.5s3.357 7.5 7.5 7.5h.105c4.143 0 7.5-3.358 7.5-7.5s-3.357-7.5-7.5-7.5z" fill="#000" data-original="#000000" style=""/><path d="m341.07 212.596h.036c4.126 0 7.479-3.335 7.499-7.465.02-4.142-3.323-7.516-7.465-7.535h-.105c-.013 0-.024 0-.036 0-4.126 0-7.479 3.335-7.499 7.465-.02 4.142 3.323 7.516 7.465 7.535z" fill="#000" data-original="#000000" style=""/><path d="m285.479 150.753h.036c4.126 0 7.479-3.335 7.499-7.465.02-4.142-3.323-7.516-7.465-7.535h-.105c-.013 0-.024 0-.036 0-4.126 0-7.479 3.335-7.499 7.465-.02 4.142 3.323 7.516 7.465 7.535z" fill="#000" data-original="#000000" style=""/><path d="m254.002 191.277c1.456 1.406 3.333 2.105 5.209 2.105 1.964 0 3.925-.767 5.396-2.291 2.877-2.979 2.794-7.728-.186-10.604-6.748-6.517-15.626-10.105-24.998-10.105-9.37 0-18.248 3.588-24.997 10.104-2.98 2.877-3.063 7.625-.187 10.605 2.876 2.979 7.625 3.063 10.604.187 3.938-3.802 9.116-5.896 14.579-5.896 5.466 0 10.643 2.094 14.58 5.895z" fill="#000" data-original="#000000" style=""/><path d="m172.441 313.197c1.875 0 3.753-.699 5.209-2.104 6.14-5.929 14.214-9.194 22.736-9.194 8.521 0 16.596 3.265 22.737 9.194 2.979 2.878 7.728 2.792 10.604-.186 2.877-2.98 2.794-7.728-.187-10.605-8.951-8.643-20.727-13.403-33.155-13.403-12.43 0-24.205 4.76-33.156 13.403-2.979 2.877-3.063 7.625-.186 10.605 1.474 1.524 3.435 2.29 5.398 2.29z" fill="#000" data-original="#000000" style=""/><path d="m351.284 255.668c1.964 0 3.925-.767 5.396-2.291 2.877-2.98 2.794-7.728-.187-10.605-11.765-11.359-27.239-17.614-43.572-17.614-15.155 0-29.565 5.393-40.964 15.243-7.794-2.393-16.126-2.073-23.798.97-3.85 1.528-5.732 5.887-4.205 9.737 1.528 3.851 5.887 5.734 9.738 4.205 5.086-2.019 10.672-1.986 15.725.091 5.053 2.078 9.045 5.983 11.241 10.997 1.233 2.815 3.986 4.493 6.874 4.493 1.005 0 2.026-.203 3.006-.632 3.794-1.662 5.522-6.085 3.86-9.879-1.997-4.559-4.869-8.576-8.413-11.883 7.888-5.413 17.209-8.342 26.936-8.342 12.426 0 24.2 4.761 33.154 13.405 1.456 1.406 3.334 2.105 5.209 2.105z" fill="#000" data-original="#000000" style=""/></g></g></g></svg>
