<?xml version="1.0" encoding="UTF-8"?>
<svg width="42px" height="42px" viewBox="0 0 42 42" version="1.1" xmlns="http://www.w3.org/2000/svg" xmlns:xlink="http://www.w3.org/1999/xlink">
    <title>Group 8</title>
    <defs>
        <circle id="path-1" cx="15" cy="15" r="15"></circle>
        <filter x="-33.3%" y="-26.7%" width="166.7%" height="166.7%" filterUnits="objectBoundingBox" id="filter-2">
            <feOffset dx="0" dy="2" in="SourceAlpha" result="shadowOffsetOuter1"></feOffset>
            <feGaussianBlur stdDeviation="3" in="shadowOffsetOuter1" result="shadowBlurOuter1"></feGaussianBlur>
            <feComposite in="shadowBlurOuter1" in2="SourceAlpha" operator="out" result="shadowBlurOuter1"></feComposite>
            <feColorMatrix values="0 0 0 0 0   0 0 0 0 0   0 0 0 0 0  0 0 0 0.5 0" type="matrix" in="shadowBlurOuter1"></feColorMatrix>
        </filter>
        <linearGradient x1="50%" y1="0%" x2="50%" y2="100%" id="linearGradient-3">
            <stop stop-color="#87ECFE" offset="0%"></stop>
            <stop stop-color="#3CA3C2" offset="100%"></stop>
        </linearGradient>
        <linearGradient x1="50%" y1="0%" x2="50%" y2="100%" id="linearGradient-4">
            <stop stop-color="#88EDFF" offset="0%"></stop>
            <stop stop-color="#2A97BA" offset="100%"></stop>
        </linearGradient>
        <linearGradient x1="50%" y1="0%" x2="50%" y2="100%" id="linearGradient-5">
            <stop stop-color="#88EDFF" offset="0%"></stop>
            <stop stop-color="#2A97BA" offset="100%"></stop>
        </linearGradient>
    </defs>
    <g id="Page-1" stroke="none" stroke-width="1" fill="none" fill-rule="evenodd">
        <g id="Safe-Unloading" transform="translate(-302.000000, -21.000000)">
            <g id="Group-8" transform="translate(308.000000, 25.000000)">
                <g id="Group-5-Copy-2">
                    <g id="Oval">
                        <use fill="black" fill-opacity="1" filter="url(#filter-2)" xlink:href="#path-1"></use>
                        <circle stroke="#25334B" stroke-width="1" stroke-linejoin="square" fill="#0E2365" fill-rule="evenodd" cx="15" cy="15" r="14.5"></circle>
                    </g>
                    <path d="M13.5562524,8.15757297 C13.7916376,7.97284307 14.0740999,7.94821242 14.3447929,8.09599634 C14.7802555,8.31767222 15.1333333,8.97038452 15.1333333,9.51225889 L15.1333333,9.51225889 L15.1333333,20.4728995 C15.1333333,21.0147739 14.7684863,21.6798015 14.3447929,21.9014774 C14.2271003,21.963054 14.1094077,22 13.9917151,22 C13.8387147,22 13.6857143,21.9507387 13.5562524,21.8522161 L13.5562524,21.8522161 L8.31893148,17.8251043 L6.10631049,17.8251043 C5.49430894,17.8251043 5,17.3078606 5,16.6674636 L5,16.6674636 L5,13.3300101 C5,12.6896131 5.49430894,12.1723694 6.10631049,12.1723694 L6.10631049,12.1723694 L8.30716221,12.1723694 Z M14.0505614,8.72407799 C13.9917151,8.69944734 13.9799458,8.71176267 13.9564073,8.72407799 L13.9564073,8.72407799 L8.62493225,12.8127664 C8.56608595,12.8497124 8.49547038,12.874343 8.42485482,12.874343 L8.42485482,12.874343 L6.10631049,12.874343 C5.85915602,12.874343 5.65907859,13.0837036 5.65907859,13.3423254 L5.65907859,13.3423254 L5.65907859,16.6797789 C5.65907859,16.9384008 5.85915602,17.1477613 6.10631049,17.1477613 L6.10631049,17.1477613 L8.42485482,17.1477613 C8.49547038,17.1477613 8.56608595,17.1600767 8.62493225,17.209338 L8.62493225,17.209338 L13.9564073,21.2980264 C13.9681765,21.3103417 13.9917151,21.3349724 14.0505614,21.2980264 C14.2624081,21.1871884 14.4742547,20.7807827 14.4742547,20.4852148 L14.4742547,20.4852148 L14.4742547,9.54920487 C14.4742547,9.25363703 14.2624081,8.83491593 14.0505614,8.72407799 Z M21.5612527,8.51299799 C21.6799299,8.36962694 21.874129,8.38266067 21.9928062,8.52603172 C23.2982558,10.1682819 24.0211081,12.3188477 23.9995304,14.5997507 C23.9995304,16.8545863 23.287467,19.0051521 22.0035951,20.6474023 C21.9496509,20.7256047 21.8633402,20.7647059 21.7878183,20.7647059 C21.7122964,20.7647059 21.6367745,20.7256047 21.5828303,20.660436 C21.4641531,20.517065 21.4533643,20.2824578 21.5720415,20.1390868 C22.7588139,18.6402076 23.4061442,16.6721141 23.4061442,14.5997507 C23.4061442,12.5143537 22.748025,10.5332264 21.5504638,9.03434726 C21.4317866,8.89097621 21.4425754,8.65636904 21.5612527,8.51299799 Z M19.8644838,11.3909139 C19.973274,11.2538267 20.1512943,11.2662892 20.2600845,11.4033764 C21.0413959,12.4377617 21.4666667,13.7837087 21.4666667,15.2044306 C21.4666667,16.637615 21.0315059,17.983562 20.2600845,19.0054848 C20.2106344,19.0802596 20.1315143,19.1176471 20.0622841,19.1176471 C19.993054,19.1176471 19.9238239,19.0802596 19.8743738,19.0179473 C19.7655836,18.8808601 19.7556936,18.6565356 19.8644838,18.5194484 C20.537005,17.6221503 20.9128257,16.4506779 20.9128257,15.2044306 C20.9128257,13.9581833 20.537005,12.7867109 19.8545938,11.8894129 C19.7458036,11.7523257 19.7556936,11.5280011 19.8644838,11.3909139 Z M18.5739747,13.0417419 C18.6528499,12.9056601 18.7819183,12.9056601 18.8536229,13.054113 C19.1762939,13.6231826 19.3555556,14.3901895 19.3555556,15.2066808 C19.3555556,16.023172 19.1834644,16.7901789 18.8607934,17.3592485 C18.8249411,17.433475 18.7675773,17.4705882 18.7173841,17.4705882 C18.6671908,17.4705882 18.6098271,17.433475 18.5739747,17.3716196 C18.4950996,17.2355377 18.4879292,17.0128583 18.5668043,16.8767764 C18.8177706,16.4314176 18.9540095,15.8376058 18.9540095,15.2066808 C18.9540095,14.5757557 18.8177706,13.9819439 18.5668043,13.5365851 C18.4950996,13.4005032 18.4950996,13.1778238 18.5739747,13.0417419 Z" id="Combined-Shape" stroke="url(#linearGradient-4)" fill="url(#linearGradient-3)" fill-rule="nonzero"></path>
                </g>
                <line x1="24.5" y1="4.5" x2="5.5" y2="26.5" id="Line-5" stroke="url(#linearGradient-5)" stroke-width="2" stroke-linecap="square"></line>
            </g>
        </g>
    </g>
</svg>