<?xml version="1.0" encoding="UTF-8"?>
<svg width="290px" height="290px" viewBox="0 0 290 290" version="1.1" xmlns="http://www.w3.org/2000/svg" xmlns:xlink="http://www.w3.org/1999/xlink">
    <title>Group</title>
    <g id="Page-1" stroke="none" stroke-width="1" fill="none" fill-rule="evenodd">
        <g id="Safe-Unloading---FallAlert" transform="translate(-367.000000, -377.000000)">
            <g id="Group-2" transform="translate(367.000000, 377.000000)">
                <rect id="Rectangle" fill="#FFFFFF" x="22.6241135" y="93.5815603" width="243.723404" height="103.865248"></rect>
                <path d="M237.304776,127.51773 L231.382979,127.51773 L231.382979,139.858156 C231.382979,139.858156 236.826103,139.855391 237.304776,139.855391 C240.783688,139.855391 243.723404,137.030361 243.723404,133.686561 C243.723404,130.34276 240.783688,127.51773 237.304776,127.51773 Z" id="Path" fill="#FF0000" fill-rule="nonzero"></path>
                <path d="M169.68113,127.51773 C160.041184,127.51773 152.198582,135.360458 152.198582,145 C152.198582,154.639542 160.041184,162.48227 169.68113,162.48227 C179.320519,162.48227 187.163121,154.639542 187.163121,145 C187.163121,135.360458 179.320519,127.51773 169.68113,127.51773 Z" id="Path" fill="#FF0000" fill-rule="nonzero"></path>
                <path d="M205.060586,0 L84.9394141,0 L0,84.9388477 L0,205.061152 L84.9394141,290 L205.060586,290 L290,205.061152 L290,84.9388477 L205.060586,0 Z M78.55375,161.82623 C76.6993359,172.532441 66.6008789,180.303535 54.5432227,180.303535 C45.0055078,180.303535 36.0432617,176.450273 29.9543945,169.730996 L42.5456055,158.320742 C45.3770703,161.445605 49.8624414,163.311348 54.5432227,163.311348 C58.9827148,163.311348 61.5037891,160.693984 61.8102148,158.925664 C61.9455859,158.144023 62.3052539,156.068145 57.7383203,154.351934 C54.7799805,153.240078 52.5942187,152.704824 50.4803906,152.187129 C47.2439453,151.394727 43.8970508,150.575703 40.0568164,148.078984 C33.2463477,143.653086 30.9456055,136.14877 31.063418,130.601953 C31.2407031,122.219707 36.995957,114.48373 45.3838672,111.35377 C59.5621484,106.062402 70.9633398,114.531309 77.7755078,119.591016 L67.6441992,133.232344 C57.6199414,125.788066 54.5585156,126.066738 51.3243359,127.27375 C48.9782812,128.149414 48.0720312,130.000996 48.052207,130.962754 C48.03125,131.94207 48.4668164,133.279922 49.3164258,133.831602 C50.6707031,134.711797 51.7117578,134.994434 54.5211328,135.682617 C56.8756836,136.259219 59.8068359,136.976855 63.7150391,138.445547 C74.4886523,142.493652 80.3130078,151.671133 78.55375,161.82623 L78.55375,161.82623 Z M131.129844,127.249395 L116.576602,127.249395 L116.576602,179.743359 L99.5844141,179.743359 L99.5844141,127.249395 L85.1478516,127.249395 L85.1478516,110.257207 L131.13041,110.257207 L131.13041,127.249395 L131.129844,127.249395 Z M169.099453,179.742793 C149.941895,179.742793 134.356094,164.156992 134.356094,145 C134.356094,125.843008 149.941895,110.257207 169.099453,110.257207 C188.256445,110.257207 203.842246,125.843008 203.842246,145 C203.842246,164.156992 188.256445,179.742793 169.099453,179.742793 Z M237.344609,156.876973 C236.821816,156.876973 231.224023,156.879238 231.224023,156.879238 L231.224023,179.742793 L214.231836,179.742793 L214.231836,110.257207 L237.344609,110.257207 C250.357793,110.257207 260.944492,120.714199 260.944492,133.56709 C260.944492,146.41998 250.357793,156.876973 237.344609,156.876973 Z" id="Shape" fill="#FF0000" fill-rule="nonzero"></path>
            </g>
        </g>
    </g>
</svg>