<?xml version="1.0" encoding="UTF-8"?>
<svg width="69px" height="69px" viewBox="0 0 69 69" version="1.1" xmlns="http://www.w3.org/2000/svg" xmlns:xlink="http://www.w3.org/1999/xlink">
    <title>stuck vehicle</title>
    <defs>
        <rect id="path-1" x="0" y="0" width="60" height="60" rx="30"></rect>
        <filter x="-11.7%" y="-8.3%" width="123.3%" height="123.3%" filterUnits="objectBoundingBox" id="filter-2">
            <feOffset dx="0" dy="2" in="SourceAlpha" result="shadowOffsetOuter1"></feOffset>
            <feGaussianBlur stdDeviation="2" in="shadowOffsetOuter1" result="shadowBlurOuter1"></feGaussianBlur>
            <feComposite in="shadowBlurOuter1" in2="SourceAlpha" operator="out" result="shadowBlurOuter1"></feComposite>
            <feColorMatrix values="0 0 0 0 0   0 0 0 0 0   0 0 0 0 0  0 0 0 0.5 0" type="matrix" in="shadowBlurOuter1"></feColorMatrix>
        </filter>
    </defs>
    <g id="Page-1" stroke="none" stroke-width="1" fill="none" fill-rule="evenodd">
        <g id="Tablet-Copy" transform="translate(-516.000000, -358.000000)">
            <g id="stuck-vehicle" transform="translate(520.215589, 360.185062)">
                <g id="Rectangle">
                    <use fill="black" fill-opacity="1" filter="url(#filter-2)" xlink:href="#path-1"></use>
                    <rect stroke-linejoin="square" fill="#FF6A00" fill-rule="evenodd" x="0" y="0" width="60" height="60" rx="30"></rect>
                </g>
                <g id="warning-(1)-copy" transform="translate(13.005390, 12.000000)" fill="#FFFFFF" fill-rule="nonzero">
                    <g id="Group-12" transform="translate(0.779022, 0.814938)">
                        <path d="M17.8890306,16.8113208 L2.14668367,16.8113208 C0.963145408,16.8113208 0,15.8684858 0,14.7099057 C0,14.2994292 0.115920918,13.9127689 0.336313776,13.5905519 L8.19031378,1.0072783 C8.55954337,0.390863208 9.26365561,0 10.0178571,0 C10.7720587,0 11.4761709,0.390863208 11.851125,1.01848585 L19.7151429,13.6157689 C19.9197934,13.9127689 20.0357143,14.2994292 20.0357143,14.7099057 C20.0357143,15.8684858 19.0725689,16.8113208 17.8890306,16.8113208 Z M10.0178571,1.4009434 C9.76884184,1.4009434 9.53986224,1.52562736 9.41964796,1.72736321 L1.54131888,14.3470613 C1.46260714,14.4619387 1.43112245,14.578217 1.43112245,14.7099057 C1.43112245,15.096566 1.753125,15.4103774 2.14668367,15.4103774 L17.8890306,15.4103774 C18.2825893,15.4103774 18.6045918,15.096566 18.6045918,14.7099057 C18.6045918,14.578217 18.5731071,14.4619387 18.5115689,14.3722783 L10.6232219,1.73857075 C10.495852,1.52562736 10.2668724,1.4009434 10.0178571,1.4009434 Z" id="Shape"></path>
                        <path d="M10.0178571,10.5849057 C9.51514286,10.5849057 9.10714286,10.2780679 9.10714286,9.9 L9.10714286,4.42075472 C9.10714286,4.04268679 9.51514286,3.73584906 10.0178571,3.73584906 C10.5205714,3.73584906 10.9285714,4.04268679 10.9285714,4.42075472 L10.9285714,9.9 C10.9285714,10.2780679 10.5205714,10.5849057 10.0178571,10.5849057 Z" id="Path"></path>
                        <path d="M10.0178571,13.6964133 C9.78107143,13.6964133 9.54428571,13.603017 9.37853571,13.4162246 C9.28928571,13.3415076 9.21642857,13.2294321 9.18,13.1173567 C9.12535714,13.0052812 9.10714286,12.8745265 9.10714286,12.762451 C9.10714286,12.5196208 9.19821429,12.2767906 9.37853571,12.1086774 C9.61714286,11.847168 10.03425,11.7537718 10.3621071,11.9032057 C10.4732143,11.9405642 10.5825,12.0152812 10.6553571,12.1086774 C10.8375,12.2767906 10.9285714,12.5196208 10.9285714,12.762451 C10.9285714,12.8932057 10.9103571,13.0052812 10.8557143,13.1173567 C10.8174643,13.2294321 10.7446071,13.3415076 10.6553571,13.4162246 C10.4914286,13.603017 10.2546429,13.6964133 10.0178571,13.6964133 Z" id="Path"></path>
                        <path d="M7.1901455,29.8867925 L3.13128307,29.8867925 C2.74338624,29.8867925 2.42857143,29.5907073 2.42857143,29.2258881 L2.42857143,18.7175082 C2.42857143,18.3526889 2.74338624,18.0566038 3.13128307,18.0566038 C3.51917989,18.0566038 3.83399471,18.3513671 3.83399471,18.7175082 L3.83399471,28.5649837 L7.1901455,28.5649837 C7.57804233,28.5649837 7.89285714,28.8610688 7.89285714,29.2258881 C7.89285714,29.5907073 7.57804233,29.8867925 7.1901455,29.8867925 Z" id="Path"></path>
                        <path d="M23.6026786,29.8867925 L14.0401786,29.8867925 C13.6631429,29.8867925 13.3571429,29.5846038 13.3571429,29.2122642 C13.3571429,28.8399245 13.6631429,28.5377358 14.0401786,28.5377358 L22.9196429,28.5377358 L22.9196429,15.0471698 L22.2366071,15.0471698 C21.8595714,15.0471698 21.5535714,14.7449811 21.5535714,14.3726415 C21.5535714,14.0003019 21.8595714,13.6981132 22.2366071,13.6981132 L23.6026786,13.6981132 C23.9797143,13.6981132 24.2857143,14.0003019 24.2857143,14.3726415 L24.2857143,29.2122642 C24.2857143,29.5846038 23.9797143,29.8867925 23.6026786,29.8867925 Z" id="Path"></path>
                        <path d="M33.3169643,30.509434 L30.5848214,30.509434 C30.2077857,30.509434 29.9017857,30.195829 29.9017857,29.8094228 C29.9017857,29.4230166 30.2077857,29.1094116 30.5848214,29.1094116 L32.6339286,29.1094116 L32.6339286,24.2373339 C32.6339286,21.9440974 30.8143214,20.0792676 28.5766964,20.0792676 L24.4375,20.0792676 L24.4375,29.1094116 L25.1205357,29.1094116 C25.4975714,29.1094116 25.8035714,29.4230166 25.8035714,29.8094228 C25.8035714,30.195829 25.4975714,30.509434 25.1205357,30.509434 L23.7544643,30.509434 C23.3774286,30.509434 23.0714286,30.195829 23.0714286,29.8094228 L23.0714286,19.3792564 C23.0714286,18.9928503 23.3774286,18.6792453 23.7544643,18.6792453 L28.5766964,18.6792453 C31.5656607,18.6792453 34,21.1726851 34,24.2373339 L34,29.8094228 C34,30.195829 33.694,30.509434 33.3169643,30.509434 Z" id="Path"></path>
                        <path d="M10.625,33 C8.78305,33 7.28571429,31.4630717 7.28571429,29.5754717 C7.28571429,27.6878717 8.78305,26.1509434 10.625,26.1509434 C12.46695,26.1509434 13.9642857,27.6878717 13.9642857,29.5754717 C13.9642857,31.4630717 12.46695,33 10.625,33 Z M10.625,27.5207547 C9.52036429,27.5207547 8.62142857,28.4426377 8.62142857,29.5754717 C8.62142857,30.7083057 9.52036429,31.6301887 10.625,31.6301887 C11.7296357,31.6301887 12.6285714,30.7083057 12.6285714,29.5754717 C12.6285714,28.4426377 11.7296357,27.5207547 10.625,27.5207547 Z" id="Shape"></path>
                        <path d="M27.625,33 C25.78305,33 24.2857143,31.4630717 24.2857143,29.5754717 C24.2857143,27.6878717 25.78305,26.1509434 27.625,26.1509434 C29.46695,26.1509434 30.9642857,27.6878717 30.9642857,29.5754717 C30.9642857,31.4630717 29.46695,33 27.625,33 Z M27.625,27.5207547 C26.5203643,27.5207547 25.6214286,28.4426377 25.6214286,29.5754717 C25.6214286,30.7083057 26.5203643,31.6301887 27.625,31.6301887 C28.7296357,31.6301887 29.6285714,30.7083057 29.6285714,29.5754717 C29.6285714,28.4426377 28.7296357,27.5207547 27.625,27.5207547 Z" id="Shape"></path>
                    </g>
                </g>
            </g>
        </g>
    </g>
</svg>