<?xml version="1.0" encoding="UTF-8"?>
<svg width="38px" height="28px" viewBox="0 0 38 28" version="1.1" xmlns="http://www.w3.org/2000/svg" xmlns:xlink="http://www.w3.org/1999/xlink">
    <!-- Generator: Sketch 58 (84663) - https://sketch.com -->
    <title>noun_Volume_2387836</title>
    <desc>Created with Sketch.</desc>
    <g id="Tablet-alert" stroke="none" stroke-width="1" fill="none" fill-rule="evenodd">
        <g id="Artboard" transform="translate(-27.000000, -35.000000)" fill="#F6F6F7" fill-rule="nonzero">
            <g id="noun_Volume_2387836" transform="translate(27.000000, 35.000000)" fill="#87ecfe" fill-rule="nonzero">
                <path d="M19.248,0.216 C18.696,-0.072 18.12,-0.024 17.64,0.336 L6.936,8.16 L2.448,8.16 C1.2,8.16 0.192,9.168 0.192,10.416 L0.192,16.92 C0.192,18.168 1.2,19.176 2.448,19.176 L6.96,19.176 L17.64,27.024 C17.904,27.216 18.216,27.312 18.528,27.312 C18.768,27.312 19.008,27.24 19.248,27.12 C20.112,26.688 20.856,25.392 20.856,24.336 L20.856,2.976 C20.856,1.92 20.136,0.648 19.248,0.216 Z M19.512,24.36 C19.512,24.936 19.08,25.728 18.648,25.944 C18.528,26.016 18.48,25.968 18.456,25.944 L7.584,17.976 C7.464,17.88 7.32,17.856 7.176,17.856 L2.448,17.856 C1.944,17.856 1.536,17.448 1.536,16.944 L1.536,10.44 C1.536,9.936 1.944,9.528 2.448,9.528 L7.176,9.528 C7.32,9.528 7.464,9.48 7.584,9.408 L18.456,1.44 L18.456,1.44 C18.504,1.416 18.528,1.392 18.648,1.44 C19.08,1.656 19.512,2.472 19.512,3.048 L19.512,24.36 Z" id="Shape"></path>
                <path d="M25.8,9.48 C25.536,9.744 25.536,10.176 25.776,10.44 C26.616,11.304 27.072,12.456 27.072,13.68 C27.072,14.904 26.616,16.056 25.776,16.92 C25.512,17.184 25.536,17.616 25.8,17.88 C25.92,18 26.112,18.072 26.28,18.072 C26.448,18.072 26.64,18 26.76,17.856 C27.84,16.752 28.416,15.264 28.416,13.68 C28.416,12.096 27.816,10.608 26.736,9.504 C26.496,9.216 26.064,9.216 25.8,9.48 Z" id="Path"></path>
                <path d="M29.952,6.36 C29.688,6.096 29.256,6.072 28.992,6.336 C28.728,6.6 28.704,7.032 28.968,7.296 C30.624,9.024 31.536,11.28 31.536,13.68 C31.536,16.08 30.624,18.336 28.992,20.064 C28.728,20.328 28.752,20.76 29.016,21.024 C29.136,21.144 29.304,21.216 29.472,21.216 C29.64,21.216 29.832,21.144 29.952,21 C31.824,19.032 32.88,16.44 32.88,13.68 C32.88,10.944 31.848,8.352 29.952,6.36 Z" id="Path"></path>
                <path d="M33.24,2.496 C32.976,2.232 32.544,2.208 32.28,2.472 C32.016,2.736 31.992,3.168 32.256,3.432 C34.92,6.192 36.384,9.84 36.384,13.68 C36.384,17.496 34.944,21.12 32.304,23.88 C32.04,24.144 32.064,24.576 32.328,24.84 C32.448,24.96 32.616,25.032 32.784,25.032 C32.952,25.032 33.144,24.96 33.264,24.816 C36.12,21.792 37.704,17.832 37.704,13.68 C37.752,9.48 36.144,5.52 33.24,2.496 Z" id="Path"></path>
            </g>
        </g>
    </g>
</svg>