<?xml version="1.0"?>
<svg xmlns="http://www.w3.org/2000/svg" xmlns:xlink="http://www.w3.org/1999/xlink" xmlns:svgjs="http://svgjs.com/svgjs" version="1.1" width="512" height="512" x="0" y="0" viewBox="0 0 64 64" style="enable-background:new 0 0 512 512" xml:space="preserve"><g><path xmlns="http://www.w3.org/2000/svg" d="m51.4 34.976-5.333-9.89a1.261 1.261 0 0 0 -.48-.492l-9.573-5.48a6.583 6.583 0 1 0 -7.689 0 1.248 1.248 0 0 0 -.3.24l-6.846 7.796-5.97-.518a1.234 1.234 0 0 0 -1.3.879l-1.4 4.574a1.249 1.249 0 0 0 1.08 1.61l9.934.921a1.26 1.26 0 0 0 1.012-.374l3.186-3.282v4.11l-5.255 5.519a1.246 1.246 0 0 0 -.3.522l-3.667 13a1.25 1.25 0 0 0 .892 1.55l4.266 1.1a1.247 1.247 0 0 0 1.473-.749l4.644-11.674 1.556-1.626 2.9 6.552a1.257 1.257 0 0 0 .36.469l8.333 6.693a1.253 1.253 0 0 0 1.639-.063l3.372-3.163a1.251 1.251 0 0 0 -.011-1.833l-7.2-6.6-3.038-9.39v-6.357l3.148 1.946 4.109 7.408a1.249 1.249 0 0 0 1.665.5l4.266-2.2a1.252 1.252 0 0 0 .529-1.7zm-19.233-25.276a4.084 4.084 0 1 1 -4.083 4.084 4.088 4.088 0 0 1 4.083-4.084zm6.622 36.682 6.45 5.912-1.6 1.5-7.249-5.822-2.79-6.307 2.407-3.355 2.438 7.535a1.257 1.257 0 0 0 .344.537zm7.749-10.282-3.679-6.633a1.246 1.246 0 0 0 -.435-.457l-5.333-3.3a1.25 1.25 0 0 0 -1.907 1.064v8.29l-7.384 7.72a1.263 1.263 0 0 0 -.258.4l-4.33 10.88-1.962-.505 3.236-11.471 5.386-5.657a1.246 1.246 0 0 0 .345-.861v-7.693a1.251 1.251 0 0 0 -2.148-.871l-4.916 5.066-7.808-.725.655-2.137 5.592.486a1.238 1.238 0 0 0 1.047-.42l6.893-7.842h5.5l9 5.153 4.568 8.455z" fill="#000" data-original="#000000" style=""/></g></svg>
