<svg xmlns="http://www.w3.org/2000/svg" width="23" height="21" viewBox="0 0 23 21">
    <path fill="#FFF" fill-rule="nonzero" d="M3.5 20.85h15.95c2.625 0 4.275-2.875 2.975-5.125l-8-13.85c-1.3-2.3-4.6-2.3-5.9 0l-8 13.85C-.75 18 .875 20.85 3.5 20.85zm8-3.075a1.28 1.28 0 0 1-1.275-1.275c0-.7.575-1.275 1.275-1.275s1.275.575 1.25 1.3c.025.675-.575 1.25-1.25 1.25zm-.325-11.5c.6-.15 1.225.15 1.475.725.075.2.125.4.125.625a48.45 48.45 0 0 1-.125 1.9c-.05.975-.125 1.975-.175 2.95-.025.325-.025.6-.025.925-.025.525-.425.925-.95.925a.923.923 0 0 1-.95-.9c-.075-1.525-.175-3.05-.25-4.575-.025-.4-.05-.8-.075-1.225-.025-.625.35-1.175.95-1.35z"/>
</svg>
