<?xml version="1.0" encoding="UTF-8"?>
<svg width="69px" height="59px" viewBox="0 0 69 59" version="1.1" xmlns="http://www.w3.org/2000/svg" xmlns:xlink="http://www.w3.org/1999/xlink">
    <title>Group 3 Copy</title>
    <g id="Page-1" stroke="none" stroke-width="1" fill="none" fill-rule="evenodd">
        <g id="Safe-Unloading---FallAlert" transform="translate(-685.000000, -147.000000)" fill="#FF0000" fill-rule="nonzero">
            <g id="Group-3-Copy" transform="translate(685.000000, 147.000000)">
                <path d="M68.1110416,49.6534813 L39.8083607,2.98092145 C38.6933095,1.14225104 36.659291,0 34.4999404,0 C32.3405898,0 30.3065713,1.14225104 29.1913852,2.98105545 L0.888839154,49.6534813 C-0.263542229,51.5539276 -0.297637948,53.9349126 0.799759035,55.8672519 C1.89742555,57.7995912 3.96553977,59 6.19725953,59 L62.8026212,59 C65.034341,59 67.1025899,57.7995912 68.2002565,55.8671179 C69.2976534,53.9346446 69.2635577,51.5536596 68.1110416,49.6534813 Z M64.2885477,53.6706565 C63.986403,54.2025188 63.417018,54.533107 62.8026212,54.533107 L6.19725953,54.533107 C5.58286277,54.533107 5.01347775,54.2026528 4.71146784,53.6707905 C4.40932318,53.1387942 4.41875677,52.4832461 4.73586043,51.960228 L33.038676,5.28766821 C33.3456723,4.78153469 33.9056237,4.46702704 34.5000751,4.46702704 C35.0943918,4.46702704 35.6543432,4.78153469 35.9613395,5.28766821 L64.2638855,51.960228 C64.5812587,52.4833801 64.5906923,53.1387942 64.2885477,53.6706565 Z" id="Shape"></path>
                <path d="M34.0206721,18 C32.3240863,18 31,18.941659 31,20.611014 C31,25.7043319 31.5792208,33.0233641 31.5792208,38.1168204 C31.5793546,39.4436406 32.6967197,40 34.0208059,40 C35.0138706,40 36.4207792,39.4436406 36.4207792,38.1168204 C36.4207792,33.0235025 37,25.7044703 37,20.611014 C37,18.9417974 35.6345695,18 34.0206721,18 Z" id="Path"></path>
                <path d="M33.5228555,42 C31.5099432,42 30,43.5908289 30,45.5 C30,47.3636096 31.5097952,49 33.5228555,49 C35.3986348,49 37,47.3636096 37,45.5 C37,43.5908289 35.3984869,42 33.5228555,42 Z" id="Path"></path>
            </g>
        </g>
    </g>
</svg>